<?xml version="1.0" encoding="UTF-8"?><svg id="_レイヤー_2" xmlns="http://www.w3.org/2000/svg" xmlns:xlink="http://www.w3.org/1999/xlink" viewBox="0 0 1680 1700"><defs><style>.cls-1{fill:none;}.cls-2{clip-path:url(#clippath);}.cls-3,.cls-4,.cls-5{stroke-width:1px;}.cls-3,.cls-4,.cls-5,.cls-6{fill:#fff;stroke-miterlimit:10;}.cls-3,.cls-6{stroke:#c3d94e;}.cls-4{stroke:#cae7ea;}.cls-5{stroke:#a2d7dd;}.cls-6{stroke-width:.83px;}</style><clipPath id="clippath"><rect class="cls-1" width="1680" height="1700"/></clipPath></defs><g id="_レイヤー_3"><g class="cls-2"><g><line class="cls-4" x1="3293.64" y1="1754.05" x2="-193.33" y2="-1732.92"/><line class="cls-4" x1="1190.81" y1="944.7" x2="2727.35" y2="-591.84"/><path class="cls-4" d="M1638.83,433.5c0,179.09-111.73,332.1-269.29,393.2V40.28c157.55,61.03,269.29,214.05,269.29,393.22Z"/><path class="cls-5" d="M413.85,1294.45c0,92.85-59.23,171.82-141.97,201.27v-402.51c82.74,29.43,141.97,108.43,141.97,201.23Z"/><path class="cls-5" d="M42.91,1294.48c0-92.85,59.23-171.82,141.97-201.27v402.51c-82.74-29.43-141.97-108.43-141.97-201.23Z"/><path class="cls-4" d="M-87.22,1459.51c0-90.73,56.61-168.25,136.43-199.2v398.42c-79.82-30.92-136.43-108.44-136.43-199.21Z"/><path class="cls-5" d="M393.06,784.33c-201.11,0-372.94-125.47-441.55-302.4H834.64c-68.54,176.93-240.37,302.4-441.58,302.4Z"/><path class="cls-5" d="M-111.86-89.43C30.29-89.43,151.75-.74,200.25,124.32H-424C-375.55-.74-254.09-89.43-111.86-89.43Z"/><path class="cls-3" d="M-245.87-788.71c-46.61,43.2-44.93,117.79,0,162.73,44.94,44.94,119.18,46.28,162.72,0,65.34-69.44,9.08-137.18,38.36-199.75-67.17,28.13-140.07-19.52-201.08,37.03Zm201.08-37.03l154.4-154.4M-438.64-434.55c-46.61,43.2-44.93,117.79,0,162.73,44.94,44.94,119.18,46.28,162.72,0,65.34-69.44,9.08-137.18,38.36-199.75-67.17,28.13-140.07-19.52-201.08,37.03Zm201.08-37.03l154.4-154.4M-479.08,1070.08c-46.61,43.2-44.93,117.79,0,162.73,44.94,44.94,119.18,46.28,162.72,0,65.34-69.44,9.08-137.18,38.36-199.75-67.17,28.13-140.07-19.52-201.08,37.03ZM-631.4-80.4c-46.61,43.2-44.93,117.79,0,162.73,44.94,44.94,119.18,46.28,162.72,0,65.34-69.44,9.08-137.18,38.36-199.75-67.17,28.13-140.07-19.52-201.08,37.03Zm29.97,29.97c22.35-22.35,55.61-27.1,82.61-14.27l-96.87,96.87c-12.83-27-8.07-60.26,14.26-82.6Zm102.8,102.8c-21.84,21.84-54.12,26.87-80.78,15.11L-483.52-28.41c11.77,26.65,6.73,58.93-15.11,80.78Zm68.32-169.79l154.4-154.4m-1007.64,2449.5l154.4-154.4M-3.53-157.11c-46.61,43.2-44.93,117.79,0,162.73,44.94,44.94,119.18,46.28,162.72,0,65.34-69.44,9.08-137.18,38.36-199.75-67.17,28.13-140.07-19.52-201.08,37.03Zm29.97,29.97c22.35-22.35,55.61-27.1,82.61-14.27L12.17-44.55C-.66-71.54,4.1-104.81,26.44-127.14ZM129.24-24.35C107.4-2.51,75.12,2.52,48.46-9.24l95.89-95.89c11.77,26.65,6.73,58.93-15.11,80.78Zm68.32-169.79l144.48-144.48M-196.29,197.04c-46.61,43.2-44.93,117.79,0,162.73,44.94,44.94,119.18,46.28,162.72,0C31.78,290.33-24.48,222.59,4.8,160.02c-67.17,28.13-140.07-19.52-201.08,37.03ZM4.8,160.02L159.2,5.62M-389.05,551.2c-46.61,43.2-44.93,117.79,0,162.73,44.94,44.94,119.18,46.28,162.72,0,65.34-69.44,9.08-137.18,38.36-199.75-67.17,28.13-140.07-19.52-201.08,37.03Zm29.97,29.97c22.35-22.35,55.61-27.1,82.61-14.27l-96.87,96.87c-12.83-27-8.07-60.26,14.26-82.6Zm102.8,102.8c-21.84,21.84-54.12,26.87-80.78,15.11l95.89-95.89c11.77,26.65,6.73,58.93-15.11,80.78Zm68.32-169.79L-33.56,359.77M2959.5,1875.89c-43.2-46.61-117.79-44.93-162.73,0-44.94,44.94-46.28,119.18,0,162.72,69.44,65.34,137.18,9.08,199.75,38.36-28.13-67.17,19.52-140.07-37.03-201.08Zm37.03,201.08l154.4,154.4M46.06,828.64c-46.61,43.2-44.93,117.79,0,162.73,44.94,44.94,119.18,46.28,162.72,0,65.34-69.44,9.08-137.18,38.36-199.75-67.17,28.13-140.07-19.52-201.08,37.03Zm201.08-37.03l154.4-154.4M-146.7,1182.8c-46.61,43.2-44.93,117.79,0,162.73,44.94,44.94,119.18,46.28,162.72,0,65.34-69.44,9.08-137.18,38.36-199.75-67.17,28.13-140.07-19.52-201.08,37.03Zm29.97,29.97c22.35-22.35,55.61-27.1,82.61-14.27l-96.87,96.87c-12.83-27-8.07-60.26,14.26-82.6Zm102.8,102.8c-21.84,21.84-54.12,26.87-80.78,15.11L1.17,1234.78c11.77,26.65,6.73,58.93-15.11,80.78Zm68.32-169.79l154.4-154.4m272.38,114.72c-46.61,43.2-44.93,117.79,0,162.73,44.94,44.94,119.18,46.28,162.72,0,65.34-69.44,9.08-137.18,38.36-199.75-67.17,28.13-140.07-19.52-201.08,37.03Zm201.08-37.03l154.4-154.4M288.4,1460.24c-46.61,43.2-44.93,117.79,0,162.73,44.94,44.94,119.18,46.28,162.72,0,65.34-69.44,9.08-137.18,38.36-199.75-67.17,28.13-140.07-19.52-201.08,37.03Zm201.08-37.03l154.4-154.4M95.64,1814.4c-46.61,43.2-44.93,117.79,0,162.73,44.94,44.94,119.18,46.28,162.72,0,65.34-69.44,9.08-137.18,38.36-199.75-67.17,28.13-140.07-19.52-201.08,37.03Zm29.97,29.97c22.35-22.35,55.61-27.1,82.61-14.27l-96.87,96.87c-12.83-27-8.07-60.26,14.26-82.6Zm102.8,102.8c-21.84,21.84-54.12,26.87-80.78,15.11l95.89-95.89c11.77,26.65,6.73,58.93-15.11,80.78Zm68.32-169.79l154.4-154.4M-1254.66,28.07c43.2,46.61,117.79,44.93,162.73,0,44.94-44.94,46.28-119.18,0-162.72-69.44-65.34-137.18-9.08-199.75-38.36,28.13,67.17-19.52,140.07,37.03,201.08Zm29.97-29.97c-22.35-22.35-27.1-55.61-14.27-82.61l96.87,96.87c-27,12.83-60.26,8.07-82.6-14.26Zm102.8-102.8c21.84,21.84,26.87,54.12,15.11,80.78l-95.89-95.89c26.65-11.77,58.93-6.73,80.78,15.11Zm-169.79-68.32l-814.86-814.86M-900.51,220.83c43.2,46.61,117.79,44.93,162.73,0,44.94-44.94,46.28-119.18,0-162.72-69.44-65.34-137.18-9.08-199.75-38.36,28.13,67.17-19.52,140.07,37.03,201.08Zm-37.03-201.08l-154.4-154.4M-583.38,212.51L-737.78,58.1m1962.73,241.83l-144.01-144.01M533.47,16.87c43.2,46.61,117.79,44.93,162.73,0,44.94-44.94,46.28-119.18,0-162.72-69.44-65.34-137.18-9.08-199.75-38.36,28.13,67.17-19.52,140.07,37.03,201.08Zm-37.03-201.08l-154.4-154.4M887.62,209.63c43.2,46.61,117.79,44.93,162.73,0,44.94-44.94,46.28-119.18,0-162.72-69.44-65.34-137.18-9.08-199.75-38.36,28.13,67.17-19.52,140.07,37.03,201.08ZM850.6,8.55l-154.4-154.4m587.7,777c92.34,99.63,251.79,96.04,347.84-.02,96.05-96.05,98.93-254.75,0-347.83-148.43-139.68-293.23-19.41-426.99-81.99,60.13,143.58-41.72,299.41,79.15,429.84Zm64.05-64.05c-47.77-47.77-57.93-118.86-30.51-176.58l207.07,207.07c-57.71,27.43-128.82,17.25-176.56-30.49Zm219.74-219.74c46.68,46.68,57.43,115.68,32.3,172.67l-204.97-204.97c56.97-25.16,125.97-14.4,172.67,32.3Zm-339.33,179.23l-178.02-178.02M-906.34,1314.97c43.2,46.61,117.79,44.93,162.73,0,44.94-44.94,46.28-119.18,0-162.72-69.44-65.34-137.18-9.08-199.75-38.36,28.13,67.17-19.52,140.07,37.03,201.08Zm29.97-29.97c-22.35-22.35-27.1-55.61-14.27-82.61l96.87,96.87c-27,12.83-60.26,8.07-82.6-14.26Zm102.8-102.8c21.84,21.84,26.87,54.12,15.11,80.78l-95.89-95.89c26.65-11.77,58.93-6.73,80.78,15.11Zm-169.79-68.32l-154.4-154.4m545.58,548.25c43.2,46.61,117.79,44.93,162.73,0,44.94-44.94,46.28-119.18,0-162.72-69.44-65.34-137.18-9.08-199.75-38.36,28.13,67.17-19.52,140.07,37.03,201.08Zm-37.03-201.08l-154.4-154.4M-198.03,1700.49c43.2,46.61,117.79,44.93,162.73,0,44.94-44.94,46.28-119.18,0-162.72-69.44-65.34-137.18-9.08-199.75-38.36,28.13,67.17-19.52,140.07,37.03,201.08Zm29.97-29.97c-22.35-22.35-27.1-55.61-14.27-82.61l96.87,96.87c-27,12.83-60.26,8.07-82.6-14.26Zm102.8-102.8c21.84,21.84,26.87,54.12,15.11,80.78l-95.89-95.89c26.65-11.77,58.93-6.73,80.78,15.11Zm-169.79-68.32l-154.4-154.4M-164.43-252.55c68.67,74.09,187.24,71.42,258.67-.01,71.43-71.43,73.57-189.45,0-258.66-110.38-103.87-218.06-14.44-317.53-60.97,44.72,106.77-31.02,222.65,58.86,319.65ZM367.93,9.75C237.63,4.8,131.84,115.47,131.84,245.86s105.77,240.07,236.09,236.09c195.56-5.94,212.21-185.86,345.48-234.17C575.14,191.14,538.5,16.24,367.93,9.75Zm0,86.96c64.84,0,120,41.36,140.57,99.15H227.39c20.56-57.79,75.73-99.15,140.54-99.15Zm0,298.31c-63.36,0-117.5-39.53-139.12-95.28H507.06c-21.59,55.75-75.74,95.28-139.13,95.28ZM-146.14,1040.4c62.07,66.97,169.25,64.55,233.81-.01,64.57-64.57,66.5-171.24,0-233.8-99.77-93.89-197.1-13.05-287.01-55.11,40.42,96.51-28.04,201.26,53.2,288.93ZM-821.56-1078.27c-68.67-74.09-187.24-71.42-258.67,.01-71.43,71.43-73.57,189.45,0,258.66,110.38,103.87,218.06,14.44,317.53,60.97-44.72-106.77,31.02-222.65-58.86-319.65Zm-47.63,47.63c35.52,35.52,43.08,88.39,22.69,131.31l-153.99-153.99c42.91-20.39,95.79-12.83,131.3,22.67Zm-163.41,163.41c-34.71-34.71-42.71-86.02-24.02-128.4l152.42,152.42c-42.37,18.71-93.68,10.71-128.41-24.02ZM-821.56,238.41c-68.67-74.09-187.24-71.42-258.67,.01-71.43,71.43-73.57,189.45,0,258.66,110.38,103.87,218.06,14.44,317.53,60.97-44.72-106.77,31.02-222.65-58.86-319.65Zm-47.63,47.63c35.52,35.52,43.08,88.39,22.69,131.31l-153.99-153.99c42.91-20.39,95.79-12.83,131.3,22.67Zm-163.41,163.41c-34.71-34.71-42.71-86.02-24.02-128.4l152.42,152.42c-42.37,18.71-93.68,10.71-128.41-24.02ZM433.6-1061.43c5.52-145.58-118.11-263.77-263.8-263.77s-268.22,118.17-263.77,263.77c6.64,218.48,207.65,237.09,261.63,385.99,63.28-154.48,258.69-195.42,265.95-385.99Zm-97.15,0c0,72.44-46.21,134.07-110.77,157.05v-314.06c64.56,22.97,110.77,84.6,110.77,157.02Zm-333.28,0c0-70.79,44.17-131.28,106.45-155.43v310.87c-62.28-24.13-106.45-84.61-106.45-155.44ZM-997.23,433.97c-130.43,120.89-125.73,329.63,.02,455.38,125.75,125.75,333.51,129.52,455.36,0,182.86-194.32,25.41-383.89,107.34-559-187.96,78.72-391.97-54.62-562.73,103.61Zm83.86,83.86c62.53-62.53,155.61-75.83,231.17-39.94l-271.09,271.09c-35.9-75.55-22.59-168.64,39.92-231.15Zm287.68,287.68c-61.11,61.11-151.44,75.19-226.05,42.28l268.34-268.34c32.93,74.58,18.85,164.92-42.29,226.06Z"/><path class="cls-5" d="M682.51,1008.26c-74.2,74.2-184.64,89.98-274.29,47.39l321.66-321.66c42.6,89.64,26.8,200.1-47.36,274.26Z"/><path class="cls-5" d="M364.18,553.36c72.5-72.5,179.69-89.22,268.21-50.17l-318.39,318.39c-39.08-88.5-22.36-195.68,50.18-268.22Z"/><path class="cls-4" d="M1634.58,1520.82c0,171.71-107.13,318.41-258.19,377v-754.02c151.06,58.52,258.19,205.23,258.19,377.02Z"/><path class="cls-4" d="M1539.54,1437.8c-46.61,43.2-44.93,117.79,0,162.73s119.18,46.28,162.72,0c65.34-69.44,9.08-137.18,38.36-199.75-67.17,28.13-140.07-19.52-201.08,37.03Z"/><path class="cls-4" d="M2331.77-584.81c-165.15-178.17-450.29-171.75-622.07,.03-171.78,171.78-176.93,455.6,0,622.04,265.45,249.8,524.41,34.72,763.62,146.64-107.54-256.77,74.61-535.45-141.54-768.71Z"/><path class="cls-4" d="M1790.83,917.64c3.51-92.42-74.99-167.46-167.48-167.46-92.49,0-170.28,75.02-167.46,167.46,4.21,138.71,131.83,150.52,166.1,245.05,40.17-98.08,164.24-124.07,168.84-245.05Z"/><g><line class="cls-4" x1="991.06" y1="906.34" x2="836.65" y2="751.94"/><path class="cls-3" d="M677.42,914.19c42.67,46.04,116.36,44.38,160.75,0,44.39-44.39,45.72-117.73,0-160.74-68.59-64.55-135.51-8.97-197.32-37.89,27.79,66.35-19.28,138.36,36.58,198.64Z"/><path class="cls-3" d="M1028.08,1107.43c43.2,46.61,117.79,44.93,162.73,0,44.94-44.94,46.28-119.18,0-162.72-69.44-65.34-137.18-9.08-199.75-38.36,28.13,67.17-19.52,140.07,37.03,201.08Z"/><path class="cls-4" d="M1382.24,1300.19c43.2,46.61,117.79,44.93,162.73,0,44.94-44.94,46.28-119.18,0-162.72-69.44-65.34-137.18-9.08-199.75-38.36,28.13,67.17-19.52,140.07,37.03,201.08Z"/><line class="cls-4" x1="1345.21" y1="1099.1" x2="1190.81" y2="944.7"/></g><path class="cls-5" d="M1107.03,1125.01c-68.67-74.09-187.24-71.42-258.67,.01-71.43,71.43-73.57,189.45,0,258.66,110.38,103.87,218.06,14.44,317.53,60.97-44.72-106.77,31.02-222.65-58.86-319.65Z"/><path class="cls-5" d="M1059.39,1172.64c35.52,35.52,43.08,88.39,22.69,131.31l-153.99-153.99c42.91-20.39,95.79-12.83,131.3,22.67Z"/><path class="cls-5" d="M895.98,1336.05c-34.71-34.71-42.71-86.02-24.02-128.4l152.42,152.42c-42.37,18.71-93.68,10.71-128.41-24.02Z"/><path class="cls-3" d="M931.36,1320.57c-130.43,120.89-125.73,329.63,.02,455.38,125.75,125.75,333.51,129.52,455.36,0,182.86-194.32,25.41-383.89,107.34-559-187.96,78.72-391.97-54.62-562.73,103.61Z"/><path class="cls-5" d="M665.51,1395.49c111.42,0,206.62,69.52,244.63,167.54H420.87c37.97-98.02,133.17-167.54,244.65-167.54Z"/><path class="cls-6" d="M819.38,377.13c0-152.96,97.57-283.08,233.89-331.6V708.66c-136.32-48.49-233.89-178.64-233.89-331.54Z"/></g></g></g></svg>