<?xml version="1.0" encoding="UTF-8"?>
<svg id="_レイヤー_2" data-name="レイヤー 2" xmlns="http://www.w3.org/2000/svg" xmlns:xlink="http://www.w3.org/1999/xlink" viewBox="0 0 1280 535">
  <defs>
    <style>
      .cls-1 {
        clip-path: url(#clippath);
      }

      .cls-2, .cls-3 {
        stroke-width: 0px;
      }

      .cls-2, .cls-4, .cls-5, .cls-6 {
        fill: none;
      }

      .cls-3 {
        fill: #fff;
      }

      .cls-4 {
        stroke: #c2d84e;
      }

      .cls-4, .cls-5, .cls-6 {
        stroke-miterlimit: 10;
        stroke-width: 1px;
      }

      .cls-5 {
        stroke: #cae7ea;
      }

      .cls-6 {
        stroke: #a1d6dc;
      }
    </style>
    <clipPath id="clippath">
      <rect class="cls-2" width="1280" height="535"/>
    </clipPath>
  </defs>
  <g id="_レイヤー_3" data-name="レイヤー 3">
    <g class="cls-1">
      <line class="cls-3" x1="2699.5" y1="1242.02" x2="-14.86" y2="-1472.34"/>
      <line class="cls-5" x1="2699.5" y1="1242.02" x2="-14.86" y2="-1472.34"/>
      <path class="cls-3" d="m1411.34,214.06c0,139.41-86.98,258.51-209.62,306.08V-92.03c122.65,47.51,209.62,166.62,209.62,306.1"/>
      <path class="cls-5" d="m1411.34,214.06c0,139.41-86.98,258.51-209.62,306.08V-92.03c122.65,47.51,209.62,166.62,209.62,306.1Z"/>
      <path class="cls-3" d="m441.6,487.16c-156.55,0-290.3-97.67-343.72-235.4h687.45c-53.35,137.72-187.11,235.4-343.74,235.4"/>
      <path class="cls-6" d="m441.6,487.16c-156.55,0-290.3-97.67-343.72-235.4h687.45c-53.35,137.72-187.11,235.4-343.74,235.4Z"/>
      <path class="cls-3" d="m-55.76-737.34c-36.28,33.63-34.97,91.69,0,126.67,34.98,34.98,92.77,36.03,126.66,0,50.87-54.05,7.07-106.78,29.86-155.49-52.28,21.9-109.03-15.19-156.53,28.82m156.53-28.82l120.19-120.19M-205.81-461.66c-36.28,33.63-34.97,91.69,0,126.67,34.98,34.98,92.77,36.03,126.66,0,50.87-54.05,7.07-106.78,29.86-155.49-52.28,21.9-109.03-15.19-156.53,28.82m156.53-28.82l120.19-120.19M-237.29,709.6c-36.28,33.63-34.97,91.69,0,126.67,34.98,34.98,92.77,36.03,126.66,0,50.87-54.05,7.07-106.78,29.86-155.49-52.28,21.9-109.03-15.19-156.53,28.82m-118.57-895.57c-36.28,33.63-34.97,91.69,0,126.67,34.98,34.98,92.77,36.03,126.66,0,50.87-54.05,7.07-106.78,29.86-155.49-52.28,21.9-109.03-15.19-156.53,28.82m23.33,23.33c17.39-17.39,43.28-21.09,64.3-11.11l-75.41,75.41c-9.99-21.01-6.28-46.91,11.1-64.3m80.02,80.02c-17,17-42.13,20.92-62.88,11.76l74.64-74.64c9.16,20.75,5.24,45.87-11.76,62.88m53.18-132.17l120.19-120.19m-784.37,1906.76l120.19-120.19M132.89-245.69c-36.28,33.63-34.97,91.69,0,126.67,34.98,34.98,92.77,36.03,126.66,0,50.87-54.05,7.07-106.78,29.86-155.49-52.28,21.9-109.03-15.19-156.53,28.82m23.33,23.33c17.39-17.39,43.28-21.09,64.3-11.11l-75.41,75.41c-9.99-21.01-6.28-46.91,11.1-64.3m80.02,80.02c-17,17-42.13,20.92-62.88,11.76l74.64-74.64c9.16,20.75,5.24,45.87-11.76,62.88m53.18-132.17l112.47-112.47M-17.16,30c-36.28,33.63-34.97,91.69,0,126.67,34.98,34.98,92.77,36.03,126.66,0,50.87-54.05,7.07-106.78,29.86-155.49C87.08,23.07,30.33-14.01-17.16,30M139.37,1.18l120.19-120.19M-167.22,305.68c-36.28,33.63-34.97,91.69,0,126.67,34.98,34.98,92.77,36.03,126.66,0,50.87-54.05,7.07-106.78,29.86-155.49-52.28,21.9-109.03-15.19-156.53,28.82m23.33,23.33c17.39-17.39,43.28-21.09,64.3-11.11l-75.41,75.41c-9.99-21.01-6.28-46.91,11.1-64.3m80.02,80.02c-17,17-42.13,20.91-62.88,11.76l74.64-74.64c9.16,20.75,5.24,45.87-11.76,62.88M-10.69,276.86l120.19-120.19m2329.89,1180.2c-33.63-36.28-91.69-34.97-126.67,0-34.98,34.98-36.03,92.77,0,126.66,54.05,50.87,106.78,7.07,155.49,29.86-21.9-52.28,15.19-109.03-28.82-156.53m28.82,156.53l120.19,120.19M171.48,521.65c-36.28,33.63-34.97,91.69,0,126.67,34.98,34.98,92.77,36.03,126.66,0,50.87-54.05,7.07-106.78,29.86-155.49-52.28,21.9-109.03-15.19-156.53,28.82m156.53-28.82l120.19-120.19M21.43,797.34c-36.28,33.63-34.97,91.69,0,126.67,34.98,34.98,92.77,36.03,126.66,0,50.87-54.05,7.07-106.78,29.86-155.49-52.28,21.9-109.03-15.19-156.53,28.82m23.33,23.33c17.39-17.39,43.28-21.09,64.3-11.11l-75.41,75.41c-9.99-21.01-6.28-46.91,11.1-64.3m80.02,80.02c-17,17-42.13,20.92-62.88,11.76l74.64-74.64c9.16,20.75,5.24,45.87-11.76,62.88m53.18-132.17l120.19-120.19m212.03,89.3c-36.28,33.63-34.97,91.69,0,126.67,34.98,34.98,92.77,36.03,126.66,0,50.87-54.05,7.07-106.78,29.86-155.49-52.28,21.9-109.03-15.19-156.53,28.82m156.53-28.82l120.19-120.19m-426.77,424.7c-36.28,33.63-34.97,91.69,0,126.67,34.98,34.98,92.77,36.03,126.66,0,50.87-54.05,7.07-106.78,29.86-155.49-52.28,21.9-109.03-15.19-156.53,28.82m156.53-28.82l120.19-120.19m-426.77,424.7c-36.28,33.63-34.97,91.69,0,126.67,34.98,34.98,92.77,36.03,126.66,0,50.87-54.05,7.07-106.78,29.86-155.49-52.28,21.9-109.03-15.19-156.53,28.82m23.33,23.33c17.39-17.39,43.28-21.09,64.3-11.11l-75.41,75.41c-9.99-21.01-6.28-46.91,11.1-64.3m80.02,80.02c-17,17-42.13,20.92-62.88,11.76l74.64-74.64c9.16,20.74,5.24,45.87-11.76,62.88m53.18-132.17l120.19-120.19M-841.03-101.54c33.63,36.28,91.69,34.97,126.67,0,34.98-34.98,36.03-92.77,0-126.66-54.05-50.87-106.78-7.07-155.49-29.86,21.9,52.28-15.19,109.03,28.82,156.53m23.33-23.33c-17.39-17.39-21.09-43.29-11.11-64.31l75.41,75.41c-21.02,9.99-46.91,6.28-64.3-11.1m80.02-80.02c17,17,20.92,42.13,11.76,62.88l-74.64-74.64c20.75-9.16,45.87-5.24,62.88,11.76m-132.17-53.18l-634.31-634.31M-565.35,48.51c33.63,36.28,91.69,34.97,126.67,0,34.98-34.98,36.03-92.77,0-126.66-54.05-50.87-106.78-7.07-155.49-29.86,21.9,52.28-15.19,109.03,28.82,156.53m-28.82-156.53l-120.19-120.19M-318.49,42.03l-120.19-120.19m989.58-32.1c33.63,36.28,91.69,34.97,126.67,0,34.98-34.98,36.03-92.77,0-126.66-54.05-50.87-106.78-7.07-155.49-29.86,21.9,52.28-15.19,109.03,28.82,156.53m-28.82-156.53l-120.19-120.19M826.58,39.8c33.63,36.28,91.69,34.97,126.67,0,34.98-34.98,36.03-92.77,0-126.66-54.05-50.87-106.78-7.07-155.49-29.86,21.9,52.28-15.19,109.03,28.82,156.53m-28.82-156.53l-120.19-120.19m457.49,604.84c71.88,77.55,196,74.76,270.77-.01,74.77-74.77,77.01-198.31,0-270.76-115.54-108.73-228.26-15.11-332.38-63.83,46.81,111.76-32.48,233.07,61.61,334.6m49.86-49.86c-37.18-37.18-45.09-92.53-23.75-137.45l161.19,161.19c-44.92,21.35-100.28,13.43-137.44-23.74m171.05-171.05c36.33,36.33,44.71,90.05,25.14,134.41l-159.55-159.55c44.35-19.58,98.06-11.21,134.41,25.15m-282.53-52.63l-120.19-120.19m120.19,293.96l-120.19-120.19M-569.89,900.22c33.63,36.28,91.69,34.97,126.67,0,34.98-34.98,36.03-92.77,0-126.66-54.05-50.87-106.78-7.07-155.49-29.86,21.9,52.28-15.19,109.03,28.82,156.53m23.33-23.33c-17.39-17.39-21.09-43.28-11.11-64.3l75.41,75.41c-21.01,9.99-46.91,6.28-64.3-11.1m80.02-80.02c17,17,20.92,42.13,11.76,62.88l-74.64-74.64c20.75-9.16,45.87-5.24,62.88,11.76m-132.17-53.18l-120.19-120.19m424.7,426.77c33.63,36.28,91.69,34.97,126.67,0,34.98-34.98,36.03-92.77,0-126.66-54.05-50.87-106.78-7.07-155.49-29.86,21.9,52.28-15.19,109.03,28.82,156.53m-28.82-156.53l-120.19-120.19M-18.52,1200.33c33.63,36.28,91.69,34.97,126.67,0,34.98-34.98,36.03-92.77,0-126.66-54.05-50.87-106.78-7.07-155.49-29.86,21.9,52.28-15.19,109.03,28.82,156.53m23.33-23.33c-17.39-17.39-21.09-43.29-11.11-64.31l75.41,75.41c-21.01,9.99-46.91,6.28-64.3-11.1m80.02-80.02c17,17,20.92,42.13,11.76,62.88l-74.64-74.64c20.75-9.16,45.87-5.24,62.88,11.76m-132.17-53.18l-120.19-120.19M7.64-319.98c53.46,57.67,145.75,55.59,201.36,0,55.6-55.6,57.27-147.47,0-201.35-85.92-80.86-169.74-11.24-247.17-47.47C-3.37-485.69-62.33-395.48,7.64-319.98M422.04-115.8c-101.43-3.85-183.78,82.3-183.78,183.8s82.33,186.88,183.78,183.78c152.23-4.62,165.19-144.68,268.93-182.29-107.63-44.09-136.16-180.24-268.93-185.29m0,67.69c50.48,0,93.41,32.2,109.42,77.18h-218.82c16-44.98,58.95-77.18,109.4-77.18m0,232.21c-49.32,0-91.47-30.77-108.3-74.17h216.6c-16.81,43.39-58.95,74.17-108.3,74.17M21.88,686.5c48.32,52.13,131.75,50.25,182.01,0,50.26-50.26,51.77-133.3,0-182-77.67-73.09-153.43-10.16-223.42-42.9,31.46,75.12-21.83,156.66,41.41,224.91M-503.9-962.75c-53.46-57.67-145.75-55.59-201.36.01-55.6,55.6-57.27,147.47,0,201.35,85.92,80.86,169.74,11.24,247.17,47.46-34.81-83.11,24.15-173.32-45.81-248.82m-37.08,37.08c27.65,27.65,33.53,68.81,17.66,102.22l-119.87-119.87c33.41-15.88,74.57-9.99,102.21,17.65m-127.2,127.2c-27.02-27.02-33.25-66.96-18.7-99.95l118.65,118.65c-32.98,14.56-72.92,8.33-99.95-18.7M-503.9,62.2c-53.46-57.67-145.75-55.59-201.36.01-55.6,55.6-57.27,147.47,0,201.35,85.92,80.86,169.74,11.24,247.17,47.46-34.81-83.11,24.15-173.32-45.81-248.82m-37.08,37.08c27.65,27.65,33.53,68.81,17.66,102.22l-119.87-119.87c33.41-15.88,74.57-9.99,102.21,17.65m-127.2,127.2c-27.02-27.02-33.25-66.96-18.7-99.95l118.65,118.65c-32.98,14.56-72.92,8.33-99.95-18.7M473.16-949.63c4.3-113.32-91.94-205.33-205.35-205.33s-208.79,91.98-205.33,205.33c5.17,170.08,161.64,184.56,203.66,300.46,49.26-120.25,201.37-152.12,207.02-300.46m-75.62,0c0,56.39-35.97,104.36-86.23,122.25v-244.48c50.26,17.88,86.23,65.86,86.23,122.23m-259.44,0c0-55.11,34.38-102.19,82.86-120.99v241.99c-48.48-18.78-82.86-65.87-82.86-121M-640.64,214.43c-101.53,94.11-97.87,256.59.02,354.48,97.89,97.89,259.62,100.82,354.46,0,142.34-151.26,19.78-298.83,83.56-435.14-146.32,61.28-305.12-42.51-438.04,80.66m65.28,65.28c48.68-48.68,121.13-59.03,179.95-31.09l-211.02,211.02c-27.95-58.81-17.58-131.28,31.07-179.93m223.94,223.94c-47.57,47.57-117.89,58.53-175.96,32.91l208.88-208.88c25.64,58.06,14.67,128.38-32.92,175.97"/>
      <path class="cls-4" d="m-55.76-737.34c-36.28,33.63-34.97,91.69,0,126.67,34.98,34.98,92.77,36.03,126.66,0,50.87-54.05,7.07-106.78,29.86-155.49-52.28,21.9-109.03-15.19-156.53,28.82Zm156.53-28.82l120.19-120.19M-205.81-461.66c-36.28,33.63-34.97,91.69,0,126.67,34.98,34.98,92.77,36.03,126.66,0,50.87-54.05,7.07-106.78,29.86-155.49-52.28,21.9-109.03-15.19-156.53,28.82Zm156.53-28.82l120.19-120.19M-237.29,709.6c-36.28,33.63-34.97,91.69,0,126.67,34.98,34.98,92.77,36.03,126.66,0,50.87-54.05,7.07-106.78,29.86-155.49-52.28,21.9-109.03-15.19-156.53,28.82Zm-118.57-895.57c-36.28,33.63-34.97,91.69,0,126.67,34.98,34.98,92.77,36.03,126.66,0,50.87-54.05,7.07-106.78,29.86-155.49-52.28,21.9-109.03-15.19-156.53,28.82Zm23.33,23.33c17.39-17.39,43.28-21.09,64.3-11.11l-75.41,75.41c-9.99-21.01-6.28-46.91,11.1-64.3Zm80.02,80.02c-17,17-42.13,20.92-62.88,11.76l74.64-74.64c9.16,20.75,5.24,45.87-11.76,62.88Zm53.18-132.17l120.19-120.19m-784.37,1906.76l120.19-120.19M132.89-245.69c-36.28,33.63-34.97,91.69,0,126.67,34.98,34.98,92.77,36.03,126.66,0,50.87-54.05,7.07-106.78,29.86-155.49-52.28,21.9-109.03-15.19-156.53,28.82Zm23.33,23.33c17.39-17.39,43.28-21.09,64.3-11.11l-75.41,75.41c-9.99-21.01-6.28-46.91,11.1-64.3Zm80.02,80.02c-17,17-42.13,20.92-62.88,11.76l74.64-74.64c9.16,20.75,5.24,45.87-11.76,62.88Zm53.18-132.17l112.47-112.47M-17.16,30c-36.28,33.63-34.97,91.69,0,126.67,34.98,34.98,92.77,36.03,126.66,0,50.87-54.05,7.07-106.78,29.86-155.49C87.08,23.07,30.33-14.01-17.16,30ZM139.37,1.18l120.19-120.19M-167.22,305.68c-36.28,33.63-34.97,91.69,0,126.67,34.98,34.98,92.77,36.03,126.66,0,50.87-54.05,7.07-106.78,29.86-155.49-52.28,21.9-109.03-15.19-156.53,28.82Zm23.33,23.33c17.39-17.39,43.28-21.09,64.3-11.11l-75.41,75.41c-9.99-21.01-6.28-46.91,11.1-64.3Zm80.02,80.02c-17,17-42.13,20.91-62.88,11.76l74.64-74.64c9.16,20.75,5.24,45.87-11.76,62.88ZM-10.69,276.86l120.19-120.19m2329.89,1180.2c-33.63-36.28-91.69-34.97-126.67,0-34.98,34.98-36.03,92.77,0,126.66,54.05,50.87,106.78,7.07,155.49,29.86-21.9-52.28,15.19-109.03-28.82-156.53Zm28.82,156.53l120.19,120.19M171.48,521.65c-36.28,33.63-34.97,91.69,0,126.67,34.98,34.98,92.77,36.03,126.66,0,50.87-54.05,7.07-106.78,29.86-155.49-52.28,21.9-109.03-15.19-156.53,28.82Zm156.53-28.82l120.19-120.19M21.43,797.34c-36.28,33.63-34.97,91.69,0,126.67,34.98,34.98,92.77,36.03,126.66,0,50.87-54.05,7.07-106.78,29.86-155.49-52.28,21.9-109.03-15.19-156.53,28.82Zm23.33,23.33c17.39-17.39,43.28-21.09,64.3-11.11l-75.41,75.41c-9.99-21.01-6.28-46.91,11.1-64.3Zm80.02,80.02c-17,17-42.13,20.92-62.88,11.76l74.64-74.64c9.16,20.75,5.24,45.87-11.76,62.88Zm53.18-132.17l120.19-120.19m212.03,89.3c-36.28,33.63-34.97,91.69,0,126.67,34.98,34.98,92.77,36.03,126.66,0,50.87-54.05,7.07-106.78,29.86-155.49-52.28,21.9-109.03-15.19-156.53,28.82Zm156.53-28.82l120.19-120.19m-426.77,424.7c-36.28,33.63-34.97,91.69,0,126.67,34.98,34.98,92.77,36.03,126.66,0,50.87-54.05,7.07-106.78,29.86-155.49-52.28,21.9-109.03-15.19-156.53,28.82Zm156.53-28.82l120.19-120.19m-426.77,424.7c-36.28,33.63-34.97,91.69,0,126.67,34.98,34.98,92.77,36.03,126.66,0,50.87-54.05,7.07-106.78,29.86-155.49-52.28,21.9-109.03-15.19-156.53,28.82Zm23.33,23.33c17.39-17.39,43.28-21.09,64.3-11.11l-75.41,75.41c-9.99-21.01-6.28-46.91,11.1-64.3Zm80.02,80.02c-17,17-42.13,20.92-62.88,11.76l74.64-74.64c9.16,20.74,5.24,45.87-11.76,62.88Zm53.18-132.17l120.19-120.19M-841.03-101.54c33.63,36.28,91.69,34.97,126.67,0,34.98-34.98,36.03-92.77,0-126.66-54.05-50.87-106.78-7.07-155.49-29.86,21.9,52.28-15.19,109.03,28.82,156.53Zm23.33-23.33c-17.39-17.39-21.09-43.29-11.11-64.31l75.41,75.41c-21.02,9.99-46.91,6.28-64.3-11.1Zm80.02-80.02c17,17,20.92,42.13,11.76,62.88l-74.64-74.64c20.75-9.16,45.87-5.24,62.88,11.76Zm-132.17-53.18l-634.31-634.31M-565.35,48.51c33.63,36.28,91.69,34.97,126.67,0,34.98-34.98,36.03-92.77,0-126.66-54.05-50.87-106.78-7.07-155.49-29.86,21.9,52.28-15.19,109.03,28.82,156.53Zm-28.82-156.53l-120.19-120.19M-318.49,42.03l-120.19-120.19m989.58-32.1c33.63,36.28,91.69,34.97,126.67,0,34.98-34.98,36.03-92.77,0-126.66-54.05-50.87-106.78-7.07-155.49-29.86,21.9,52.28-15.19,109.03,28.82,156.53Zm-28.82-156.53l-120.19-120.19M826.58,39.8c33.63,36.28,91.69,34.97,126.67,0,34.98-34.98,36.03-92.77,0-126.66-54.05-50.87-106.78-7.07-155.49-29.86,21.9,52.28-15.19,109.03,28.82,156.53Zm-28.82-156.53l-120.19-120.19m457.49,604.84c71.88,77.55,196,74.76,270.77-.01,74.77-74.77,77.01-198.31,0-270.76-115.54-108.73-228.26-15.11-332.38-63.83,46.81,111.76-32.48,233.07,61.61,334.6Zm49.86-49.86c-37.18-37.18-45.09-92.53-23.75-137.45l161.19,161.19c-44.92,21.35-100.28,13.43-137.44-23.74Zm171.05-171.05c36.33,36.33,44.71,90.05,25.14,134.41l-159.55-159.55c44.35-19.58,98.06-11.21,134.41,25.15Zm-282.53-52.63l-120.19-120.19m120.19,293.96l-120.19-120.19M-569.89,900.22c33.63,36.28,91.69,34.97,126.67,0,34.98-34.98,36.03-92.77,0-126.66-54.05-50.87-106.78-7.07-155.49-29.86,21.9,52.28-15.19,109.03,28.82,156.53Zm23.33-23.33c-17.39-17.39-21.09-43.28-11.11-64.3l75.41,75.41c-21.01,9.99-46.91,6.28-64.3-11.1Zm80.02-80.02c17,17,20.92,42.13,11.76,62.88l-74.64-74.64c20.75-9.16,45.87-5.24,62.88,11.76Zm-132.17-53.18l-120.19-120.19m424.7,426.77c33.63,36.28,91.69,34.97,126.67,0,34.98-34.98,36.03-92.77,0-126.66-54.05-50.87-106.78-7.07-155.49-29.86,21.9,52.28-15.19,109.03,28.82,156.53Zm-28.82-156.53l-120.19-120.19M-18.52,1200.33c33.63,36.28,91.69,34.97,126.67,0,34.98-34.98,36.03-92.77,0-126.66-54.05-50.87-106.78-7.07-155.49-29.86,21.9,52.28-15.19,109.03,28.82,156.53Zm23.33-23.33c-17.39-17.39-21.09-43.29-11.11-64.31l75.41,75.41c-21.01,9.99-46.91,6.28-64.3-11.1Zm80.02-80.02c17,17,20.92,42.13,11.76,62.88l-74.64-74.64c20.75-9.16,45.87-5.24,62.88,11.76Zm-132.17-53.18l-120.19-120.19M7.64-319.98c53.46,57.67,145.75,55.59,201.36,0,55.6-55.6,57.27-147.47,0-201.35-85.92-80.86-169.74-11.24-247.17-47.47C-3.37-485.69-62.33-395.48,7.64-319.98ZM422.04-115.8c-101.43-3.85-183.78,82.3-183.78,183.8s82.33,186.88,183.78,183.78c152.23-4.62,165.19-144.68,268.93-182.29-107.63-44.09-136.16-180.24-268.93-185.29Zm0,67.69c50.48,0,93.41,32.2,109.42,77.18h-218.82c16-44.98,58.95-77.18,109.4-77.18Zm0,232.21c-49.32,0-91.47-30.77-108.3-74.17h216.6c-16.81,43.39-58.95,74.17-108.3,74.17ZM21.88,686.5c48.32,52.13,131.75,50.25,182.01,0,50.26-50.26,51.77-133.3,0-182-77.67-73.09-153.43-10.16-223.42-42.9,31.46,75.12-21.83,156.66,41.41,224.91ZM-503.9-962.75c-53.46-57.67-145.75-55.59-201.36.01-55.6,55.6-57.27,147.47,0,201.35,85.92,80.86,169.74,11.24,247.17,47.46-34.81-83.11,24.15-173.32-45.81-248.82Zm-37.08,37.08c27.65,27.65,33.53,68.81,17.66,102.22l-119.87-119.87c33.41-15.88,74.57-9.99,102.21,17.65Zm-127.2,127.2c-27.02-27.02-33.25-66.96-18.7-99.95l118.65,118.65c-32.98,14.56-72.92,8.33-99.95-18.7ZM-503.9,62.2c-53.46-57.67-145.75-55.59-201.36.01-55.6,55.6-57.27,147.47,0,201.35,85.92,80.86,169.74,11.24,247.17,47.46-34.81-83.11,24.15-173.32-45.81-248.82Zm-37.08,37.08c27.65,27.65,33.53,68.81,17.66,102.22l-119.87-119.87c33.41-15.88,74.57-9.99,102.21,17.65Zm-127.2,127.2c-27.02-27.02-33.25-66.96-18.7-99.95l118.65,118.65c-32.98,14.56-72.92,8.33-99.95-18.7ZM473.16-949.63c4.3-113.32-91.94-205.33-205.35-205.33s-208.79,91.98-205.33,205.33c5.17,170.08,161.64,184.56,203.66,300.46,49.26-120.25,201.37-152.12,207.02-300.46Zm-75.62,0c0,56.39-35.97,104.36-86.23,122.25v-244.48c50.26,17.88,86.23,65.86,86.23,122.23Zm-259.44,0c0-55.11,34.38-102.19,82.86-120.99v241.99c-48.48-18.78-82.86-65.87-82.86-121ZM-640.64,214.43c-101.53,94.11-97.87,256.59.02,354.48,97.89,97.89,259.62,100.82,354.46,0,142.34-151.26,19.78-298.83,83.56-435.14-146.32,61.28-305.12-42.51-438.04,80.66Zm65.28,65.28c48.68-48.68,121.13-59.03,179.95-31.09l-211.02,211.02c-27.95-58.81-17.58-131.28,31.07-179.93Zm223.94,223.94c-47.57,47.57-117.89,58.53-175.96,32.91l208.88-208.88c25.64,58.06,14.67,128.38-32.92,175.97Z"/>
      <path class="cls-3" d="m666.92,661.47c-57.76,57.76-143.73,70.04-213.52,36.89l250.39-250.39c33.16,69.78,20.86,155.76-36.87,213.49"/>
      <path class="cls-6" d="m666.92,661.47c-57.76,57.76-143.73,70.04-213.52,36.89l250.39-250.39c33.16,69.78,20.86,155.76-36.87,213.49Z"/>
      <path class="cls-3" d="m419.12,307.36c56.44-56.44,139.88-69.45,208.78-39.05l-247.84,247.84c-30.42-68.89-17.41-152.32,39.06-208.79"/>
      <path class="cls-6" d="m419.12,307.36c56.44-56.44,139.88-69.45,208.78-39.05l-247.84,247.84c-30.42-68.89-17.41-152.32,39.06-208.79Z"/>
      <path class="cls-3" d="m1529.67,590.93c2.73-71.95-58.37-130.36-130.37-130.36s-132.55,58.4-130.36,130.36c3.28,107.98,102.62,117.17,129.3,190.76,31.27-76.34,127.85-96.58,131.43-190.76"/>
      <path class="cls-5" d="m1529.67,590.93c2.73-71.95-58.37-130.36-130.37-130.36s-132.55,58.4-130.36,130.36c3.28,107.98,102.62,117.17,129.3,190.76,31.27-76.34,127.85-96.58,131.43-190.76Z"/>
      <path class="cls-5" d="m660.24,588.62c33.63,36.28,91.69,34.97,126.67,0,34.98-34.98,36.03-92.77,0-126.66-54.05-50.87-106.78-7.07-155.49-29.86,21.9,52.28-15.19,109.03,28.82,156.53Z"/>
      <line class="cls-3" x1="631.42" y1="432.09" x2="583.16" y2="383.84"/>
      <line class="cls-5" x1="631.42" y1="432.09" x2="583.16" y2="383.84"/>
      <line class="cls-3" x1="907.1" y1="582.14" x2="786.91" y2="461.95"/>
      <line class="cls-5" x1="907.1" y1="582.14" x2="786.91" y2="461.95"/>
      <path class="cls-3" d="m782.52,214.06c0-142.66,91-264.01,218.13-309.26v618.46c-127.13-45.22-218.13-166.6-218.13-309.2"/>
      <path class="cls-4" d="m782.52,214.06c0-142.66,91-264.01,218.13-309.26v618.46c-127.13-45.22-218.13-166.6-218.13-309.2Z"/>
    </g>
  </g>
</svg>