<?xml version="1.0" encoding="UTF-8"?><svg id="_レイヤー_2" xmlns="http://www.w3.org/2000/svg" xmlns:xlink="http://www.w3.org/1999/xlink" viewBox="0 0 750 2160"><defs><style>.cls-1{fill:none;}.cls-2{clip-path:url(#clippath);}.cls-3,.cls-4,.cls-5{stroke-width:1px;}.cls-3,.cls-4,.cls-5,.cls-6{fill:#fff;stroke-miterlimit:10;}.cls-3,.cls-6{stroke:#c3d94e;}.cls-4{stroke:#cae7ea;}.cls-5{stroke:#a2d7dd;}.cls-6{stroke-width:.84px;}</style><clipPath id="clippath"><rect class="cls-1" width="750" height="2160"/></clipPath></defs><g id="_レイヤー_3"><g class="cls-2"><g><line class="cls-4" x1="3160.88" y1="1791.59" x2="-341.11" y2="-1710.4"/><path class="cls-5" d="M268.69,1330.01c0,93.25-59.48,172.56-142.58,202.14v-404.24c83.1,29.56,142.58,108.9,142.58,202.1Z"/><path class="cls-5" d="M-103.85,1330.05c0-93.25,59.48-172.56,142.58-202.14v404.24c-83.1-29.56-142.58-108.9-142.58-202.1Z"/><path class="cls-5" d="M247.81,817.69c-201.98,0-374.54-126.01-443.45-303.7H691.29c-68.83,177.69-241.41,303.7-443.48,303.7Z"/><path class="cls-5" d="M-259.29-59.83C-116.52-59.83,5.46,29.24,54.17,154.84H-572.77C-524.11,29.24-402.13-59.83-259.29-59.83Z"/><path class="cls-3" d="M-393.88-762.12c-46.81,43.39-45.12,118.3,0,163.43,45.13,45.13,119.69,46.48,163.42,0,65.63-69.74,9.12-137.77,38.52-200.61-67.46,28.25-140.67-19.6-201.95,37.19Zm201.95-37.19L-36.86-954.38M-587.47-406.44c-46.81,43.39-45.12,118.3,0,163.43,45.13,45.13,119.69,46.48,163.42,0,65.63-69.74,9.12-137.77,38.52-200.61-67.46,28.25-140.67-19.6-201.95,37.19Zm201.95-37.19l155.07-155.07m-397.63,1703.37c-46.81,43.39-45.12,118.3,0,163.43,45.13,45.13,119.69,46.48,163.42,0,65.63-69.74,9.12-137.77,38.52-200.61-67.46,28.25-140.67-19.6-201.95,37.19ZM-781.06-50.76c-46.81,43.39-45.12,118.3,0,163.43,45.13,45.13,119.69,46.48,163.42,0,65.63-69.74,9.12-137.77,38.52-200.61-67.46,28.25-140.67-19.6-201.95,37.19Zm30.09,30.09c22.44-22.44,55.85-27.22,82.96-14.33l-97.29,97.29c-12.89-27.11-8.11-60.52,14.33-82.95Zm103.24,103.24c-21.93,21.93-54.35,26.98-81.12,15.17L-632.55,1.45c11.82,26.77,6.76,59.19-15.18,81.13Zm68.61-170.52l155.07-155.07m-1011.98,2460.05l155.07-155.07M-150.49-127.8c-46.81,43.39-45.12,118.3,0,163.43,45.13,45.13,119.69,46.48,163.42,0C78.57-34.11,22.06-102.14,51.46-164.99c-67.46,28.25-140.67-19.6-201.95,37.19Zm30.09,30.09c22.44-22.44,55.85-27.22,82.96-14.33L-134.72-14.75c-12.89-27.11-8.11-60.52,14.33-82.95ZM-17.15,5.53c-21.93,21.93-54.35,26.98-81.12,15.17L-1.97-75.59C9.85-48.83,4.79-16.41-17.15,5.53ZM51.46-164.99l145.11-145.11M-344.08,227.88c-46.81,43.39-45.12,118.3,0,163.43,45.13,45.13,119.69,46.48,163.42,0,65.63-69.74,9.12-137.77,38.52-200.61-67.46,28.25-140.67-19.6-201.95,37.19Zm201.95-37.19L12.94,35.63M-537.67,583.56c-46.81,43.39-45.12,118.3,0,163.43,45.13,45.13,119.69,46.48,163.42,0,65.63-69.74,9.12-137.77,38.52-200.61-67.46,28.25-140.67-19.6-201.95,37.19Zm30.09,30.09c22.44-22.44,55.85-27.22,82.96-14.33l-97.29,97.29c-12.89-27.11-8.11-60.52,14.33-82.95Zm103.24,103.24c-21.93,21.93-54.35,26.98-81.12,15.17l96.3-96.3c11.82,26.77,6.76,59.19-15.18,81.13Zm68.61-170.52l155.07-155.07M2825.31,1913.96c-43.39-46.81-118.3-45.12-163.43,0-45.13,45.13-46.48,119.69,0,163.42,69.74,65.63,137.77,9.12,200.61,38.52-28.25-67.46,19.6-140.67-37.19-201.95Zm37.19,201.95l155.07,155.07M-100.69,862.2c-46.81,43.39-45.12,118.3,0,163.43,45.13,45.13,119.69,46.48,163.42,0,65.63-69.74,9.12-137.77,38.52-200.61-67.46,28.25-140.67-19.6-201.95,37.19Zm201.95-37.19l155.07-155.07M-294.28,1217.88c-46.81,43.39-45.12,118.3,0,163.43,45.13,45.13,119.69,46.48,163.42,0,65.63-69.74,9.12-137.77,38.52-200.61-67.46,28.25-140.67-19.6-201.95,37.19Zm30.09,30.09c22.44-22.44,55.85-27.22,82.96-14.33l-97.29,97.29c-12.89-27.11-8.11-60.52,14.33-82.95Zm103.24,103.24c-21.93,21.93-54.35,26.98-81.12,15.17l96.3-96.3c11.82,26.77,6.76,59.19-15.18,81.13Zm68.61-170.52l155.07-155.07m273.56,115.21c-46.81,43.39-45.12,118.3,0,163.43,45.13,45.13,119.69,46.48,163.42,0,65.63-69.74,9.12-137.77,38.52-200.61-67.46,28.25-140.67-19.6-201.95,37.19Zm201.95-37.19l155.07-155.07M142.7,1496.52c-46.81,43.39-45.12,118.3,0,163.43,45.13,45.13,119.69,46.48,163.42,0,65.63-69.74,9.12-137.77,38.52-200.61-67.46,28.25-140.67-19.6-201.95,37.19Zm201.95-37.19l155.07-155.07M-50.89,1852.2c-46.81,43.39-45.12,118.3,0,163.43,45.13,45.13,119.69,46.48,163.42,0,65.63-69.74,9.12-137.77,38.52-200.61-67.46,28.25-140.67-19.6-201.95,37.19Zm30.09,30.09c22.44-22.44,55.85-27.22,82.96-14.33l-97.29,97.29c-12.89-27.11-8.11-60.52,14.33-82.95Zm103.24,103.24c-21.93,21.93-54.35,26.98-81.12,15.17l96.3-96.3c11.82,26.77,6.76,59.19-15.18,81.13Zm68.61-170.52l155.07-155.07M-1407.01,58.17c43.39,46.81,118.3,45.12,163.43,0,45.13-45.13,46.48-119.69,0-163.42-69.74-65.63-137.77-9.12-200.61-38.52,28.25,67.46-19.6,140.67,37.19,201.95Zm30.09-30.09c-22.44-22.44-27.22-55.85-14.33-82.96l97.29,97.29c-27.11,12.89-60.52,8.11-82.95-14.33Zm103.24-103.24c21.93,21.93,26.98,54.35,15.17,81.12l-96.3-96.3c26.77-11.82,59.19-6.76,81.13,15.18Zm-170.52-68.61l-818.37-818.37M-1051.33,251.77c43.39,46.81,118.3,45.12,163.43,0,45.13-45.13,46.48-119.69,0-163.42-69.74-65.63-137.77-9.12-200.61-38.52,28.25,67.46-19.6,140.67,37.19,201.95Zm-37.19-201.95l-155.07-155.07M-732.83,243.41l-155.07-155.07m1950.9,222.59l-124.35-124.35M388.82,46.93c43.39,46.81,118.3,45.12,163.43,0,45.13-45.13,46.48-119.69,0-163.42-69.74-65.63-137.77-9.12-200.61-38.52,28.25,67.46-19.6,140.67,37.19,201.95Zm-37.19-201.95l-155.07-155.07M744.5,240.52c43.39,46.81,118.3,45.12,163.43,0,45.13-45.13,46.48-119.69,0-163.42-69.74-65.63-137.77-9.12-200.61-38.52,28.25,67.46-19.6,140.67,37.19,201.95Zm-37.19-201.95l-155.07-155.07m590.24,780.35c92.74,100.06,252.87,96.45,349.34-.02,96.47-96.47,99.36-255.85,0-349.32-149.07-140.28-294.49-19.5-428.83-82.35,60.39,144.19-41.9,300.7,79.49,431.69Zm64.33-64.33c-47.97-47.97-58.18-119.38-30.64-177.34l207.96,207.96c-57.96,27.54-129.37,17.33-177.32-30.62Zm220.69-220.69c46.88,46.88,57.68,116.18,32.44,173.41l-205.85-205.85c57.22-25.26,126.52-14.46,173.42,32.44Zm-364.51,156.28l-155.07-155.07m-1965.12,970.57c43.39,46.81,118.3,45.12,163.43,0,45.13-45.13,46.48-119.69,0-163.42-69.74-65.63-137.77-9.12-200.61-38.52,28.25,67.46-19.6,140.67,37.19,201.95Zm30.09-30.09c-22.44-22.44-27.22-55.85-14.33-82.96l97.29,97.29c-27.11,12.89-60.52,8.11-82.95-14.33Zm103.24-103.24c21.93,21.93,26.98,54.35,15.17,81.12l-96.3-96.3c26.77-11.82,59.19-6.76,81.13,15.18Zm-170.52-68.61l-155.07-155.07m547.93,550.61c43.39,46.81,118.3,45.12,163.43,0,45.13-45.13,46.48-119.69,0-163.42-69.74-65.63-137.77-9.12-200.61-38.52,28.25,67.46-19.6,140.67,37.19,201.95Zm-37.19-201.95l-155.07-155.07M-345.83,1737.8c43.39,46.81,118.3,45.12,163.43,0,45.13-45.13,46.48-119.69,0-163.42-69.74-65.63-137.77-9.12-200.61-38.52,28.25,67.46-19.6,140.67,37.19,201.95Zm30.09-30.09c-22.44-22.44-27.22-55.85-14.33-82.96l97.29,97.29c-27.11,12.89-60.52,8.11-82.95-14.33Zm103.24-103.24c21.93,21.93,26.98,54.35,15.17,81.12l-96.3-96.3c26.77-11.82,59.19-6.76,81.13,15.18Zm-170.52-68.61l-155.07-155.07M-312.08-223.65c68.97,74.41,188.05,71.72,259.79-.01,71.74-71.74,73.89-190.26,0-259.77-110.85-104.32-219-14.5-318.9-61.24,44.91,107.23-31.16,223.61,59.11,321.02ZM222.57,39.77C91.71,34.81-14.54,145.95-14.54,276.91s106.22,241.11,237.11,237.11c196.4-5.96,213.13-186.66,346.97-235.18C430.68,221.95,393.88,46.29,222.57,39.77Zm0,87.33c65.12,0,120.52,41.54,141.17,99.58H81.43c20.64-58.03,76.05-99.58,141.15-99.58Zm0,299.59c-63.64,0-118.01-39.7-139.72-95.69H362.3c-21.69,55.99-76.06,95.69-139.73,95.69ZM-293.71,1074.87c62.34,67.26,169.98,64.83,234.82-.01,64.84-64.84,66.79-171.98,0-234.81-100.2-94.29-197.95-13.1-288.25-55.35,40.59,96.92-28.16,202.12,53.43,290.17ZM-972.05-1052.93c-68.97-74.41-188.05-71.72-259.79,.01-71.74,71.74-73.89,190.26,0,259.77,110.85,104.32,219,14.5,318.9,61.24-44.91-107.23,31.16-223.61-59.11-321.02Zm-47.84,47.84c35.67,35.67,43.26,88.77,22.79,131.88l-154.65-154.65c43.1-20.48,96.21-12.89,131.87,22.77Zm-164.11,164.11c-34.86-34.86-42.89-86.39-24.12-128.96l153.08,153.08c-42.55,18.79-94.08,10.75-128.96-24.12ZM-972.05,269.42c-68.97-74.41-188.05-71.72-259.79,.01-71.74,71.74-73.89,190.26,0,259.77,110.85,104.32,219,14.5,318.9,61.24-44.91-107.23,31.16-223.61-59.11-321.02Zm-47.84,47.84c35.67,35.67,43.26,88.77,22.79,131.88l-154.65-154.65c43.1-20.48,96.21-12.89,131.87,22.77Zm-164.11,164.11c-34.86-34.86-42.89-86.39-24.12-128.96l153.08,153.08c-42.55,18.79-94.08,10.75-128.96-24.12ZM288.52-1036.01c5.55-146.21-118.62-264.91-264.93-264.91s-269.37,118.67-264.91,264.91c6.66,219.43,208.54,238.11,262.75,387.65,63.55-155.15,259.81-196.26,267.09-387.65Zm-97.57,0c0,72.76-46.41,134.64-111.25,157.72v-315.42c64.84,23.06,111.25,84.97,111.25,157.69Zm-334.72,0c0-71.1,44.36-131.84,106.91-156.1v312.21c-62.55-24.23-106.91-84.98-106.91-156.11ZM-1148.47,465.82c-130.99,121.41-126.27,331.05,.02,457.34,126.29,126.29,334.95,130.08,457.32,0,183.65-195.15,25.52-385.54,107.81-561.41-188.77,79.06-393.66-54.85-565.15,104.06Zm84.22,84.22c62.8-62.8,156.28-76.16,232.17-40.11l-272.26,272.26c-36.06-75.88-22.68-169.37,40.09-232.14Zm288.92,288.92c-61.37,61.37-152.09,75.52-227.02,42.46l269.49-269.49c33.08,74.9,18.93,165.63-42.47,227.03Z"/><line class="cls-4" x1="-42.53" y1="2170.69" x2="112.54" y2="2015.63"/><path class="cls-5" d="M538.5,1042.59c-74.52,74.52-185.43,90.37-275.47,47.6l323.04-323.04c42.78,90.03,26.92,200.96-47.57,275.44Z"/><path class="cls-5" d="M218.81,585.73c72.82-72.82,180.46-89.6,269.37-50.38L168.41,855.1c-39.25-88.88-22.46-196.52,50.39-269.38Z"/><path class="cls-4" d="M841.42,1982.36c-165.86-178.94-452.23-172.49-624.75,.03-172.52,172.52-177.69,457.56,0,624.72,266.59,250.87,526.67,34.87,766.91,147.27-108-257.87,74.93-537.76-142.15-772.03Z"/><path class="cls-4" d="M726.37,2097.41c85.79,85.79,104.04,213.49,54.8,317.15l-371.92-371.92c103.65-49.26,231.37-30.99,317.12,54.76Z"/><g><path class="cls-6" d="M533.39,948.12c42.86,46.24,116.86,44.57,161.44,0,44.58-44.58,45.92-118.23,0-161.43-68.89-64.83-136.09-9.01-198.17-38.05,27.91,66.64-19.36,138.96,36.73,199.49Z"/><line class="cls-4" x1="848.38" y1="940.23" x2="693.31" y2="785.16"/></g><line class="cls-4" x1="842.52" y1="2039.08" x2="687.45" y2="1884.02"/><path class="cls-5" d="M964.85,1159.84c-68.97-74.41-188.05-71.72-259.79,.01-71.74,71.74-73.89,190.26,0,259.77,110.85,104.32,219,14.5,318.9,61.24-44.91-107.23,31.16-223.61-59.11-321.02Z"/><path class="cls-5" d="M752.9,1371.79c-34.86-34.86-42.89-86.39-24.12-128.96l153.08,153.08c-42.55,18.79-94.08,10.75-128.96-24.12Z"/><path class="cls-3" d="M788.43,1356.24c-130.99,121.41-126.27,331.05,.02,457.34,126.29,126.29,334.95,130.08,457.32,0,183.65-195.15,25.52-385.54,107.81-561.41-188.77,79.06-393.66-54.85-565.15,104.06Z"/><path class="cls-4" d="M521.43,1970.02c-114.51,0-211.91-73.04-248.24-175.09h496.43c-36.3,102.05-133.73,175.09-248.19,175.09Z"/><path class="cls-5" d="M521.43,1431.48c111.9,0,207.51,69.82,245.68,168.26H275.73c38.13-98.44,133.75-168.26,245.7-168.26Z"/><path class="cls-6" d="M675.96,408.74c0-153.62,97.99-284.3,234.9-333.03V741.7c-136.91-48.7-234.9-179.41-234.9-332.97Z"/><path class="cls-4" d="M974.99-202.26c143.53,0,266.16,89.55,315.13,215.82H659.84c48.91-126.27,171.55-215.82,315.15-215.82Z"/></g></g></g></svg>