<?xml version="1.0" encoding="UTF-8"?>
<svg id="_レイヤー_2" data-name="レイヤー 2" xmlns="http://www.w3.org/2000/svg" xmlns:xlink="http://www.w3.org/1999/xlink" viewBox="0 0 750 1075">
  <defs>
    <style>
      .cls-1 {
        clip-path: url(#clippath);
      }

      .cls-2, .cls-3 {
        stroke-width: 0px;
      }

      .cls-2, .cls-4, .cls-5, .cls-6 {
        fill: none;
      }

      .cls-3 {
        fill: #fff;
      }

      .cls-4 {
        stroke: #c2d84e;
      }

      .cls-4, .cls-5, .cls-6 {
        stroke-miterlimit: 10;
        stroke-width: 1px;
      }

      .cls-5 {
        stroke: #cae7ea;
      }

      .cls-6 {
        stroke: #a1d6dc;
      }
    </style>
    <clipPath id="clippath">
      <rect class="cls-2" width="750" height="1075"/>
    </clipPath>
  </defs>
  <g id="_レイヤー_3" data-name="レイヤー 3">
    <g class="cls-1">
      <line class="cls-3" x1="2434.5" y1="1302.02" x2="-279.86" y2="-1412.34"/>
      <line class="cls-5" x1="2434.5" y1="1302.02" x2="-279.86" y2="-1412.34"/>
      <path class="cls-3" d="m192.79,944.25c0,72.27-46.1,133.75-110.51,156.68v-313.32c64.41,22.91,110.51,84.41,110.51,156.65"/>
      <path class="cls-6" d="m192.79,944.25c0,72.27-46.1,133.75-110.51,156.68v-313.32c64.41,22.91,110.51,84.41,110.51,156.65Z"/>
      <path class="cls-3" d="m-95.97,944.28c0-72.27,46.1-133.75,110.51-156.68v313.32c-64.41-22.91-110.51-84.41-110.51-156.65"/>
      <path class="cls-6" d="m-95.97,944.28c0-72.27,46.1-133.75,110.51-156.68v313.32c-64.41-22.91-110.51-84.41-110.51-156.65Z"/>
      <path class="cls-3" d="m176.6,547.16c-156.55,0-290.3-97.67-343.72-235.4h687.45c-53.35,137.72-187.11,235.4-343.74,235.4"/>
      <path class="cls-6" d="m176.6,547.16c-156.55,0-290.3-97.67-343.72-235.4h687.45c-53.35,137.72-187.11,235.4-343.74,235.4Z"/>
      <path class="cls-3" d="m-212.07-139.13C-101.41-139.13-6.87-70.09,30.89,27.26h-485.93c37.71-97.35,132.26-166.39,242.97-166.39"/>
      <path class="cls-6" d="m-212.07-139.13C-101.41-139.13-6.87-70.09,30.89,27.26h-485.93c37.71-97.35,132.26-166.39,242.97-166.39Z"/>
      <path class="cls-3" d="m-320.76-677.34c-36.28,33.63-34.97,91.69,0,126.67,34.98,34.98,92.77,36.03,126.66,0,50.87-54.05,7.07-106.78,29.86-155.49-52.28,21.9-109.03-15.19-156.53,28.82m156.53-28.82l120.19-120.19m-426.77,424.7c-36.28,33.63-34.97,91.69,0,126.67,34.98,34.98,92.77,36.03,126.66,0,50.87-54.05,7.07-106.78,29.86-155.49-52.28,21.9-109.03-15.19-156.53,28.82m156.53-28.82l120.19-120.19M-502.29,769.6c-36.28,33.63-34.97,91.69,0,126.67,34.98,34.98,92.77,36.03,126.66,0,50.87-54.05,7.07-106.78,29.86-155.49-52.28,21.9-109.03-15.19-156.53,28.82m-118.57-895.57c-36.28,33.63-34.97,91.69,0,126.67,34.98,34.98,92.77,36.03,126.66,0,50.87-54.05,7.07-106.78,29.86-155.49-52.28,21.9-109.03-15.19-156.53,28.82m23.33,23.33c17.39-17.39,43.28-21.09,64.3-11.11l-75.41,75.41c-9.99-21.01-6.28-46.91,11.1-64.3m80.02,80.02c-17,17-42.13,20.92-62.88,11.76l74.64-74.64c9.16,20.75,5.24,45.87-11.76,62.88m53.18-132.17l120.19-120.19m-784.37,1906.76l120.19-120.19M-132.11-185.69c-36.28,33.63-34.97,91.69,0,126.67,34.98,34.98,92.77,36.03,126.66,0,50.87-54.05,7.07-106.78,29.86-155.49-52.28,21.9-109.03-15.19-156.53,28.82m23.33,23.33c17.39-17.39,43.28-21.09,64.3-11.11l-75.41,75.41c-9.99-21.01-6.28-46.91,11.1-64.3M-28.77-82.34c-17,17-42.13,20.92-62.88,11.76L-17-145.22c9.16,20.75,5.24,45.87-11.76,62.88M24.42-214.51l112.47-112.47M-282.16,90c-36.28,33.63-34.97,91.69,0,126.67,34.98,34.98,92.77,36.03,126.66,0,50.87-54.05,7.07-106.78,29.86-155.49-52.28,21.9-109.03-15.19-156.53,28.82m156.53-28.82L-5.44-59.01m-426.77,424.7c-36.28,33.63-34.97,91.69,0,126.67,34.98,34.98,92.77,36.03,126.66,0,50.87-54.05,7.07-106.78,29.86-155.49-52.28,21.9-109.03-15.19-156.53,28.82m23.33,23.33c17.39-17.39,43.28-21.09,64.3-11.11l-75.41,75.41c-9.99-21.01-6.28-46.91,11.1-64.3m80.02,80.02c-17,17-42.13,20.91-62.88,11.76l74.64-74.64c9.16,20.75,5.24,45.87-11.76,62.88m53.18-132.17l120.19-120.19m2329.89,1180.2c-33.63-36.28-91.69-34.97-126.67,0-34.98,34.98-36.03,92.77,0,126.66,54.05,50.87,106.78,7.07,155.49,29.86-21.9-52.28,15.19-109.03-28.82-156.53m28.82,156.53l120.19,120.19M-93.52,581.65c-36.28,33.63-34.97,91.69,0,126.67,34.98,34.98,92.77,36.03,126.66,0,50.87-54.05,7.07-106.78,29.86-155.49-52.28,21.9-109.03-15.19-156.53,28.82m156.53-28.82l120.19-120.19m-426.77,424.7c-36.28,33.63-34.97,91.69,0,126.67,34.98,34.98,92.77,36.03,126.66,0,50.87-54.05,7.07-106.78,29.86-155.49-52.28,21.9-109.03-15.19-156.53,28.82m23.33,23.33c17.39-17.39,43.28-21.09,64.3-11.11l-75.41,75.41c-9.99-21.01-6.28-46.91,11.1-64.3m80.02,80.02c-17,17-42.13,20.92-62.88,11.76l74.64-74.64c9.16,20.75,5.24,45.87-11.76,62.88m53.18-132.17l120.19-120.19m212.03,89.3c-36.28,33.63-34.97,91.69,0,126.67,34.98,34.98,92.77,36.03,126.66,0,50.87-54.05,7.07-106.78,29.86-155.49-52.28,21.9-109.03-15.19-156.53,28.82m156.53-28.82l120.19-120.19m-426.77,424.7c-36.28,33.63-34.97,91.69,0,126.67,34.98,34.98,92.77,36.03,126.66,0,50.87-54.05,7.07-106.78,29.86-155.49-52.28,21.9-109.03-15.19-156.53,28.82m156.53-28.82l120.19-120.19M-54.92,1348.99c-36.28,33.63-34.97,91.69,0,126.67,34.98,34.98,92.77,36.03,126.66,0,50.87-54.05,7.07-106.78,29.86-155.49-52.28,21.9-109.03-15.19-156.53,28.82m23.33,23.33c17.39-17.39,43.28-21.09,64.3-11.11l-75.41,75.41c-9.99-21.01-6.28-46.91,11.1-64.3m80.02,80.02c-17,17-42.13,20.92-62.88,11.76l74.64-74.64c9.16,20.74,5.24,45.87-11.76,62.88m53.18-132.17l120.19-120.19M-1106.03-41.54c33.63,36.28,91.69,34.97,126.67,0,34.98-34.98,36.03-92.77,0-126.66-54.05-50.87-106.78-7.07-155.49-29.86,21.9,52.28-15.19,109.03,28.82,156.53m23.33-23.33c-17.39-17.39-21.09-43.29-11.11-64.31l75.41,75.41c-21.02,9.99-46.91,6.28-64.3-11.1m80.02-80.02c17,17,20.92,42.13,11.76,62.88l-74.64-74.64c20.75-9.16,45.87-5.24,62.88,11.76m-132.17-53.18l-634.31-634.31M-830.35,108.51c33.63,36.28,91.69,34.97,126.67,0,34.98-34.98,36.03-92.77,0-126.66-54.05-50.87-106.78-7.07-155.49-29.86,21.9,52.28-15.19,109.03,28.82,156.53m-28.82-156.53l-120.19-120.19M-583.49,102.03l-120.19-120.19M285.9-50.25c33.63,36.28,91.69,34.97,126.67,0,34.98-34.98,36.03-92.77,0-126.66-54.05-50.87-106.78-7.07-155.49-29.86,21.9,52.28-15.19,109.03,28.82,156.53m-28.82-156.53l-120.19-120.19M561.58,99.8c33.63,36.28,91.69,34.97,126.67,0,34.98-34.98,36.03-92.77,0-126.66-54.05-50.87-106.78-7.07-155.49-29.86,21.9,52.28-15.19,109.03,28.82,156.53m-28.82-156.53l-120.19-120.19m457.49,604.84c71.88,77.55,196,74.76,270.77-.01,74.77-74.77,77.01-198.31,0-270.76-115.54-108.73-228.26-15.11-332.38-63.83,46.81,111.76-32.48,233.07,61.61,334.6m49.86-49.86c-37.18-37.18-45.09-92.53-23.75-137.45l161.19,161.19c-44.92,21.35-100.28,13.43-137.44-23.74m171.05-171.05c36.33,36.33,44.71,90.05,25.14,134.41l-159.55-159.55c44.35-19.58,98.06-11.21,134.41,25.15m-282.53-52.63l-120.19-120.19m120.19,293.96l-120.19-120.19M-834.89,960.22c33.63,36.28,91.69,34.97,126.67,0,34.98-34.98,36.03-92.77,0-126.66-54.05-50.87-106.78-7.07-155.49-29.86,21.9,52.28-15.19,109.03,28.82,156.53m23.33-23.33c-17.39-17.39-21.09-43.28-11.11-64.3l75.41,75.41c-21.01,9.99-46.91,6.28-64.3-11.1m80.02-80.02c17,17,20.92,42.13,11.76,62.88l-74.64-74.64c20.75-9.16,45.87-5.24,62.88,11.76m-132.17-53.18l-120.19-120.19m424.7,426.77c33.63,36.28,91.69,34.97,126.67,0,34.98-34.98,36.03-92.77,0-126.66-54.05-50.87-106.78-7.07-155.49-29.86,21.9,52.28-15.19,109.03,28.82,156.53m-28.82-156.53l-120.19-120.19m424.7,426.77c33.63,36.28,91.69,34.97,126.67,0,34.98-34.98,36.03-92.77,0-126.66-54.05-50.87-106.78-7.07-155.49-29.86,21.9,52.28-15.19,109.03,28.82,156.53m23.33-23.33c-17.39-17.39-21.09-43.29-11.11-64.31l75.41,75.41c-21.01,9.99-46.91,6.28-64.3-11.1m80.02-80.02c17,17,20.92,42.13,11.76,62.88l-74.64-74.64c20.75-9.16,45.87-5.24,62.88,11.76m-132.17-53.18l-120.19-120.19M-257.36-259.98c53.46,57.67,145.75,55.59,201.36,0C-.4-315.59,1.26-407.46-56.01-461.33c-85.92-80.86-169.74-11.24-247.17-47.47,34.81,83.11-24.15,173.32,45.81,248.82M157.04-55.8C55.61-59.65-26.74,26.5-26.74,128s82.33,186.88,183.78,183.78c152.23-4.62,165.19-144.68,268.93-182.29C318.34,85.41,289.82-50.75,157.04-55.8m0,67.69c50.48,0,93.41,32.2,109.42,77.18H47.64C63.64,44.09,106.59,11.89,157.04,11.89m0,232.21c-49.32,0-91.47-30.77-108.3-74.17h216.6c-16.81,43.39-58.95,74.17-108.3,74.17m-400.17,502.39c48.32,52.13,131.75,50.25,182.01,0,50.26-50.26,51.77-133.3,0-182-77.67-73.09-153.43-10.16-223.42-42.9,31.46,75.12-21.83,156.66,41.41,224.91M-768.9-902.75c-53.46-57.67-145.75-55.59-201.36.01-55.6,55.6-57.27,147.47,0,201.35,85.92,80.86,169.74,11.24,247.17,47.46-34.81-83.11,24.15-173.32-45.81-248.82m-37.08,37.08c27.65,27.65,33.53,68.81,17.66,102.22l-119.87-119.87c33.41-15.88,74.57-9.99,102.21,17.65m-127.2,127.2c-27.02-27.02-33.25-66.96-18.7-99.95l118.65,118.65c-32.98,14.56-72.92,8.33-99.95-18.7M-768.9,122.2c-53.46-57.67-145.75-55.59-201.36.01-55.6,55.6-57.27,147.47,0,201.35,85.92,80.86,169.74,11.24,247.17,47.46-34.81-83.11,24.15-173.32-45.81-248.82m-37.08,37.08c27.65,27.65,33.53,68.81,17.66,102.22l-119.87-119.87c33.41-15.88,74.57-9.99,102.21,17.65m-127.2,127.2c-27.02-27.02-33.25-66.96-18.7-99.95l118.65,118.65c-32.98,14.56-72.92,8.33-99.95-18.7M208.16-889.63c4.3-113.32-91.94-205.33-205.35-205.33s-208.79,91.98-205.33,205.33c5.17,170.08,161.64,184.56,203.66,300.46,49.26-120.25,201.37-152.12,207.02-300.46m-75.62,0c0,56.39-35.97,104.36-86.23,122.25v-244.48c50.26,17.88,86.23,65.86,86.23,122.23m-259.44,0c0-55.11,34.38-102.19,82.86-120.99v241.99c-48.48-18.78-82.86-65.87-82.86-121M-905.64,274.43c-101.53,94.11-97.87,256.59.02,354.48,97.89,97.89,259.62,100.82,354.46,0,142.34-151.26,19.78-298.83,83.56-435.14-146.32,61.28-305.12-42.51-438.04,80.66m65.28,65.28c48.68-48.68,121.13-59.03,179.95-31.09l-211.02,211.02c-27.95-58.81-17.58-131.28,31.07-179.93m223.94,223.94c-47.57,47.57-117.89,58.53-175.96,32.91l208.88-208.88c25.64,58.06,14.67,128.38-32.92,175.97"/>
      <path class="cls-4" d="m-320.76-677.34c-36.28,33.63-34.97,91.69,0,126.67,34.98,34.98,92.77,36.03,126.66,0,50.87-54.05,7.07-106.78,29.86-155.49-52.28,21.9-109.03-15.19-156.53,28.82Zm156.53-28.82l120.19-120.19m-426.77,424.7c-36.28,33.63-34.97,91.69,0,126.67,34.98,34.98,92.77,36.03,126.66,0,50.87-54.05,7.07-106.78,29.86-155.49-52.28,21.9-109.03-15.19-156.53,28.82Zm156.53-28.82l120.19-120.19M-502.29,769.6c-36.28,33.63-34.97,91.69,0,126.67,34.98,34.98,92.77,36.03,126.66,0,50.87-54.05,7.07-106.78,29.86-155.49-52.28,21.9-109.03-15.19-156.53,28.82Zm-118.57-895.57c-36.28,33.63-34.97,91.69,0,126.67,34.98,34.98,92.77,36.03,126.66,0,50.87-54.05,7.07-106.78,29.86-155.49-52.28,21.9-109.03-15.19-156.53,28.82Zm23.33,23.33c17.39-17.39,43.28-21.09,64.3-11.11l-75.41,75.41c-9.99-21.01-6.28-46.91,11.1-64.3Zm80.02,80.02c-17,17-42.13,20.92-62.88,11.76l74.64-74.64c9.16,20.75,5.24,45.87-11.76,62.88Zm53.18-132.17l120.19-120.19m-784.37,1906.76l120.19-120.19M-132.11-185.69c-36.28,33.63-34.97,91.69,0,126.67,34.98,34.98,92.77,36.03,126.66,0,50.87-54.05,7.07-106.78,29.86-155.49-52.28,21.9-109.03-15.19-156.53,28.82Zm23.33,23.33c17.39-17.39,43.28-21.09,64.3-11.11l-75.41,75.41c-9.99-21.01-6.28-46.91,11.1-64.3ZM-28.77-82.34c-17,17-42.13,20.92-62.88,11.76L-17-145.22c9.16,20.75,5.24,45.87-11.76,62.88ZM24.42-214.51l112.47-112.47M-282.16,90c-36.28,33.63-34.97,91.69,0,126.67,34.98,34.98,92.77,36.03,126.66,0,50.87-54.05,7.07-106.78,29.86-155.49-52.28,21.9-109.03-15.19-156.53,28.82Zm156.53-28.82L-5.44-59.01m-426.77,424.7c-36.28,33.63-34.97,91.69,0,126.67,34.98,34.98,92.77,36.03,126.66,0,50.87-54.05,7.07-106.78,29.86-155.49-52.28,21.9-109.03-15.19-156.53,28.82Zm23.33,23.33c17.39-17.39,43.28-21.09,64.3-11.11l-75.41,75.41c-9.99-21.01-6.28-46.91,11.1-64.3Zm80.02,80.02c-17,17-42.13,20.91-62.88,11.76l74.64-74.64c9.16,20.75,5.24,45.87-11.76,62.88Zm53.18-132.17l120.19-120.19m2329.89,1180.2c-33.63-36.28-91.69-34.97-126.67,0-34.98,34.98-36.03,92.77,0,126.66,54.05,50.87,106.78,7.07,155.49,29.86-21.9-52.28,15.19-109.03-28.82-156.53Zm28.82,156.53l120.19,120.19M-93.52,581.65c-36.28,33.63-34.97,91.69,0,126.67,34.98,34.98,92.77,36.03,126.66,0,50.87-54.05,7.07-106.78,29.86-155.49-52.28,21.9-109.03-15.19-156.53,28.82Zm156.53-28.82l120.19-120.19m-426.77,424.7c-36.28,33.63-34.97,91.69,0,126.67,34.98,34.98,92.77,36.03,126.66,0,50.87-54.05,7.07-106.78,29.86-155.49-52.28,21.9-109.03-15.19-156.53,28.82Zm23.33,23.33c17.39-17.39,43.28-21.09,64.3-11.11l-75.41,75.41c-9.99-21.01-6.28-46.91,11.1-64.3Zm80.02,80.02c-17,17-42.13,20.92-62.88,11.76l74.64-74.64c9.16,20.75,5.24,45.87-11.76,62.88Zm53.18-132.17l120.19-120.19m212.03,89.3c-36.28,33.63-34.97,91.69,0,126.67,34.98,34.98,92.77,36.03,126.66,0,50.87-54.05,7.07-106.78,29.86-155.49-52.28,21.9-109.03-15.19-156.53,28.82Zm156.53-28.82l120.19-120.19m-426.77,424.7c-36.28,33.63-34.97,91.69,0,126.67,34.98,34.98,92.77,36.03,126.66,0,50.87-54.05,7.07-106.78,29.86-155.49-52.28,21.9-109.03-15.19-156.53,28.82Zm156.53-28.82l120.19-120.19M-54.92,1348.99c-36.28,33.63-34.97,91.69,0,126.67,34.98,34.98,92.77,36.03,126.66,0,50.87-54.05,7.07-106.78,29.86-155.49-52.28,21.9-109.03-15.19-156.53,28.82Zm23.33,23.33c17.39-17.39,43.28-21.09,64.3-11.11l-75.41,75.41c-9.99-21.01-6.28-46.91,11.1-64.3Zm80.02,80.02c-17,17-42.13,20.92-62.88,11.76l74.64-74.64c9.16,20.74,5.24,45.87-11.76,62.88Zm53.18-132.17l120.19-120.19M-1106.03-41.54c33.63,36.28,91.69,34.97,126.67,0,34.98-34.98,36.03-92.77,0-126.66-54.05-50.87-106.78-7.07-155.49-29.86,21.9,52.28-15.19,109.03,28.82,156.53Zm23.33-23.33c-17.39-17.39-21.09-43.29-11.11-64.31l75.41,75.41c-21.02,9.99-46.91,6.28-64.3-11.1Zm80.02-80.02c17,17,20.92,42.13,11.76,62.88l-74.64-74.64c20.75-9.16,45.87-5.24,62.88,11.76Zm-132.17-53.18l-634.31-634.31M-830.35,108.51c33.63,36.28,91.69,34.97,126.67,0,34.98-34.98,36.03-92.77,0-126.66-54.05-50.87-106.78-7.07-155.49-29.86,21.9,52.28-15.19,109.03,28.82,156.53Zm-28.82-156.53l-120.19-120.19M-583.49,102.03l-120.19-120.19M285.9-50.25c33.63,36.28,91.69,34.97,126.67,0,34.98-34.98,36.03-92.77,0-126.66-54.05-50.87-106.78-7.07-155.49-29.86,21.9,52.28-15.19,109.03,28.82,156.53Zm-28.82-156.53l-120.19-120.19M561.58,99.8c33.63,36.28,91.69,34.97,126.67,0,34.98-34.98,36.03-92.77,0-126.66-54.05-50.87-106.78-7.07-155.49-29.86,21.9,52.28-15.19,109.03,28.82,156.53Zm-28.82-156.53l-120.19-120.19m457.49,604.84c71.88,77.55,196,74.76,270.77-.01,74.77-74.77,77.01-198.31,0-270.76-115.54-108.73-228.26-15.11-332.38-63.83,46.81,111.76-32.48,233.07,61.61,334.6Zm49.86-49.86c-37.18-37.18-45.09-92.53-23.75-137.45l161.19,161.19c-44.92,21.35-100.28,13.43-137.44-23.74Zm171.05-171.05c36.33,36.33,44.71,90.05,25.14,134.41l-159.55-159.55c44.35-19.58,98.06-11.21,134.41,25.15Zm-282.53-52.63l-120.19-120.19m120.19,293.96l-120.19-120.19M-834.89,960.22c33.63,36.28,91.69,34.97,126.67,0,34.98-34.98,36.03-92.77,0-126.66-54.05-50.87-106.78-7.07-155.49-29.86,21.9,52.28-15.19,109.03,28.82,156.53Zm23.33-23.33c-17.39-17.39-21.09-43.28-11.11-64.3l75.41,75.41c-21.01,9.99-46.91,6.28-64.3-11.1Zm80.02-80.02c17,17,20.92,42.13,11.76,62.88l-74.64-74.64c20.75-9.16,45.87-5.24,62.88,11.76Zm-132.17-53.18l-120.19-120.19m424.7,426.77c33.63,36.28,91.69,34.97,126.67,0,34.98-34.98,36.03-92.77,0-126.66-54.05-50.87-106.78-7.07-155.49-29.86,21.9,52.28-15.19,109.03,28.82,156.53Zm-28.82-156.53l-120.19-120.19m424.7,426.77c33.63,36.28,91.69,34.97,126.67,0,34.98-34.98,36.03-92.77,0-126.66-54.05-50.87-106.78-7.07-155.49-29.86,21.9,52.28-15.19,109.03,28.82,156.53Zm23.33-23.33c-17.39-17.39-21.09-43.29-11.11-64.31l75.41,75.41c-21.01,9.99-46.91,6.28-64.3-11.1Zm80.02-80.02c17,17,20.92,42.13,11.76,62.88l-74.64-74.64c20.75-9.16,45.87-5.24,62.88,11.76Zm-132.17-53.18l-120.19-120.19M-257.36-259.98c53.46,57.67,145.75,55.59,201.36,0C-.4-315.59,1.26-407.46-56.01-461.33c-85.92-80.86-169.74-11.24-247.17-47.47,34.81,83.11-24.15,173.32,45.81,248.82ZM157.04-55.8C55.61-59.65-26.74,26.5-26.74,128s82.33,186.88,183.78,183.78c152.23-4.62,165.19-144.68,268.93-182.29C318.34,85.41,289.82-50.75,157.04-55.8Zm0,67.69c50.48,0,93.41,32.2,109.42,77.18H47.64C63.64,44.09,106.59,11.89,157.04,11.89Zm0,232.21c-49.32,0-91.47-30.77-108.3-74.17h216.6c-16.81,43.39-58.95,74.17-108.3,74.17Zm-400.17,502.39c48.32,52.13,131.75,50.25,182.01,0,50.26-50.26,51.77-133.3,0-182-77.67-73.09-153.43-10.16-223.42-42.9,31.46,75.12-21.83,156.66,41.41,224.91ZM-768.9-902.75c-53.46-57.67-145.75-55.59-201.36.01-55.6,55.6-57.27,147.47,0,201.35,85.92,80.86,169.74,11.24,247.17,47.46-34.81-83.11,24.15-173.32-45.81-248.82Zm-37.08,37.08c27.65,27.65,33.53,68.81,17.66,102.22l-119.87-119.87c33.41-15.88,74.57-9.99,102.21,17.65Zm-127.2,127.2c-27.02-27.02-33.25-66.96-18.7-99.95l118.65,118.65c-32.98,14.56-72.92,8.33-99.95-18.7ZM-768.9,122.2c-53.46-57.67-145.75-55.59-201.36.01-55.6,55.6-57.27,147.47,0,201.35,85.92,80.86,169.74,11.24,247.17,47.46-34.81-83.11,24.15-173.32-45.81-248.82Zm-37.08,37.08c27.65,27.65,33.53,68.81,17.66,102.22l-119.87-119.87c33.41-15.88,74.57-9.99,102.21,17.65Zm-127.2,127.2c-27.02-27.02-33.25-66.96-18.7-99.95l118.65,118.65c-32.98,14.56-72.92,8.33-99.95-18.7ZM208.16-889.63c4.3-113.32-91.94-205.33-205.35-205.33s-208.79,91.98-205.33,205.33c5.17,170.08,161.64,184.56,203.66,300.46,49.26-120.25,201.37-152.12,207.02-300.46Zm-75.62,0c0,56.39-35.97,104.36-86.23,122.25v-244.48c50.26,17.88,86.23,65.86,86.23,122.23Zm-259.44,0c0-55.11,34.38-102.19,82.86-120.99v241.99c-48.48-18.78-82.86-65.87-82.86-121ZM-905.64,274.43c-101.53,94.11-97.87,256.59.02,354.48,97.89,97.89,259.62,100.82,354.46,0,142.34-151.26,19.78-298.83,83.56-435.14-146.32,61.28-305.12-42.51-438.04,80.66Zm65.28,65.28c48.68-48.68,121.13-59.03,179.95-31.09l-211.02,211.02c-27.95-58.81-17.58-131.28,31.07-179.93Zm223.94,223.94c-47.57,47.57-117.89,58.53-175.96,32.91l208.88-208.88c25.64,58.06,14.67,128.38-32.92,175.97Z"/>
      <path class="cls-3" d="m401.92,721.47c-57.76,57.76-143.73,70.04-213.52,36.89l250.39-250.39c33.16,69.78,20.86,155.76-36.87,213.49"/>
      <path class="cls-6" d="m401.92,721.47c-57.76,57.76-143.73,70.04-213.52,36.89l250.39-250.39c33.16,69.78,20.86,155.76-36.87,213.49Z"/>
      <path class="cls-3" d="m154.12,367.36c56.44-56.44,139.88-69.45,208.78-39.05l-247.84,247.84c-30.42-68.89-17.41-152.32,39.06-208.79"/>
      <path class="cls-6" d="m154.12,367.36c56.44-56.44,139.88-69.45,208.78-39.05l-247.84,247.84c-30.42-68.89-17.41-152.32,39.06-208.79Z"/>
      <path class="cls-5" d="m395.24,648.62c33.63,36.28,91.69,34.97,126.67,0,34.98-34.98,36.03-92.77,0-126.66-54.05-50.87-106.78-7.07-155.49-29.86,21.9,52.28-15.19,109.03,28.82,156.53Z"/>
      <line class="cls-3" x1="366.42" y1="492.09" x2="318.16" y2="443.84"/>
      <line class="cls-5" x1="366.42" y1="492.09" x2="318.16" y2="443.84"/>
      <path class="cls-3" d="m670.92,798.67c33.63,36.28,91.69,34.97,126.67,0,34.98-34.98,36.03-92.77,0-126.66-54.05-50.87-106.78-7.07-155.49-29.86,21.9,52.28-15.19,109.03,28.82,156.53"/>
      <path class="cls-4" d="m670.92,798.67c33.63,36.28,91.69,34.97,126.67,0,34.98-34.98,36.03-92.77,0-126.66-54.05-50.87-106.78-7.07-155.49-29.86,21.9,52.28-15.19,109.03,28.82,156.53Z"/>
      <line class="cls-3" x1="642.1" y1="642.14" x2="521.91" y2="521.95"/>
      <line class="cls-5" x1="642.1" y1="642.14" x2="521.91" y2="521.95"/>
      <path class="cls-3" d="m732.37,812.35c-53.46-57.67-145.75-55.59-201.36.01-55.6,55.6-57.27,147.47,0,201.35,85.92,80.86,169.74,11.24,247.17,47.46-34.81-83.11,24.15-173.32-45.81-248.82"/>
      <path class="cls-6" d="m732.37,812.35c-53.46-57.67-145.75-55.59-201.36.01-55.6,55.6-57.27,147.47,0,201.35,85.92,80.86,169.74,11.24,247.17,47.46-34.81-83.11,24.15-173.32-45.81-248.82Z"/>
      <path class="cls-3" d="m695.29,849.43c27.65,27.65,33.53,68.81,17.66,102.22l-119.87-119.87c33.41-15.88,74.57-9.99,102.21,17.65"/>
      <path class="cls-6" d="m695.29,849.43c27.65,27.65,33.53,68.81,17.66,102.22l-119.87-119.87c33.41-15.88,74.57-9.99,102.21,17.65Z"/>
      <path class="cls-6" d="m568.09,976.64c-27.02-27.02-33.25-66.96-18.7-99.95l118.65,118.65c-32.98,14.56-72.92,8.33-99.95-18.7Z"/>
      <path class="cls-3" d="m595.63,964.58c-101.53,94.11-97.87,256.6.02,354.48,97.89,97.89,259.62,100.82,354.47,0,142.34-151.26,19.78-298.83,83.56-435.14-146.32,61.28-305.12-42.52-438.04,80.66"/>
      <path class="cls-4" d="m595.63,964.58c-101.53,94.11-97.87,256.6.02,354.48,97.89,97.89,259.62,100.82,354.47,0,142.34-151.26,19.78-298.83,83.56-435.14-146.32,61.28-305.12-42.52-438.04,80.66Z"/>
      <path class="cls-3" d="m388.68,1031.99c86.73,0,160.84,54.11,190.43,130.42H198.25c29.56-76.3,103.67-130.42,190.44-130.42"/>
      <path class="cls-6" d="m388.68,1031.99c86.73,0,160.84,54.11,190.43,130.42H198.25c29.56-76.3,103.67-130.42,190.44-130.42Z"/>
      <path class="cls-3" d="m517.52,274.06c0-142.66,91-264.01,218.13-309.26v618.46c-127.13-45.22-218.13-166.6-218.13-309.2"/>
      <path class="cls-4" d="m517.52,274.06c0-142.66,91-264.01,218.13-309.26v618.46c-127.13-45.22-218.13-166.6-218.13-309.2Z"/>
    </g>
  </g>
</svg>