<?xml version="1.0" encoding="UTF-8"?>
<svg id="_レイヤー_2" data-name="レイヤー 2" xmlns="http://www.w3.org/2000/svg" viewBox="0 0 202.98 44.64">
  <defs>
    <style>
      .cls-1 {
        fill: #008a7c;
      }
    </style>
  </defs>
  <g id="_レイヤー_1-2" data-name="レイヤー 1">
    <g>
      <path class="cls-1" d="M0,0h14.04c8.16,0,14.76,2.04,14.76,9.72,0,3.36-1.92,7.2-4.92,8.4v.24c3.72,1.08,6.72,3.96,6.72,9.12,0,8.04-6.96,11.52-15.36,11.52H0V0ZM13.8,15.24c3.36,0,4.92-1.56,4.92-3.96s-1.56-3.36-4.92-3.36h-3.48v7.32h3.48ZM14.52,31.08c4.08,0,6-1.44,6-4.32s-1.92-3.96-6-3.96h-4.2v8.28h4.2Z"/>
      <path d="M34.73,31.5c0-4.98,3.6-7.86,7.44-7.86s7.44,2.88,7.44,7.86-3.6,7.86-7.44,7.86-7.44-2.88-7.44-7.86ZM44.33,31.5c0-2.28-.6-3.72-2.16-3.72s-2.16,1.44-2.16,3.72.6,3.72,2.16,3.72,2.16-1.44,2.16-3.72Z"/>
      <path d="M51.81,31.5c0-4.92,3.06-7.86,6.12-7.86,1.62,0,2.58.6,3.48,1.5l-.18-2.16v-4.86h5.16v20.88h-4.2l-.36-1.38h-.12c-1.02,1.02-2.46,1.74-3.78,1.74-3.72,0-6.12-3-6.12-7.86ZM61.23,34.08v-5.52c-.6-.54-1.38-.72-2.04-.72-1.08,0-2.1.96-2.1,3.6s.84,3.72,2.22,3.72c.78,0,1.38-.24,1.92-1.08Z"/>
      <path d="M69.87,44.34l.9-3.9c.27.06.66.18.96.18,1.38,0,2.04-.6,2.34-1.5l.18-.66-5.7-14.46h5.16l1.8,5.76c.42,1.38.72,2.76,1.08,4.26h.12c.3-1.44.6-2.82.96-4.26l1.5-5.76h4.92l-5.04,14.76c-1.56,4.05-3.18,5.88-6.9,5.88-1.02,0-1.62-.12-2.28-.3Z"/>
      <path d="M85.71,29.58h7.56v3.6h-7.56v-3.6Z"/>
      <path d="M95.44,24.18l2.28-.18h7.38v4.02h-9.66v-3.84ZM97.42,23.82c0-3.21,1.5-6.06,5.94-6.06,1.38,0,2.52.3,3.18.54l-.9,3.78c-.48-.18-1.02-.3-1.5-.3-.96,0-1.56.45-1.56,1.86v15.36h-5.16v-15.18Z"/>
      <path d="M107.37,24h4.2l.36,2.58h.12c1.11-2.04,2.79-2.94,4.26-2.94.93,0,1.44.12,1.86.3l-.84,4.44c-.54-.12-1.02-.24-1.68-.24-1.08,0-2.4.66-3.12,2.52v8.34h-5.16v-15Z"/>
      <path d="M119.84,19.56c0-1.5,1.2-2.58,2.88-2.58s2.88,1.08,2.88,2.58-1.2,2.58-2.88,2.58-2.88-1.08-2.88-2.58ZM120.14,24h5.16v15h-5.16v-15Z"/>
      <path d="M128.07,31.5c0-4.86,3.54-7.86,7.2-7.86,4.44,0,6.54,3.24,6.54,7.26,0,.9-.12,1.8-.21,2.16h-8.55c.48,1.8,1.8,2.4,3.48,2.4,1.02,0,1.98-.3,3.06-.9l1.68,3.06c-1.62,1.14-3.78,1.74-5.46,1.74-4.38,0-7.74-2.88-7.74-7.86ZM137.43,29.7c0-1.14-.48-2.16-2.04-2.16-1.14,0-2.1.66-2.4,2.16h4.44Z"/>
      <path d="M144.83,24h4.2l.36,1.8h.12c1.2-1.14,2.7-2.16,4.74-2.16,3.3,0,4.68,2.4,4.68,6.12v9.24h-5.16v-8.58c0-1.92-.48-2.4-1.5-2.4-.96,0-1.5.42-2.28,1.14v9.84h-5.16v-15Z"/>
      <path d="M161.81,31.5c0-4.92,3.06-7.86,6.12-7.86,1.62,0,2.58.6,3.48,1.5l-.18-2.16v-4.86h5.16v20.88h-4.2l-.36-1.38h-.12c-1.02,1.02-2.46,1.74-3.78,1.74-3.72,0-6.12-3-6.12-7.86ZM171.23,34.08v-5.52c-.6-.54-1.38-.72-2.04-.72-1.08,0-2.1.96-2.1,3.6s.84,3.72,2.22,3.72c.78,0,1.38-.24,1.92-1.08Z"/>
      <path d="M180.01,33.72v-15.6h5.16v15.78c0,1.02.48,1.32.84,1.32.18,0,.3,0,.54-.06l.6,3.78c-.54.24-1.38.42-2.52.42-3.48,0-4.62-2.28-4.62-5.64Z"/>
      <path d="M188.76,44.34l.9-3.9c.27.06.66.18.96.18,1.38,0,2.04-.6,2.34-1.5l.18-.66-5.7-14.46h5.16l1.8,5.76c.42,1.38.72,2.76,1.08,4.26h.12c.3-1.44.6-2.82.96-4.26l1.5-5.76h4.92l-5.04,14.76c-1.56,4.05-3.18,5.88-6.9,5.88-1.02,0-1.62-.12-2.28-.3Z"/>
    </g>
  </g>
</svg>