<?xml version="1.0" encoding="UTF-8"?>
<svg id="_レイヤー_2" data-name="レイヤー 2" xmlns="http://www.w3.org/2000/svg" viewBox="0 0 320 631.69">
  <defs>
    <style>
      .cls-1 {
        fill: #231815;
      }
    </style>
  </defs>
  <g id="_レイヤー_1-2" data-name="レイヤー 1">
    <path class="cls-1" d="M154.46,465.19c.14,1.12.96,2.07,2.37,2.74,2.7,1.31,9.43.55,11.99-.41,1.93-.73,4.32-1.18,4.89.89.51,1.84-1.07,2.88-3.77,3.7-1.72.52-4.71.87-7.74.87-2.82,0-5.69-.35-7.64-1.3-2.67-1.32-4.28-3.4-4.53-5.86-.3-2.97,1.46-6.21,4.84-8.82.13-.1.82-.66,1.06-.83-1.27-3.42-3.82-7.38-4.41-8.62-.59-1.23-.55-2.7.36-3.28,1.04-.66,2.44-.38,3.35.87,1.65,2.27,3.17,5.14,4.38,8.44,1.68-1.18,6.4-3.65,7.18-3.99,1.75-.77,3.19-1.01,4.14.36.69.98.55,2.58-2,3.64l-1.56.79c-3.7,1.82-7.31,3.73-10.15,6.07-1.99,1.64-2.95,3.27-2.77,4.73ZM168.82,591.07c-2.56.96-9.29,1.72-11.99.41-1.41-.67-2.24-1.62-2.37-2.74-.18-1.45.78-3.08,2.77-4.73,2.84-2.34,6.45-4.25,10.15-6.07l1.56-.79c2.54-1.05,2.68-2.65,2-3.64-.95-1.37-2.39-1.13-4.14-.36-.78.34-5.5,2.81-7.18,3.99-1.21-3.31-2.74-6.18-4.38-8.44-.9-1.25-2.31-1.53-3.35-.87-.91.58-.95,2.04-.36,3.28.59,1.23,3.14,5.2,4.41,8.62-.24.17-.94.73-1.06.83-3.38,2.61-5.14,5.85-4.84,8.82.25,2.46,1.86,4.54,4.53,5.86,1.95.96,4.82,1.3,7.64,1.3,3.03,0,6.02-.35,7.74-.87,2.7-.82,4.28-1.87,3.77-3.7-.58-2.07-2.97-1.62-4.89-.89ZM176.11,497.97c-.06-.87-.51-1.36-1.22-1.62-.68-.25-2.3-.14-3.2-.08-1.66.11-5.7.23-8.72.29,0-.63.02-2.25.04-4.1,2.65-.07,6.34-.22,7.43-.36,1.42-.18,3.06-.58,2.96-2.13-.06-.87-.51-1.36-1.22-1.62-.68-.25-2.3-.14-3.2-.08-1.58.1-3.73.2-5.92.26.02-1.5.03-2.76.03-3.33,0-1.24-.1-3.48-2.11-3.47-1.39,0-2.32.85-2.25,3.49l.06,3.36c-2.16,0-4.28-.02-5.84-.09-.9-.04-2.52-.12-3.2.15-.71.28-1.14.75-1.19,1.62-.07,1.55,1.57,1.89,3,2.04,1.08.11,4.65.18,7.29.2l.07,4.11c-3.02.02-7.1.01-8.77-.06-.9-.04-2.52-.12-3.2.15-.71.28-1.14.75-1.19,1.62-.07,1.55,1.57,1.89,3,2.04.94.1,4.94.15,8.21.17-3.2,4.07-6.71,7-11.38,9.45-1.69.88-2.64,2.34-1.89,3.56.52.84,1.93.83,2.73.62,2.31-.61,8.73-4.91,12.46-9.97l-.12,9.69c0,1.19.21,3.22,2.17,3.21,2.14,0,2.23-2.14,2.23-3.26,0-2.33-.12-8.22-.15-9.84,4.71,5.49,10.42,8.87,12.14,9.69,1.25.6,2.86.5,3.46-.52.34-.57.23-1.35-.14-1.91-.47-.7-.92-1.11-1.75-1.55-4.91-2.6-8.78-5.63-11.94-9.23,3.29-.09,7.38-.23,8.33-.35,1.42-.18,3.06-.58,2.96-2.13ZM178.97,383.96c-.7.01-1.18.38-1.56,1.04-.17.3-.36.79-.39,1.36-.21,3.67-2.11,4.19-6.99,4.19-3.69,0-5.46-.33-5.77-2.43-.29-1.98-.4-5.6-.39-10.07,0-.28,0-.59,0-.91.54-.25,1.08-.5,1.58-.74.34-.16.71-.33,1.08-.52-.02,2.65-.04,5.87-.06,7.16-.02,1.75,0,2.19.14,2.64.23.71.62,1.04,1.75,1.04,1.13,0,1.48-.62,1.67-1.02.19-.39.28-.93.34-1.87,0,0,.15-6.05.2-10.02,1.58-.84,2.82-1.52,2.97-1.59.15-.07.24-.1.36-.1.46,0,.5.89.5,2.34,0,3.75-.26,5.98-.82,6.76-.17.23-.46.2-.64.2-.14,0-.22-.07-.54-.13-.32-.07-.71.04-.91.25-.28.28-.53.87-.48,1.64.06.78.39,1.97,2.13,2.05,4.45.18,5.17-3.6,5.17-12.21,0-1.77,0-5.09-3.2-5.09-.87,0-1.79.24-2.73.72,0,0-.73.38-1.81.93-.06-2.95-.22-6.27-.22-6.27-.1-1.11-.62-1.86-1.89-1.77-1.22.09-1.99.68-1.98,2.14,0,1.1.08,5.03.09,7.89-.96.47-1.89.9-2.68,1.25,0-2.14.01-4.26.03-5.65.01-1.34-.69-2.08-1.69-2.14-2.41-.14-2.22,3.53-2.28,4.81-.02.37-.07,2.4-.1,4.71-1.47.62-2.82,1.18-3.43,1.4-1.14.42-2.03,1.45-1.47,2.82.26.62.88.9,1.74.91.81,0,1.33-.21,2.07-.43.34-.1.7-.23,1.08-.37,0,3.97.07,7.68.37,9.9.69,5.02,5.85,5.45,10,5.45,5.16,0,11.33-.36,11-7.61-.08-1.67-.64-2.7-2.22-2.67ZM143.86,391.27c.91-.17,4.07-1.38,6.8-2.59,2.49-1.1,4.7-2.34,5.1-2.62.92-.64,1.57-1.65,1.07-2.72-.54-1.12-1.91-.84-2.89-.33-.69.36-1.49.74-2.23,1.08l.08-8.16v-.12c1.07-.09,1.99-.23,2.67-.38,1.58-.37,2.2-1.35,1.98-2.5-.18-.95-1.17-1.35-2.42-1.18-.55.07-1.35.18-2.22.26,0-.86,0-3.92-.04-5.83-.03-1.23-.11-2.54-.36-3.09-.29-.63-.85-1.19-1.61-1.15-.77.04-1.16.3-1.5.71-.42.5-.53,1.54-.56,2.18l-.05,7.28c-1.26-.04-2.72-.08-3.6-.06-1.42.04-2.03.86-2.1,1.67-.09,1.1.68,1.64,1.75,1.94.79.22,2.25.27,3.96.27h0s.08,9.86.08,9.86c-1.56.68-2.91,1.18-4.41,1.76-1.21.47-2.22,1.27-1.94,2.48.29,1.25,1.39,1.46,2.42,1.26ZM177.04,552.39c-4.54-2.4-8.47-5.01-11.56-8.23,3.26-.09,7.06-.22,7.95-.33,1.42-.18,3.06-.58,2.96-2.13-.06-.87-.51-1.36-1.22-1.62-.68-.25-2.3-.14-3.2-.08-1.66.11-5.9.23-8.98.29l-.02-1.84c0-.67.03-2.9.06-5.25,2.73-.07,6.59-.22,7.69-.36,1.42-.18,3.06-.58,2.96-2.13-.06-.87-.51-1.36-1.22-1.62-.68-.25-2.3-.14-3.2-.08-1.58.1-3.91.2-6.18.26.01-1.12.02-2.03.02-2.48,0-1.24-.1-3.48-2.11-3.47-1.39,0-2.32.85-2.25,3.49l.04,2.51c-2.25,0-4.54-.02-6.1-.08-.9-.04-2.52-.12-3.2.15-.71.28-1.14.75-1.19,1.62-.07,1.55,1.57,1.89,3,2.04,1.08.11,4.83.18,7.55.2l.09,5.22v1.87c-3.09.02-7.36.01-9.03-.06-.9-.04-2.52-.12-3.2.15-.71.28-1.14.75-1.19,1.62-.07,1.55,1.57,1.89,3,2.04.89.09,4.62.15,7.85.17-3.07,3.62-6.68,6.15-11.03,8.44-1.69.88-2.64,2.34-1.89,3.56.52.84,1.93.83,2.73.62,2.3-.61,9.1-4.93,12.72-9.76l-.11,9.01c0,1.19.21,3.22,2.17,3.21,2.14,0,2.23-2.14,2.23-3.26,0-1.95-.09-6.66-.13-9.13,4.71,5.48,10.68,8.62,12.39,9.44,1.25.6,2.86.5,3.46-.52.34-.57.23-1.35-.14-1.91-.47-.7-.92-1.11-1.75-1.55ZM168.67,533.36c-1.24.13-1.6,1.06-2.16,2.25-.49,1.04-1.03,1.48-1.46,2.54-.36.9.37,1.71,1.6,1.61.81-.06,1.52-.44,2.19-.97,1.04-.83,1.72-2.3,1.88-2.77.2-.55.14-1.41-.2-1.81-.48-.55-1.13-.93-1.85-.86ZM152.74,538.54c.44.9,1.58,1.67,2.86,1.24.95-.32,1.02-1,1.02-1.77,0-.85-.3-1.65-.99-2.48-.91-1.1-1.91-1.71-2.71-1.97-.39-.12-1.02-.2-1.53.21-.55.45-.52.93-.44,1.4.1.55.37,1,1.03,1.81.27.33.36.75.76,1.56ZM177.11,406.97c.54,0,1.08-.33,1.27-.58.4-.57.38-1.19.1-1.86-.53-1.27-3.1-2.62-4.22-2.82-.49-.09-1.29-.08-1.75.58-.28.41-.22,1.16.23,1.7.46.55,2.02,1.45,2.77,2.23.48.51,1.08.74,1.6.75ZM154.1,427.74c-.27.31-.55,1.01-.22,1.81.33.83.95,1.21,2.02,1.2,1.07,0,4.52-.56,9.52-3.09.88-.52,1.52-1.26.98-2.4-.64-1.34-2.06-.87-2.27-.78-3.13,1.34-4.54,1.69-8.56,2.52-.4.08-1.11.3-1.48.73ZM179.43,426.09c-1.49-.38-1.98.64-2.47,2.08-.87,2.54-1.25,2.89-1.46,2.92-.56.09-1.81-.5-2.7-3.54,2.65-3.58,4.36-7.84,4.97-9.72.35-1.08.36-2.72-.81-3.1-1.86-.6-2.55,1.16-2.97,2.38-.42,1.24-.97,2.61-1.56,3.9-.21.46-.47.94-.75,1.41h0c-.44-2.84-.72-6.28-.89-10.73v-.13c2.5-.16,5.01-.37,5.01-.37,1.32-.15,2.24-.69,2.13-1.88-.07-.76-.43-1.22-.81-1.44-.45-.25-1.37-.34-2.35-.24,0,0-1.83.13-4.04.25.01-.88.12-1.71.14-3.06.02-1.41-.1-3.2-2.1-3.24-2.03.03-2.11,2.05-2.1,3.2,0,0,0,2.51.02,3.24v.02c-3.1.05-7.23-.02-8.17-.05-1.41-.06-2.59.21-2.55,1.96.02.8.81,1.52,2.27,1.66,0,0,5.12.15,8.6.12.32,6.19.9,11.07,1.75,14.91-.68.78-1.28,1.39-1.65,1.7-1.61,1.36-3.48,2.67-5.04,3.26-1.99.75-3.05,1.48-2.46,2.94.4.99,1.88,1.19,2.9.9,2.12-.6,4.61-1.77,7.49-4.55,1.69,4.22,3.81,4.4,5.52,4.33,3.96-.15,4.96-4.89,5.18-6.56.14-1.05-.05-2.29-1.11-2.56ZM156.46,421.18c-.06-.66-.08-1.5-.1-2.39-.03-1.19-.03-2.05-.02-2.95,0-1,.22-1.62.68-2,.71-.59,2.02-.62,4.08-.67,2.95-.07,4.48.1,4.62,2.42,0,0,.13,2.41.16,3.57.08,3.64.24,4.44-4.71,4.55-2.96.07-4.51.1-4.71-2.53ZM159.61,418.33c.02.79.1,1.48.13,1.71.03.21.07.47,1.35.45,1.46-.03,1.51-.03,1.47-2.07-.02-.71-.04-1.07-.09-1.73,0-.29-.11-.58-1.45-.55-.74-.01-1.31.08-1.35.44-.02.2-.08,1.07-.06,1.75ZM144.13,429.4c.91-.17,3.47-1.18,6.2-2.39,2.49-1.1,4.2-2.12,4.61-2.41.92-.64,1.57-1.65,1.07-2.72-.54-1.12-1.91-.84-2.89-.33-.69.36-.99.52-1.73.87l.08-5.42v-2.33c.83-.09,1.48-.22,2.12-.37,1.58-.37,2.2-1.35,1.98-2.5-.18-.95-1.17-1.35-2.42-1.18-.49.06-1.05.16-1.68.24,0-1.18-.01-2.57-.04-3.61-.03-1.23-.11-2.54-.36-3.09-.29-.63-.85-1.19-1.61-1.15-.77.04-1.16.3-1.5.71-.42.5-.53,1.54-.56,2.18l-.04,5.09c-1.06-.04-2.23-.08-3.06-.06-1.42.04-2.03.86-2.1,1.67-.09,1.1.57,1.39,1.61,1.79.72.27,1.97.38,3.55.4v2.22s.09,7.11.09,7.11c-1.56.68-2.31.97-3.81,1.56-1.21.47-2.22,1.27-1.94,2.48.29,1.25,1.39,1.46,2.42,1.26ZM252.11,489.32c.2-1.31.4-2.66.48-3.71.13-1.5-.47-2.88-1.77-2.98-1.28-.1-2.08,1.21-2.39,2.53-.36,1.53-.94,5.73-1.04,8.15-.12,2.99.05,4.26.78,5.63.24.45.83,1.02,1.58,1.22.65.17,1.31.04,1.95-.37,1.97-1.27,4.83-3.03,6.93-3.58,4.64-1.26,7.05.29,7.69,1.64.33.71.34,1.53.02,2.37-.38.99-2.15,3.15-4.47,4.36-1.91,1-4.03,1.44-5.01,1.62l-.71.12c-.9.16-1.46.2-1.99.36-.85.26-1.83.91-1.59,2.25.24,1.33,1.75,1.43,2.86,1.45.74.01,1.96-.08,2.84-.23,2.75-.47,4.18-.99,6.33-2.13,5.67-3.02,7.16-7.7,5.99-11.19-1.09-3.26-5.08-6.47-13.43-4.47-2.18.58-3.83,1.46-4.96,2.46-.12.13-.21.13-.3.13-.08,0-.14-.04-.17-.12-.24-.68-.18-1.5.04-3.28.09-.7.21-1.47.32-2.24ZM257.48,486.29c.51.82,2.72.66,3.11.61.73-.11,1.69-.36,2.25-.57,2.32-.93,3.44-1.78,3.36-2.89-.07-1.04-1.37-1.78-2.52-2.44-.27-.16-.54-.31-.77-.46-.52-.33-1.85-1.22-3.04-2.24-.71-.61-2.39-1.26-3.46-.19-1.17,1.18-.21,2.45.5,3.14.09.09,1.02,1.01,1.84,1.43.42.21,1.16.47,1.39.61-.06.05-.3.22-.62.41-.39.22-2.89,1.24-2.05,2.6ZM274.59,606.73c-.6-.31-1.83-.83-2.68-.12-.85.7-.48,1.91.08,2.36.82.67,1.96,1.63,2.5,2.41.63.9,1.92,1.43,3.04.45.92-.8.2-2.34-.32-2.92-.7-.79-1.71-1.72-2.62-2.18ZM249.24,619.82c-.91-.5-2.13-.55-3.01.89-.98,1.6-3.16,4.15-4.31,5.25-.94.9-.68,2.31.13,2.96,1.18.96,2.71.34,3.34-.06,1.54-.99,3.44-3.46,4.48-6.18.41-1.06.3-2.34-.63-2.86ZM258.36,603.08c-1.17-.84-2.48-1-3.2-.26-.57.59-.71,1.68.03,2.64.33.41.57.61,1.08,1.04.72.61,1.53,1.31,2.05,2.16.18.27.17.4.15.47-.04.17-.3.29-.69.56-1.02.71-1.44,1.72-.95,2.58.3.51,1.55.65,2.13.59.57-.07,1.54-.28,2.43-.64,2.41-.97,2.61-2.04,2.6-2.76-.09-2.18-4.14-5.31-5.62-6.37ZM268.86,619.41c-.91-.48-2.07-.75-2.92.15-.71.76-.46,1.94.51,2.89,1.08,1.07,2.55,2.48,3.38,4.35.64,1.44,2.1,2.2,3.42,1.76,1.32-.44,1.73-1.88,1.22-3.26-.83-2.25-3.44-4.74-5.62-5.89ZM267.33,612.34c.65.68,1.96,1.63,2.5,2.41.63.9,1.92,1.43,3.04.45.92-.8.2-2.34-.32-2.92-.7-.79-1.68-1.69-2.62-2.18-.6-.31-1.83-.83-2.68-.12s-.43,1.83.08,2.36ZM257.31,615.18c-1.11-.8-2.24-.97-3.04-.3-.76.62-.83,2.18.13,3.18.32.33.3.31.86.85,1.02.98,2.28,2.2,2.99,3.17,1.19,1.63,1.43,3.53.57,4.64-.95,1.24-2.92,1.31-5.78.18-.47-.19-2.47-1.22-3.31.65-.54,1.21.38,2.29,1.48,2.82h0c1.95.93,3.78,1.33,5.4,1.33,2.66,0,4.77-1.06,5.98-2.54,1.97-2.41,1.71-5.86-.67-9-1.17-1.57-3.53-4.2-4.6-4.97ZM246.64,450.12c1.52-.02,3.9-.22,4.76-.36-1.96,5.45-3.22,8.43-5.84,11.66-.62.76-2.44,3.3-.51,4.55l.12.07c.97.54,2.58.07,3.68-1.33,3.45-4.41,5.48-9.1,7.36-15.58.73-.08,2.25-.16,2.74-.19.9-.08,1.67.16,2.23.66.63.58.96,1.94.96,3.12,0,2.05-.35,5.46-1.34,7.51-1.04,2.13-1.81,3.32-4.44,2.7-1.49-.35-2.99-.23-3.56,1.38-.24.69.26,1.95,2.3,2.46.81.2,1.6.34,2.38.34,3.35,0,6.22-1.92,7.67-5.31,1.2-2.82,1.53-7.14,1.46-9.74-.08-2.11-.81-4.27-2.12-5.43-1.3-1.15-3.11-1.71-5.11-1.54l-2.04.1c.45-1.74.97-3.7,1.17-5.11.14-1,.45-3.11-1.52-3.52-1.22-.25-2,.35-2.44,1.11-.28.48-.52,1.17-.66,2.03-.15.86-.65,3.58-1.3,5.93l-1.96.19c-.71.06-3.34.26-4.92.35-2.21.07-2.89,1.11-2.73,2.4.14,1.22,1.64,1.58,3.68,1.56ZM267.63,440.43c-.83,1.15-.04,2.37.8,3.02,2.67,2.06,4.23,3.62,5.36,5.82.41.81,1.15,1.73,1.46,1.96.71.55,1.82.55,2.33.29,1.13-.56,1.42-2.18.83-3.69-1.1-2.85-3.99-5.71-7.26-7.55-1.23-.69-2.62-1.09-3.51.14ZM249.39,542.89c-1.32-.14-2.5-.83-3.2-1.89-1.39-2.07-1.47-4.18-.49-6.18.87-1.78,2.89-2.74,4.88-2.59,0,0,.26.03.5.07.17-.49.36-1.35.52-2.42-.39.02-.81.03-1.32.04-1.18.02-2.09-.12-3.35-.49-1.32-.39-2.44-1.31-1.95-2.62.48-1.28,2.12-1.36,3.32-1.13,1.35.22,2.6.19,3.67.07.07-1.71.06-3.26.02-4.24-.04-1.16.61-2.3,1.88-2.45,1.67-.2,2.27,1,2.5,2.27.05.3.19,1.95.1,3.26.01-.05,0,.11-.01.38.9-.21,1.78-.46,2.39-.67.95-.33,2.45-.66,2.95.73.56,1.55-.76,2.49-1.66,2.97-.81.43-2.19.98-4.03,1.33-.2,2.09-.44,4.32-.66,5.49.61,1.03.41,2.26-.03,3.65-.29.9-.71,2.05-1.17,3.17-.17.42-.37.83-.51,1.24-.7,2.11.55,3.56,1.68,4.33,1.25.85,3.17.96,4.95.85,1.39-.08,3.43-.39,4.8-1.43,1.12-.84,2.08-1.89,1.67-4.15-.14-.8-.46-1.82-.25-2.66.21-.86.66-1.26,1.35-1.46,1.35-.39,2.48.93,2.97,2.62,1.3,4.53-.23,8.61-5.94,10.31-1.33.4-3.33.65-5.4.65-2.58,0-5.11-.38-6.74-1.46-2.48-1.64-4.24-4.01-3.42-7.6ZM249.95,539.4h.03c.56-.02,1.16-.51,1.5-1.42.06-.22.14-.41.17-.64.01-.11.07-.63-.17-1.06-.27-.49-.62-.66-1.32-.67-.69,0-1.08.24-1.4.69-.42.58-.49,1.42-.18,2.15.18.41.76.96,1.37.96ZM271.72,533.71c.63.81,2.24,1.93,3.46,1.09,1.47-1.01.84-2.81.36-3.39-1.96-2.38-4.39-3.71-7.21-4.14-1.3-.11-2.48-.14-2.99,1.16-.31.79.19,2,1.64,2.41.86.25,1.87.63,2.71,1.15.85.53,1.58,1.15,2.03,1.72ZM74.05,490.43c.78,3.18.18,6.74-1.66,9.76-1.62,2.65-4.34,4.89-7.87,6.19-1.07.39-2.46.54-3.34.37-.65-.12-1.36-.54-1.61-1.07-.31-.67-.12-1.38.23-1.81.47-.58,1.02-.9,2.31-1.33,3.07-1.02,5.2-2.37,6.42-4.3,2.74-4.32,1.81-9.47-2.15-11.99-1.34-.86-2.64-1.35-4.31-1.52.2.49.18,1,.14,1.66-.33,5.03-3.27,12.51-7.19,15.7-1.37,1.11-3.78,2.17-6.02,1.55-1.63-.45-2.85-1.3-3.62-3.2-2.1-5.15.38-12.42,5.9-16.25,5.1-3.52,12.4-3.91,17.35-.92,2.8,1.68,4.67,4.15,5.41,7.16ZM58.27,484.93c-1.71.42-3.52,1.22-4.95,2.31-3.68,2.85-5.51,7.87-4.3,10.98.25.66.73,1.26,1.66,1.28.71.01,1.29-.32,1.67-.61,2.47-1.89,5.26-9.63,5.58-12.66.09-.82.33-1.3.33-1.3ZM67.7,372.34c-3.03-.38-6.23.03-9.47,1.76-.9.47-1.62.9-2.74,1.7,0-.02,0-.04,0-.05.26-.52,1.32-1.94,1.84-2.63.97-1.3,1.69-2.78,1.12-3.83-.45-.82-1.36-1.11-2.35-.7h-.02c.2-2.28.35-3.96.37-4.31.06-1.07-.1-1.85-.61-2.27-.65-.53-1.46-.62-2.2-.26-.81.4-1.16,1.54-1.23,2.38-.15,1.58-.2,3.37-.44,5.96-1.13.43-1.49.54-2.85.87-.66.16-1.66.28-2.69.37-.96.08-1.67.8-1.66,2.01,0,.99.64,1.7,1.31,1.91.85.27,1.95.17,2.94-.02,1.04-.2,2.4-.55,2.49-.55l-.07.56c-1.16,1.86-2.63,4.62-3.79,6.2-.72.98-2.17,2.78-3.03,3.83-.72.88-.8,2.26.08,2.89,1.46,1.06,3.1.2,3.87-.59.77-.78,1.58-1.75,2.35-2.65l-.04.55c-.15,2.21-.12,3.07-.03,4.39.05.82.42,3.3,2.35,3.14,1.1-.09,1.47-.73,1.67-1.21.38-.88.12-2.76.07-5.34-.04-1.84.07-3.81.2-5.65,1.53-1.24,3.14-2.4,4.5-3.12,4.16-2.19,7.48-1.83,9.38-.8,2.67,1.44,2.37,5.09,1.73,6.53-.45,1.01-1.29,2.24-2.21,2.95-1.14.89-1.98,1.42-3.77,2.16-1.79.73-2.42,1.77-1.69,2.99.43.72,1.62.82,3.08.45,2.14-.54,4.29-1.63,5.95-3.09,1.75-1.53,3.48-4.2,3.4-8.15-.04-1.76-.57-3.64-1.69-5.16-1.31-1.79-3.43-2.88-6.13-3.22ZM73.63,428.5c-.14-.97-.94-2.08-2.62-1.78-2.75.49-6.39.72-8.67-.75-1.32-.85-2.54-1.15-3.23-.55-.87.74-.54,2.18.43,3.25,1.2,1.34,4.17,2.75,8.58,2.75,1.13,0,2.16,0,3.45-.37,1.55-.44,2.21-1.5,2.06-2.56ZM71.02,412.32c-1.48-.45-2.76-.48-4.16-.44-2.48.08-4.08.41-4.96.8-1.12.49-2.37,1.38-1.95,2.63.4,1.16,1.78,1.1,3.07.85,1.16-.22,4.15-.4,6.41.04.25.05.99.26,1.5.26.86,0,1.9-.34,2.12-1.31.26-1.16-.4-2.33-2.02-2.82ZM47.87,422.48c-.72,1.71-1.34,2.98-1.8,3.88-.33.67-1.03,1.86-1.38,2.75-.43,1.07-.13,2.07.77,2.56.86.47,2.37.2,3.24-.93.88-1.15,1.94-3.12,3.01-5.48,1.31-2.89,2.43-6.43,3.11-8.53.54-1.66,1.02-3.55,1.4-5.33,1.87-.24,3.22-.53,4.03-.85,1.03-.41,2.35-1.51,1.75-3.13-.43-1.16-1.96-1.23-3.15-.82-.55.19-1.21.34-1.89.47.13-1,.32-2.23.17-3.57-.14-1.26-1.2-2.33-2.55-2.16-.89.11-1.75.97-1.75,2.29,0,1.1-.17,2.59-.39,4.07-1.16.08-2.54.08-4.1-.18-1.2-.24-2.84-.22-3.32,1.05-.49,1.31.64,2.27,1.95,2.67,1.33.4,2.07.45,3.3.46.52,0,.96,0,1.36,0-.27,1.06-.59,2.18-1,3.32-.9,2.51-1.91,5.37-2.79,7.45ZM71.01,619.85c-2.75.49-6.39.72-8.67-.75-1.32-.85-2.54-1.15-3.23-.55-.87.74-.54,2.18.43,3.25,1.2,1.34,4.17,2.75,8.58,2.75,1.13,0,2.16,0,3.45-.37,1.55-.44,2.21-1.5,2.06-2.56-.14-.97-.94-2.08-2.62-1.78ZM66.86,605.01c-2.48.08-4.08.41-4.96.8-1.12.49-2.37,1.38-1.95,2.63.4,1.16,1.78,1.1,3.07.85,1.16-.22,4.15-.4,6.41.04.25.05.99.26,1.5.26.86,0,1.9-.34,2.12-1.31.26-1.16-.4-2.33-2.02-2.82-1.48-.45-2.76-.48-4.16-.44ZM60.26,603.66c1.03-.41,2.35-1.51,1.75-3.13-.43-1.16-1.96-1.23-3.15-.82-.55.19-1.21.34-1.89.47.13-1,.32-2.23.17-3.57-.14-1.26-1.2-2.33-2.55-2.16-.89.11-1.75.97-1.75,2.29,0,1.1-.17,2.59-.39,4.07-1.16.08-2.54.08-4.1-.18-1.2-.24-2.84-.22-3.32,1.05-.49,1.31.64,2.27,1.95,2.67,1.33.4,2.07.45,3.3.46.52,0,.96,0,1.36,0-.27,1.06-.59,2.18-1,3.32-.9,2.51-1.91,5.37-2.79,7.45-.72,1.71-1.34,2.98-1.8,3.88-.33.67-1.03,1.86-1.38,2.75-.43,1.07-.13,2.07.77,2.56.86.47,2.37.2,3.24-.93.88-1.15,1.94-3.12,3.01-5.48,1.31-2.89,2.43-6.43,3.11-8.53.54-1.66,1.02-3.55,1.4-5.33,1.87-.24,3.22-.53,4.03-.85ZM74.1,535.47c.33,3.88-1.97,9.51-8.79,11.95-.58.17-1.96.58-2.79.33-.34-.1-.72-.31-.91-.64-.43-.75-.24-1.67.48-2.26.53-.44,1.24-.73,2.21-1.15,2.2-.94,2.93-1.71,3.85-2.86,1.25-1.56,1.65-3.3,1.57-4.88-.13-2.53-1.6-4.6-4.36-5.33-1.18,3.28-3.44,6.7-6.63,9.42.04.15.25.48.6.96.78,1.05,1.06,2.4.14,3.16-.79.64-1.87.34-2.74-.18-.48-.29-1.22-1.18-1.22-1.18-1.29,1.1-2.24,1.99-3.7,2.41-1.66.49-3.6.32-4.74-.44-.87-.58-1.93-1.48-1.9-4.19.05-4.04,2.85-8.3,7-10.81.49-.29,1.24-.77,1.79-1.06.05-.68.27-2.52.53-4.42-1.81-.03-3.85-.12-4.73-.33-.88-.22-1.65-.72-1.97-1.42-.28-.61-.12-1.61.4-2.05.71-.61,1.83-.5,2.69-.39.69.09,2.69.23,4.2.31.13-.78.25-1.5.36-2.11.26-1.49.99-2.84,2.51-2.59,1.55.25,1.62,1.74,1.42,2.82-.03.17-.18.87-.37,1.8,1.44-.14,2.97-.37,4.36-.71,1.06-.26,2.13-.26,2.8.35.69.62.5,1.64.19,2.15-.45.75-1.14,1.01-2.13,1.28-1.9.52-4.12.77-5.91.86-.15,1.13-.27,2.28-.36,3.34,1.46-.53,2.71-.73,3.92-.79h.35c.55-1.44,1.28-2.25,2.42-2.08,1.24.19,1.56,1.38,1.56,2.36,4.67.89,7.54,4.23,7.9,8.4ZM54.28,539.14c-.31-1.65-.55-3.84-.53-6.16-2.97,1.89-4.69,4.55-4.95,7.02-.06.59.14,1.2.64,1.48.64.35,1.3.21,1.87-.04,1.14-.5,2.05-1.27,2.96-2.3ZM61.37,530.26c-1.09,0-2.73.45-3.81,1-.13,1.76-.12,3.35.05,4.85,1.71-1.83,2.97-3.77,3.76-5.85ZM55.95,445.87c.03-.65.05-1.29.08-1.91.1-2.02-.86-3.2-2.31-3.18-1.54,0-2.15,1.44-2.24,3.13-.03.63-.07,1.26-.09,1.92-.05,1.28-.35,8.43-.42,9.6-.15,2.6-.3,4.9-.17,7.72.15,3.51,1.98,5.98,4.67,7.17,1.23.54,2.66.8,4.2.78,1.75-.02,3.7-.33,5.58-1,2.31-.82,4.52-1.78,6.12-3.49,1.42-1.52,1.6-2.96.71-3.91-.36-.38-1-.55-1.77-.38-.6.14-1.06.46-1.73.96-1.8,1.34-3.12,1.89-4.79,2.61-2.52,1.08-4.86,1.31-6.46.59-1.31-.59-2.29-1.83-2.38-3.57-.13-2.55.05-4.82.27-7.41.11-1.25.65-7.65.73-9.66ZM55.95,561.48c.03-.65.05-1.29.08-1.91.1-2.02-.86-3.2-2.31-3.18-1.54,0-2.15,1.44-2.24,3.13-.03.63-.07,1.26-.09,1.92-.05,1.28-.35,8.43-.42,9.6-.15,2.6-.3,4.9-.17,7.72.15,3.51,1.98,5.98,4.67,7.17,1.23.54,2.66.8,4.2.78,1.75-.02,3.7-.33,5.58-1,2.31-.82,4.52-1.78,6.12-3.49,1.42-1.52,1.6-2.96.71-3.91-.36-.38-1-.55-1.77-.38-.6.14-1.06.46-1.73.96-1.8,1.34-3.12,1.89-4.79,2.61-2.52,1.08-4.86,1.31-6.46.59-1.31-.59-2.29-1.83-2.38-3.57-.13-2.55.05-4.82.27-7.41.11-1.25.65-7.65.73-9.66ZM255.13,387.13c1.49.26,3.02.39,4.54.39,3.47-.03,5.96-.6,7.88-1.24,1.92-.64,4.22-1.63,3.31-3.89-.93-2.28-3.13-1.1-4.68-.7-1.01.27-4.64,1.44-8.18,1.26-3.34-.16-5.89-.94-7.73-2.73-1.35-1.31-2.79-2.81-4.65-1.45-1.61,1.38,1,4.2,1,4.2,1.39,1.81,4.58,3.45,8.52,4.15ZM250.52,366.98c.42-.1.97-.21,1.56-.34,3.76-.82,8.46-.79,11.97.12,2.61.67,3.99.3,4.44-1.26.21-.73-.22-1.77-1.01-2.29-.9-.6-1.61-1.06-5.62-1.37-3.54-.27-7.49-.04-9.67.28-1.1.16-2.31.44-2.98.7-1.51.6-2.14,1.4-1.86,2.72.2.97,1.59,1.81,3.16,1.44ZM255.13,426.02c1.49.26,3.02.39,4.54.39,3.47-.03,5.96-.6,7.88-1.24,1.92-.64,4.22-1.63,3.31-3.89-.93-2.28-3.13-1.1-4.68-.7-1.01.27-4.64,1.44-8.18,1.26-3.34-.16-5.89-.94-7.73-2.73-1.35-1.31-2.79-2.81-4.65-1.45-1.61,1.38,1,4.2,1,4.2,1.39,1.81,4.58,3.45,8.52,4.15ZM261.86,400.73c-3.54-.27-7.49-.04-9.67.28-1.1.16-2.31.44-2.98.7-1.51.6-2.14,1.4-1.86,2.72.2.97,1.59,1.81,3.16,1.44.42-.1.97-.21,1.56-.34,3.76-.82,8.46-.79,11.97.12,2.61.67,3.99.3,4.44-1.26.21-.73-.22-1.77-1.01-2.29-.9-.6-1.61-1.06-5.62-1.37ZM262.82,570.87c.04,1.2.05,2.32.05,3.4,0,.32.03.73.06,1.2.02.31.04.64.06.97,3.54,5.48-.58,14.56-5.41,17.39-1.2.7-2.95.77-3.56-.38-.56-1.06.63-2.49,1.34-3.05,1.69-1.33,2.91-3.14,3.94-5.3-1.38.56-2.88.58-4.2.06-1.43-.57-2.49-1.71-3.08-3.31-.82-2.19-.39-3.85.11-4.86.66-1.33,1.84-2.34,3.25-2.76,1.19-.36,2.31-.49,3.3-.39-.03-.74-.11-2.73-.11-2.73-2.52.24-5.4.6-8.61,1.08-1.84.27-3.79.75-5.42,1.01-1.37.22-2.93-.29-3.16-1.5-.42-2.23,2.19-2.58,2.78-2.68,1.43-.24,11.08-1.45,14.37-1.74,0,0-.04-2.81-.09-3.73-.07-1.23.08-2.85,2.09-2.97,1.49-.09,2.22,1.35,2.31,2.8.04.75.1,1.5.02,3.53,1.08-.07,7.15-.17,8.99-.07,2.36.13,3.76.94,3.69,2.4-.11,2.24-2.49,1.81-3.62,1.74-.92-.06-6.22-.23-9.09-.12ZM259.49,578.46c-.2-.23-.39-.45-.62-.64h0c-.29-.24-.76-.37-1.25-.37-.39,0-.79.08-1.13.23-.84.38-1.5,1.47-1.07,2.75.31.9,1.23,1.46,2.28,1.38.84-.08,1.81-.65,2-2.01.11-.76,0-1.07-.2-1.35ZM56.22,251.91c-25.63-25.54-40.64-58.06-42.88-93.79-.08-1.14-.08-2.87.35-3.79.38-.82,1.1-1.46,2.2-1.52,1.2-.06,2.37.74,2.7,2.36.2.96.22,1.42.27,2.04,2.06,34.5,16.82,65.88,41.55,90.52,26.74,26.64,62.28,41.23,100.1,41.23,37.81,0,73.36-14.58,100.1-41.23,24.73-24.64,39.56-56.61,41.62-91.11.05-.62.08-1.08.27-2.04.33-1.61,1.45-2.42,2.65-2.36,1.11.06,1.82.7,2.2,1.52.43.92.43,2.65.35,3.79-2.24,35.73-17.27,68.84-42.9,94.38-27.86,27.76-64.89,43.05-104.29,43.05-39.4,0-76.43-15.29-104.29-43.05ZM59.75,47.52C86.68,20.69,122.48,6,160.57,6s73.88,14.69,100.81,41.52c12.64,12.6,22.9,27.15,29.99,42.97.45,1.01,1.11,2.36,1.62,3.37.82,1.47,2.01,2.19,3.5,1.73,1.54-.55,1.95-2.51.86-5.3-.3-.82-.71-1.75-1.1-2.6-7.3-16.36-17.58-31.28-30.68-44.34C237.52,15.39,200.23,0,160.57,0S83.61,15.39,55.56,43.34c-14.32,14.27-25.34,30.93-32.71,49.09-.23.53-.73,1.9-1.17,3.16-.64,1.84-.49,3.82,1.31,4.37,2.13.66,3.39-1.56,3.48-1.93.85-1.78,1.64-3.78,2.87-6.57,7.12-16.2,17.51-31.09,30.41-43.94ZM149.07,123.06c1.65-3.32,1.23-7.07-.54-9.18-1.3-1.56-3.62-2.65-6.53-3.05-2.6-.36-5.96-.39-10.56-.04-4.98.38-15.13,1.59-17.52,3.13-.91.59-1.36,1.57-1,2.7.3.93,1.21,1.48,2.48,1.53.86.04,1.82-.04,2.51-.14,2.27-.32,7.81-1.23,12.88-1.6,2.91-.21,5.66-.24,7.53-.24,2.63,0,4.24.43,5.09,1.14.97.81.85,2.46,0,3.85-2.03,3.36-6.06,6.4-10.34,8.98-3.3,2-7.59,4.05-11.79,5.56-1.39.54-2.9,1.21-3.23,2.26-.32.99-.15,1.67.59,2.31.81.63,2.27.64,3.18.52,3.59-.49,10.07-3.23,15.57-6.48,4.71-2.79,9.21-6.29,11.67-11.24ZM95.58,114.68c-.41-1.51-1.39-2.7-2.92-3.55-2.66-1.47-7.04-1.95-14.21-1.43-4.56.33-13.82,1.7-16.01,3.26-.83.6-1.31,1.53-.97,2.65.27.86,1.21,1.5,2.37,1.55.79.03,1.61-.06,2.25-.16,2.08-.34,7.14-1.35,11.78-1.76,2.66-.23,5.18-.4,6.88-.34,1.98.07,3.46.28,4.17.93.78.73.74,2.03,0,3.27-2.58,4.39-9.12,8.06-11.17,9.34-3.26,2.05-9.77,5.12-15.01,6.99-1.3.46-2.55,1.05-2.97,2.03-.4.94-.11,1.93.68,2.48s2.11.56,2.92.42c3.28-.55,8.91-2.51,14.71-5.46,8.36-4.26,13.32-8.65,16.07-13.21.69-1.15,2.19-4.15,1.42-7.01ZM102.96,141.43c.96-.87.99-2.21.14-3.62-.88-1.45-3.72-3.57-5.59-4.73-2-1.25-4.2-2.07-5.64-2.51-1-.31-2.65-.81-3.81.4h0c-.39.41-.64.96-.58,1.55.09.85.69,1.43,1.92,2.12,1.23.69,2.65,1.6,3.74,2.38,1.75,1.26,2.91,2.23,3.87,3.05.96.82,2.36,2.05,3.92,2.05.6,0,1.47-.17,2.04-.68ZM158.07,116.06c.66-1.12.45-2.84-.58-4.73-.73-1.34-2.05-3.2-3.49-3.72-.92-.33-1.9-.05-2.25.14-.8.44-1.27,1.18-1.2,2,.06.74.7,1.84,1.19,2.7.19.33.36.62.46.84.27.55.51,1.16.72,1.69.14.36.27.68.39.93.39.86,1.24,1.39,2.21,1.39,1.27,0,2.2-.68,2.54-1.26ZM166.01,114.36c1.49-1.35.39-3.99-.55-5.49-1.08-1.72-2.16-2.73-3.31-3.2-.94-.38-1.81-.39-2.52.03-1,.58-1.06,1.59-.97,2.11.1.55.44,1.34.91,2.03.37.53.72,1.31.83,1.5.27.49.48.88.69,1.3.23.46.46.9.65,1.21.49.79,1.19,1.24,2.13,1.29.92.03,1.67-.36,2.15-.79ZM202.39,139.03c3.44-.89,8.28-2.84,11.49-4.34,3.98-1.86,5.66-2.9,8-4.66,1-.75,1.55-1.53,1.68-2.28.08-.5-.03-.93-.35-1.37h0c-1.22-1.59-3.41-.42-4.24-.03s-4.95,2.47-8.29,3.93c-2.65,1.15-7.92,3.03-11.28,3.68-1.38.27-2.44.2-2.98-.15-.88-.57-.95-1.66-.86-3.33.1-1.92,1.03-7.29,1.9-11.07.31-1.35.75-3.48.97-4.54.11-.56.17-1.32.09-1.88-.12-.83-.84-1.65-1.93-1.82-1.35-.21-2.26.47-2.82,1.33-.41.63-.72,1.35-1.11,2.61-1.54,4.86-2.98,11.84-3.35,15.09-.52,4.62.54,7.83,3.57,9.1.94.4,2.45.61,4.03.61,1.33,0,3.49-.35,5.5-.87ZM170.82,139.48c2.67-1.02,5.96-3.05,8.44-6.38,1.57-2.1,3.1-4.76,4.32-8,1.42-3.79,2.06-8.41,2.15-9.86.07-1.29.2-3.58-2.05-3.83-1.15-.13-1.98.34-2.59,1.18-.5.69-.74,1.34-.96,2.19-.23.91-.54,2.72-1.51,5.88-1.32,3.66-2.4,6.07-4.36,8.69-2.09,2.52-3.87,4.01-6.93,5.92-.79.51-1.37.92-1.77,1.45-.7.93-.31,2.02.41,2.68,1.21,1.1,3.69.53,4.85.08ZM26.05,138.59c2.87-.53,7.6-.99,9.93-.97,3.36.03,6.37.67,8.96,1.74,1.76.73,3.65.71,4.42-.39.53-.76.59-1.67-.03-2.57-.48-.69-1.29-1.4-2.52-2.06-1.84-.99-5.07-1.87-8.14-2.08-3.51-.24-6.05-.26-10.13.24-4.08.49-13.16,2.13-16.65,2.58-1.21.15-2.2.25-3.18.19-1.7-.11-2.5-1.36-1.91-3.01.27-.78.87-1.65,1.86-2.64,1.64-1.65,4.12-3.54,6.85-5.45,2.88-2.03,11.1-7.03,12.5-7.89,1.75-1.07,2.5-2.47,1.87-3.8-.59-1.26-2.4-1.86-5.1-.71-1.23.52-5.76,2.87-10.07,5.67-4.43,2.88-9.34,6.61-12.1,9.92-3.72,4.45-2.85,8.98-1.18,10.81,1.94,2.12,5.06,2.67,7.82,2.65,5.16.01,13.94-1.67,16.81-2.21ZM319.12,131.86c-.74-.7-1.88-1.32-3.16-1.82-1.96-.76-6.36-1.67-8.3-1.82-1.35-.1-3.19-.18-4.26.39-.43.22-.76.65-.86,1.06-.09.38-.2,1.02.35,1.7.29.36.87.57,1.27.71,1.18.4,4.08,1.12,5.3,1.49,2.95.91,4.16,1.24,6.3,2.12.43.18,1.15.38,2.13.27.81-.09,1.5-.62,1.75-1.04.62-1.02.46-2.14-.51-3.05ZM298.91,128.48s.06-.02.08-.03c6.1-2.79,10.48-5.34,13.16-8.17,1.7-1.79,2.31-3.87,1.78-5.88-.46-1.72-2.26-3.13-5.46-3.62-2.35-.35-5.7-.41-7.94-.39-.01-.38-.03-.93-.08-1.68-.07-1.15-.36-2.19-.99-2.82-.63-.63-1.71-.75-2.43-.64-1.11.17-1.81.97-1.96,1.92-.1.67-.19,2.39-.38,3.5-4.25.39-8.96,1.09-10.46,1.44-2.73.64-3.21,1.73-3.06,2.94.1.81.77,1.52,1.67,1.73.73.17,1.39.19,2.44.06,1.83-.23,6.57-.93,11.51-1.26,3.67-.25,7.08-.3,9.27-.12.44.04,1.48.19,1.73.87.2.54-.03,1.06-.74,1.68-2.52,2.09-6.56,4.22-12,6.46-4.6,1.89-8.63,3.14-12.07,4.08-1.53.42-3.14.79-4.39,1.18-1.41.43-2.21,1.53-1.85,2.77.24.82,1.05,1.48,2.23,1.53,1.75.08,4.65-.42,7.8-1.26,3.67-.98,7.34-2.35,8.56-2.82,0,0,.04-.02.05-.02-.02.03-.03.1-.02.13.13,1.76.12,4.53.1,5.41-.04,2.29-.44,3.85-.27,4.76.25,1.37,1.01,2.06,2.75,2.08,1.1,0,1.83-.37,2.25-.89.58-.72.76-2.14.8-3.21.07-1.98-.13-4.15-.4-5.57-.3-1.54-.8-3.26-1.58-4.11-.02-.02-.06-.05-.09-.05ZM266.27,112.29c.05-1.94-1.94-2.59-3.86-2.87-2.52-.37-6.68-.78-11.4-.8-4.04-.02-9.23.17-12.16.64-2.28.36-3.57,1.21-3.64,2.59-.04.87.32,1.55,1.12,2.02.82.48,2.3.43,3.8.3,2.72-.23,7.43-.43,10.97-.39,4.84.06,7.53.3,10.73.66,1.9.21,2.83,0,3.44-.38s.96-.98.98-1.76ZM264.05,124.46c.21-1.2-.45-1.98-1.29-2.45-1.06-.6-2.57-.82-5.34-1.04-1.9-.15-3.61-.26-5.78-.27-3.05-.02-7.92.1-10.5.46-2.47.35-3.6,1.45-3.55,2.82.08,1.94,2.09,2.31,3.51,2.21,2.28-.17,7.16-.35,10.4-.31,3.14.04,5.87.29,9.02.48,2.41.14,3.31-.68,3.52-1.89ZM232.77,138.88c.8.28,1.81.34,3.06.26,2.42-.15,7.54-.59,14.28-.51,6.71.09,10.48.36,13.85.67,1.34.12,2.99.32,4.02.08.87-.2,1.69-.69,1.84-1.8.15-1.15-.6-2.26-2.06-2.77-1.11-.39-2.83-.7-3.98-.84-2.92-.35-7.98-.76-13.29-.76-6.79-.01-11.04.34-14.35.7-1.37.15-2.54.37-3.35.83-1.04.59-1.52,1.34-1.47,2.41.04.9.68,1.47,1.45,1.74Z"/>
  </g>
</svg>