<?xml version="1.0" encoding="UTF-8"?>
<svg id="_レイヤー_2" data-name="レイヤー 2" xmlns="http://www.w3.org/2000/svg" viewBox="0 0 278 523.52">
  <g id="_レイヤー_1-2" data-name="レイヤー 1">
    <path d="M127.95,437.53c-1.5.45-4.11.76-6.75.76-2.46,0-4.96-.3-6.66-1.13-2.33-1.15-3.73-2.96-3.95-5.1-.26-2.59,1.27-5.41,4.22-7.69.11-.09.72-.57.93-.72-1.11-2.98-3.33-6.43-3.84-7.51-.51-1.07-.48-2.35.32-2.86.91-.58,2.13-.33,2.92.76,1.43,1.98,2.77,4.48,3.82,7.36,1.47-1.03,5.57-3.18,6.26-3.48,1.53-.67,2.78-.88,3.61.32.6.86.48,2.25-1.74,3.17l-1.36.69c-3.22,1.58-6.37,3.25-8.84,5.29-1.74,1.43-2.57,2.85-2.41,4.12.12.98.84,1.81,2.07,2.39,2.35,1.14,8.21.48,10.45-.36,1.68-.63,3.76-1.03,4.26.78.45,1.6-.93,2.51-3.29,3.23ZM232.77,437.53c2.35-.71,3.73-1.63,3.29-3.23-.5-1.8-2.58-1.41-4.26-.78-2.23.84-8.09,1.5-10.45.36-1.23-.58-1.95-1.41-2.07-2.39-.16-1.26.68-2.69,2.41-4.12,2.47-2.04,5.62-3.7,8.84-5.29l1.36-.69c2.21-.92,2.34-2.31,1.74-3.17-.83-1.19-2.08-.98-3.61-.32-.68.3-4.79,2.45-6.26,3.48-1.05-2.88-2.39-5.38-3.82-7.36-.79-1.09-2.01-1.34-2.92-.76-.8.51-.83,1.78-.32,2.86.51,1.07,2.73,4.53,3.84,7.51-.21.15-.82.64-.93.72-2.95,2.28-4.48,5.1-4.22,7.69.22,2.14,1.62,3.96,3.95,5.1,1.7.83,4.2,1.13,6.66,1.13,2.64,0,5.25-.3,6.75-.76ZM167.3,437.38c1.09.52,2.49.43,3.02-.45.29-.49.2-1.18-.12-1.66-.41-.61-.8-.97-1.52-1.35-4.28-2.26-7.65-4.9-10.41-8.04,2.87-.08,6.43-.2,7.26-.3,1.24-.16,2.67-.51,2.58-1.86-.05-.76-.44-1.19-1.06-1.42-.59-.22-2-.12-2.79-.07-1.45.09-4.97.2-7.59.25,0-.55.02-1.96.04-3.57,2.31-.06,5.52-.19,6.48-.31,1.24-.16,2.67-.51,2.58-1.86-.05-.76-.44-1.19-1.06-1.42-.59-.22-2-.12-2.79-.07-1.37.09-3.25.17-5.16.22.02-1.3.03-2.41.03-2.9,0-1.08-.09-3.03-1.84-3.03-1.21,0-2.02.74-1.96,3.04l.05,2.93c-1.88,0-3.73-.02-5.09-.07-.78-.03-2.2-.1-2.78.13-.62.24-1,.65-1.03,1.41-.06,1.35,1.37,1.65,2.61,1.78.94.1,4.05.16,6.35.18l.06,3.58c-2.63.01-6.18.01-7.64-.05-.78-.03-2.2-.1-2.78.13-.62.24-1,.65-1.03,1.41-.06,1.35,1.37,1.65,2.61,1.78.82.09,4.31.13,7.15.15-2.79,3.55-5.84,6.1-9.92,8.23-1.47.77-2.3,2.04-1.64,3.1.45.73,1.68.72,2.38.54,2.01-.53,7.61-4.28,10.86-8.69l-.1,8.44c0,1.03.18,2.8,1.89,2.8,1.86,0,1.94-1.87,1.94-2.84,0-2.03-.11-7.17-.13-8.58,4.1,4.78,9.08,7.73,10.57,8.44ZM57.57,430.89c-.61.01-1.02.33-1.36.91-.15.26-.31.69-.34,1.18-.18,3.2-1.84,3.65-6.09,3.65-3.21,0-4.76-.29-5.03-2.12-.25-1.72-.35-4.88-.34-8.77,0-.25,0-.52,0-.79.47-.22.94-.44,1.38-.64.3-.14.62-.29.94-.45-.02,2.31-.03,5.11-.05,6.24-.02,1.52,0,1.91.12,2.3.2.62.54.91,1.52.91.98,0,1.29-.54,1.45-.88.16-.34.24-.81.29-1.63,0,0,.13-5.27.17-8.73,1.38-.73,2.46-1.32,2.59-1.39.13-.06.21-.08.31-.08.4,0,.43.78.43,2.04,0,3.27-.23,5.21-.71,5.89-.15.2-.4.17-.56.17-.12,0-.19-.06-.47-.12-.28-.06-.62.03-.8.22-.24.25-.47.75-.42,1.43.05.68.34,1.72,1.86,1.78,3.88.16,4.51-3.14,4.51-10.64,0-1.54,0-4.44-2.79-4.44-.75,0-1.56.21-2.38.63,0,0-.64.33-1.57.81-.05-2.57-.19-5.46-.19-5.46-.09-.97-.54-1.62-1.65-1.54-1.06.08-1.74.59-1.73,1.86,0,.96.07,4.38.08,6.88-.84.41-1.65.79-2.34,1.09,0-1.86.01-3.71.02-4.92.01-1.17-.6-1.82-1.47-1.86-2.1-.12-1.93,3.08-1.99,4.19-.02.32-.06,2.09-.09,4.1-1.29.54-2.46,1.02-2.99,1.22-1,.36-1.77,1.27-1.28,2.46.22.54.76.79,1.52.79.71,0,1.16-.18,1.81-.37.29-.09.61-.2.94-.32,0,3.46.06,6.69.32,8.63.6,4.38,5.1,4.75,8.72,4.75,4.49,0,9.87-.32,9.59-6.63-.07-1.46-.56-2.35-1.93-2.33ZM26.98,437.26c.79-.15,3.54-1.21,5.92-2.26,2.17-.96,4.09-2.04,4.45-2.29.8-.56,1.37-1.44.93-2.37-.47-.98-1.66-.73-2.52-.29-.6.31-1.29.64-1.94.94l.07-7.11v-.1c.93-.08,1.73-.2,2.33-.33,1.38-.32,1.92-1.17,1.73-2.17-.15-.82-1.02-1.17-2.11-1.03-.48.06-1.18.16-1.94.23,0-.75,0-3.42-.04-5.08-.03-1.07-.09-2.21-.31-2.69-.25-.55-.74-1.03-1.4-1-.67.03-1.01.26-1.31.62-.37.44-.46,1.34-.48,1.9l-.05,6.35c-1.1-.03-2.37-.07-3.13-.05-1.23.03-1.77.75-1.83,1.45-.08.96.6,1.43,1.53,1.69.69.19,1.96.23,3.45.23h0s.07,8.59.07,8.59c-1.36.59-2.54,1.02-3.84,1.53-1.06.41-1.93,1.11-1.69,2.16.25,1.09,1.21,1.27,2.11,1.1ZM204.97,437.79c1.09.52,2.49.43,3.02-.45.29-.49.2-1.18-.12-1.66-.41-.61-.8-.97-1.52-1.35-3.95-2.09-7.38-4.37-10.07-7.17,2.84-.08,6.15-.19,6.93-.29,1.24-.16,2.67-.51,2.58-1.86-.05-.76-.44-1.19-1.06-1.42-.59-.22-2-.12-2.79-.07-1.45.09-5.14.2-7.83.25l-.02-1.6c0-.58.02-2.52.05-4.58,2.38-.06,5.74-.19,6.7-.31,1.24-.16,2.67-.51,2.58-1.86-.05-.76-.44-1.19-1.06-1.42-.59-.22-2-.12-2.79-.07-1.38.09-3.41.18-5.39.22.01-.98.02-1.77.02-2.16,0-1.08-.09-3.03-1.84-3.03-1.21,0-2.02.74-1.96,3.04l.04,2.19c-1.96,0-3.95-.02-5.32-.07-.78-.03-2.2-.1-2.78.13-.62.24-1,.65-1.03,1.41-.06,1.35,1.37,1.65,2.61,1.78.94.1,4.21.16,6.58.18l.08,4.55v1.63c-2.7.01-6.41.01-7.87-.05-.78-.03-2.2-.1-2.78.13-.62.24-1,.65-1.03,1.41-.06,1.35,1.37,1.65,2.61,1.78.77.08,4.02.13,6.84.15-2.68,3.15-5.82,5.36-9.61,7.35-1.47.77-2.3,2.04-1.64,3.1.45.73,1.68.72,2.38.54,2.01-.53,7.93-4.29,11.08-8.51l-.09,7.85c0,1.03.18,2.8,1.89,2.8,1.86,0,1.94-1.87,1.94-2.84,0-1.7-.08-5.8-.11-7.95,4.1,4.77,9.31,7.51,10.8,8.23ZM199.06,417.74c-1.08.11-1.39.92-1.88,1.96-.43.91-.9,1.29-1.27,2.22-.31.79.32,1.49,1.39,1.41.71-.05,1.33-.38,1.91-.85.91-.73,1.49-2.01,1.64-2.41.17-.47.12-1.23-.18-1.58-.41-.48-.99-.81-1.61-.75ZM185.18,422.25c.38.79,1.37,1.45,2.49,1.08.83-.28.89-.88.89-1.54,0-.74-.26-1.44-.87-2.16-.8-.96-1.66-1.49-2.36-1.72-.34-.11-.89-.18-1.33.18-.48.39-.45.81-.38,1.22.09.48.32.87.9,1.57.23.28.32.65.66,1.36ZM95.46,414.84c.42.44.94.65,1.39.65.47,0,.94-.28,1.1-.51.35-.5.33-1.03.09-1.62-.46-1.11-2.7-2.28-3.67-2.45-.43-.07-1.12-.07-1.52.51-.25.36-.19,1.01.2,1.48.4.48,1.76,1.26,2.41,1.94ZM76.8,433.59c-.23.27-.48.88-.2,1.58.29.72.83,1.05,1.76,1.05.93,0,3.94-.49,8.29-2.69.77-.45,1.33-1.1.86-2.09-.56-1.17-1.8-.76-1.98-.68-2.73,1.17-3.96,1.47-7.45,2.19-.35.07-.96.27-1.29.64ZM98.87,432.15c-1.3-.33-1.72.55-2.16,1.81-.76,2.22-1.09,2.52-1.27,2.54-.49.08-1.58-.43-2.35-3.08,2.31-3.12,3.8-6.83,4.33-8.47.3-.94.32-2.37-.7-2.7-1.62-.52-2.22,1.01-2.58,2.07-.37,1.08-.84,2.27-1.36,3.4-.19.4-.41.82-.65,1.23h0c-.38-2.48-.63-5.47-.77-9.35v-.12c2.18-.14,4.37-.32,4.37-.32,1.15-.13,1.95-.6,1.86-1.64-.06-.66-.38-1.07-.71-1.25-.39-.22-1.19-.29-2.05-.21,0,0-1.59.11-3.52.22,0-.77.11-1.49.12-2.67.01-1.23-.09-2.79-1.83-2.82-1.77.02-1.84,1.79-1.83,2.79,0,0,0,2.19.02,2.82v.02c-2.7.04-6.3-.02-7.12-.04-1.23-.05-2.25.18-2.22,1.71.01.69.71,1.32,1.98,1.45,0,0,4.46.13,7.5.1.28,5.39.78,9.64,1.52,12.99-.59.68-1.12,1.21-1.43,1.48-1.4,1.19-3.03,2.33-4.4,2.84-1.73.65-2.66,1.29-2.14,2.56.35.87,1.63,1.04,2.53.78,1.85-.53,4.01-1.55,6.53-3.97,1.47,3.68,3.32,3.83,4.81,3.77,3.45-.13,4.32-4.26,4.51-5.72.12-.92-.05-2-.96-2.23ZM78.85,427.88c-.05-.58-.07-1.31-.08-2.08-.02-1.04-.02-1.78-.02-2.57,0-.87.19-1.41.59-1.74.62-.52,1.76-.54,3.55-.58,2.57-.06,3.9.08,4.03,2.11,0,0,.12,2.1.14,3.11.07,3.17.21,3.87-4.1,3.96-2.58.06-3.93.09-4.1-2.21ZM81.6,425.4c.02.69.08,1.29.12,1.49.03.18.06.41,1.18.39,1.27-.03,1.32-.03,1.28-1.8-.01-.62-.04-.94-.08-1.51,0-.25-.09-.51-1.26-.48-.64-.01-1.14.07-1.18.39-.02.18-.07.93-.05,1.53ZM75.94,428.2c-.6.31-.86.46-1.51.75l.07-4.72v-2.03c.72-.08,1.29-.19,1.85-.32,1.38-.32,1.92-1.17,1.73-2.17-.15-.82-1.02-1.17-2.11-1.03-.43.06-.91.14-1.46.21,0-1.03-.01-2.24-.03-3.15-.03-1.07-.09-2.21-.31-2.69-.25-.55-.74-1.03-1.4-1-.67.03-1.01.26-1.31.62-.37.44-.46,1.34-.48,1.9l-.03,4.43c-.92-.03-1.94-.07-2.67-.05-1.23.03-1.77.75-1.83,1.45-.08.96.5,1.21,1.4,1.56.63.24,1.72.33,3.09.35v1.93s.08,6.2.08,6.2c-1.36.59-2.01.85-3.32,1.36-1.06.41-1.93,1.11-1.69,2.16.25,1.09,1.21,1.27,2.11,1.1.79-.15,3.02-1.03,5.4-2.08,2.17-.96,3.66-1.85,4.02-2.1.8-.56,1.37-1.44.93-2.37-.47-.98-1.66-.73-2.52-.29ZM136.11,346.47c.57.14,1.14.04,1.7-.32,1.72-1.11,4.21-2.64,6.04-3.12,4.05-1.1,6.14.26,6.7,1.43.29.62.3,1.33.02,2.06-.33.86-1.88,2.75-3.89,3.8-1.66.87-3.51,1.25-4.36,1.41l-.62.11c-.79.14-1.27.17-1.73.31-.74.22-1.6.8-1.39,1.96.21,1.16,1.53,1.24,2.49,1.26.64.01,1.7-.07,2.48-.2,2.4-.41,3.64-.86,5.52-1.86,4.94-2.64,6.24-6.71,5.22-9.75-.95-2.84-4.42-5.63-11.7-3.89-1.9.51-3.34,1.28-4.32,2.14-.11.11-.18.11-.27.12-.07,0-.12-.03-.15-.1-.21-.6-.16-1.31.03-2.86.08-.61.18-1.28.28-1.95.17-1.14.35-2.32.42-3.23.11-1.31-.41-2.51-1.54-2.6-1.12-.09-1.81,1.05-2.08,2.21-.31,1.34-.82,4.99-.9,7.1-.1,2.61.05,3.71.68,4.91.21.39.73.89,1.38,1.06ZM143.95,331.23c.36.18,1.01.41,1.21.53-.05.05-.26.2-.54.36-.34.2-2.52,1.08-1.78,2.26.44.71,2.37.58,2.71.53.63-.1,1.47-.31,1.96-.5,2.02-.81,3-1.55,2.93-2.52-.06-.9-1.2-1.55-2.2-2.13-.24-.14-.47-.27-.67-.4-.46-.29-1.61-1.06-2.65-1.95-.62-.53-2.09-1.1-3.02-.16-1.02,1.03-.18,2.13.43,2.74.08.08.89.88,1.6,1.24ZM212.47,355.24c-1.05.61-2.57.67-3.1-.33-.49-.92.55-2.17,1.17-2.66,1.47-1.15,2.54-2.74,3.43-4.62-1.2.49-2.51.51-3.66.05-1.24-.49-2.17-1.49-2.68-2.89-.71-1.91-.34-3.36.09-4.23.57-1.16,1.61-2.04,2.83-2.41,1.03-.31,2.01-.43,2.88-.34-.03-.64-.09-2.38-.09-2.38-2.2.21-4.71.52-7.5.94-1.6.24-3.3.65-4.72.88-1.2.2-2.56-.25-2.76-1.31-.37-1.94,1.91-2.25,2.42-2.34,1.25-.21,9.65-1.26,12.52-1.52,0,0-.04-2.45-.08-3.25-.06-1.07.07-2.48,1.82-2.59,1.3-.08,1.93,1.18,2.01,2.44.04.65.09,1.31.02,3.08.95-.06,6.23-.15,7.83-.06,2.06.11,3.28.82,3.21,2.09-.1,1.95-2.17,1.58-3.15,1.52-.8-.05-5.42-.2-7.92-.1.03,1.05.04,2.02.04,2.97,0,.28.02.63.05,1.05.02.27.04.55.05.85,3.08,4.77-.51,12.69-4.71,15.16ZM214.14,341.84c-.17-.2-.34-.39-.54-.55h0c-.25-.21-.66-.32-1.09-.32-.34,0-.69.07-.99.2-.73.33-1.31,1.28-.94,2.4.27.79,1.07,1.27,1.99,1.2.73-.07,1.57-.56,1.75-1.75.1-.66,0-.93-.18-1.17ZM260.55,334.37c-.61-.69-1.49-1.5-2.29-1.9-.52-.27-1.59-.72-2.33-.11-.74.61-.42,1.66.07,2.06.72.58,1.7,1.42,2.18,2.1.55.79,1.67,1.25,2.65.39.8-.7.17-2.04-.28-2.54ZM232.83,351.75c1.34-.86,3-3.02,3.9-5.39.35-.93.26-2.04-.55-2.49-.79-.44-1.85-.48-2.62.78-.85,1.4-2.75,3.61-3.75,4.57-.82.78-.59,2.01.12,2.58,1.03.83,2.37.3,2.91-.05ZM244.12,329.29c-1.02-.73-2.16-.87-2.79-.22-.49.51-.62,1.46.03,2.3.28.36.5.53.94.9.62.54,1.33,1.14,1.79,1.88.16.23.15.34.13.41-.04.14-.26.25-.6.49-.88.62-1.26,1.5-.83,2.25.26.45,1.35.57,1.85.51s1.34-.25,2.11-.56c2.1-.84,2.28-1.78,2.27-2.4-.08-1.9-3.61-4.62-4.9-5.55ZM253.27,343.52c-.79-.42-1.81-.66-2.54.13-.62.66-.4,1.69.44,2.52.95.93,2.23,2.16,2.95,3.79.56,1.25,1.83,1.92,2.98,1.54,1.15-.38,1.51-1.63,1.06-2.84-.72-1.96-2.99-4.13-4.9-5.13ZM254.12,339.45c.55.79,1.67,1.25,2.65.39.8-.7.17-2.04-.28-2.54-.61-.69-1.46-1.47-2.29-1.9-.52-.27-1.59-.72-2.33-.11-.74.61-.37,1.6.07,2.06.57.59,1.7,1.42,2.18,2.1ZM243.21,339.83c-.96-.7-1.95-.84-2.65-.27-.66.54-.73,1.9.11,2.77.28.29.26.27.75.74.89.86,1.99,1.92,2.6,2.76,1.04,1.42,1.24,3.08.5,4.04-.83,1.08-2.55,1.14-5.04.16-.41-.17-2.15-1.07-2.88.57-.47,1.05.34,2,1.29,2.46h0c1.7.81,3.29,1.16,4.71,1.16,2.32,0,4.16-.93,5.21-2.22,1.71-2.1,1.49-5.11-.58-7.84-1.02-1.37-3.08-3.66-4.01-4.33ZM98.04,339.97c1.32-.01,3.39-.19,4.15-.31-1.71,4.75-2.81,7.34-5.09,10.16-.54.66-2.12,2.88-.44,3.96l.11.06c.85.47,2.25.06,3.2-1.16,3.01-3.84,4.78-7.93,6.41-13.58.64-.07,1.96-.14,2.39-.17.79-.07,1.46.14,1.94.58.55.5.84,1.69.84,2.72,0,1.79-.3,4.76-1.16,6.54-.91,1.86-1.58,2.9-3.87,2.35-1.3-.3-2.61-.2-3.1,1.2-.21.6.22,1.7,2,2.14.71.18,1.39.29,2.08.29,2.92,0,5.42-1.68,6.68-4.63,1.04-2.46,1.34-6.23,1.27-8.49-.07-1.83-.71-3.72-1.84-4.73-1.13-1.01-2.71-1.49-4.45-1.34l-1.78.09c.39-1.51.85-3.22,1.02-4.45.12-.87.4-2.71-1.33-3.07-1.07-.22-1.75.31-2.13.97-.24.42-.45,1.02-.58,1.77-.13.75-.57,3.12-1.14,5.16l-1.7.17c-.61.05-2.91.23-4.29.3-1.93.06-2.52.97-2.38,2.09.13,1.06,1.43,1.38,3.2,1.36ZM117.02,334.16c2.33,1.79,3.69,3.15,4.67,5.07.36.7,1.01,1.51,1.27,1.71.62.48,1.58.48,2.03.26.99-.49,1.24-1.9.72-3.22-.96-2.49-3.48-4.98-6.33-6.58-1.07-.6-2.29-.95-3.05.12-.72,1.01-.03,2.07.69,2.63ZM70.04,353.74c1.31.23,2.67.34,4.02.34,3.07-.03,5.27-.53,6.97-1.1,1.7-.57,3.73-1.44,2.93-3.44-.82-2.02-2.77-.98-4.14-.62-.9.24-4.11,1.27-7.23,1.12-2.95-.14-5.21-.83-6.84-2.41-1.19-1.16-2.47-2.48-4.12-1.28-1.42,1.22.88,3.72.88,3.72,1.23,1.6,4.05,3.05,7.53,3.67ZM65.95,335.91c.37-.09.86-.18,1.38-.3,3.32-.72,7.48-.7,10.59.11,2.31.6,3.53.27,3.93-1.12.18-.64-.19-1.56-.89-2.02-.8-.53-1.42-.94-4.97-1.21-3.13-.24-6.63-.03-8.55.25-.97.14-2.05.39-2.63.62-1.34.53-1.89,1.24-1.64,2.4.18.85,1.41,1.6,2.79,1.27ZM184.07,337.17c.75.21,1.63.54,2.37,1,.74.46,1.38,1.01,1.77,1.5.55.7,1.95,1.68,3.01.95,1.28-.88.73-2.45.31-2.96-1.71-2.07-3.82-3.23-6.29-3.61-1.13-.1-2.16-.13-2.6,1.01-.27.69.17,1.74,1.43,2.1ZM164.9,333.65c.41-1.11,1.84-1.19,2.89-.98,1.18.19,2.26.16,3.2.06.06-1.49.05-2.84.02-3.69-.04-1.01.53-2,1.64-2.13,1.45-.17,1.97.87,2.18,1.98.05.26.16,1.7.08,2.84,0-.04,0,.09-.01.34.78-.19,1.55-.4,2.08-.59.83-.29,2.13-.57,2.57.64.49,1.35-.67,2.17-1.45,2.59-.7.37-1.9.85-3.51,1.16-.17,1.82-.38,3.76-.58,4.78.53.9.35,1.97-.03,3.18-.25.78-.62,1.79-1.02,2.76-.15.37-.32.73-.44,1.08-.61,1.84.48,3.1,1.46,3.77,1.09.74,2.76.83,4.32.74,1.21-.07,2.99-.34,4.19-1.24.97-.73,1.81-1.65,1.46-3.62-.13-.7-.4-1.59-.22-2.32.18-.75.57-1.1,1.18-1.27,1.17-.34,2.16.81,2.58,2.28,1.13,3.95-.2,7.5-5.17,8.98-1.16.35-2.9.56-4.71.56-2.25,0-4.45-.33-5.87-1.27-2.16-1.43-3.7-3.5-2.98-6.62-1.15-.12-2.18-.73-2.79-1.65-1.21-1.81-1.28-3.64-.43-5.38.76-1.55,2.51-2.39,4.25-2.26,0,0,.23.02.43.06.15-.43.31-1.17.46-2.11-.34.01-.71.02-1.15.03-1.02.02-1.82-.11-2.92-.43-1.15-.34-2.12-1.14-1.7-2.28ZM170.57,341.91c-.23-.43-.54-.58-1.15-.58s-.94.21-1.22.6c-.37.51-.43,1.24-.16,1.87.16.36.66.84,1.2.84h.03c.49-.02,1.01-.45,1.3-1.24.06-.19.12-.36.15-.56.01-.1.06-.55-.15-.93ZM150.86,507.42c.68,2.77.16,5.87-1.44,8.5-1.41,2.31-3.78,4.26-6.86,5.39-.93.34-2.14.47-2.91.33-.56-.1-1.19-.47-1.4-.93-.27-.59-.11-1.2.2-1.57.41-.5.89-.78,2.02-1.16,2.68-.89,4.53-2.07,5.59-3.74,2.38-3.76,1.58-8.25-1.87-10.45-1.17-.75-2.3-1.18-3.75-1.32.18.43.16.87.12,1.44-.29,4.39-2.85,10.9-6.26,13.68-1.19.97-3.29,1.89-5.24,1.35-1.42-.39-2.48-1.14-3.16-2.79-1.83-4.49.33-10.82,5.14-14.16,4.44-3.07,10.8-3.41,15.12-.8,2.44,1.46,4.07,3.62,4.71,6.24ZM137.11,502.63c-1.49.36-3.07,1.07-4.31,2.01-3.21,2.49-4.8,6.86-3.75,9.57.22.57.63,1.1,1.45,1.11.62.01,1.13-.28,1.45-.53,2.15-1.65,4.58-8.4,4.86-11.04.08-.71.29-1.13.29-1.13ZM46.09,505.23c-2.64-.33-5.42.02-8.25,1.53-.78.41-1.41.78-2.39,1.48,0-.02,0-.03,0-.05.23-.45,1.15-1.69,1.6-2.29.85-1.13,1.48-2.43.97-3.34-.39-.71-1.18-.96-2.04-.61h-.02c.17-1.99.31-3.45.33-3.76.06-.93-.08-1.62-.53-1.98-.57-.46-1.27-.54-1.92-.23-.7.35-1.01,1.34-1.07,2.07-.13,1.38-.17,2.93-.38,5.19-.99.37-1.3.47-2.49.76-.57.14-1.44.24-2.35.32-.84.07-1.46.7-1.45,1.75,0,.87.56,1.48,1.14,1.67.74.23,1.7.15,2.56-.02.91-.17,2.09-.48,2.17-.48l-.06.48c-1.01,1.62-2.29,4.03-3.3,5.41-.62.85-1.89,2.42-2.64,3.34-.63.77-.69,1.97.07,2.52,1.27.93,2.7.18,3.37-.51.67-.68,1.37-1.52,2.05-2.31l-.03.48c-.13,1.93-.1,2.67-.03,3.82.05.72.36,2.88,2.05,2.73.96-.08,1.28-.63,1.46-1.05.33-.77.11-2.4.06-4.65-.03-1.6.07-3.32.17-4.92,1.33-1.08,2.73-2.09,3.92-2.72,3.62-1.91,6.52-1.59,8.17-.7,2.32,1.25,2.07,4.43,1.51,5.69-.39.88-1.12,1.95-1.92,2.57-.99.78-1.72,1.24-3.28,1.88-1.56.64-2.11,1.54-1.47,2.61.37.63,1.41.72,2.69.39,1.86-.47,3.74-1.42,5.19-2.69,1.52-1.33,3.03-3.66,2.96-7.1-.03-1.54-.5-3.17-1.47-4.5-1.14-1.56-2.99-2.51-5.34-2.81ZM84.73,518.26c-2.4.43-5.57.62-7.56-.66-1.15-.74-2.21-1-2.82-.48-.76.64-.47,1.9.37,2.83,1.05,1.17,3.63,2.4,7.47,2.4.99,0,1.88,0,3.01-.32,1.35-.38,1.93-1.31,1.8-2.23-.12-.85-.82-1.81-2.28-1.55ZM75.09,508.32c.35,1.01,1.55.96,2.68.74,1.01-.19,3.61-.35,5.58.03.22.04.87.22,1.31.22.75,0,1.66-.3,1.84-1.14.22-1.01-.35-2.03-1.76-2.46-1.29-.39-2.4-.42-3.62-.38-2.16.07-3.56.36-4.32.7-.98.43-2.07,1.21-1.7,2.29ZM75.36,504.16c.9-.36,2.05-1.32,1.52-2.73-.38-1.02-1.71-1.07-2.74-.71-.48.17-1.06.3-1.65.41.11-.87.28-1.94.15-3.11-.12-1.1-1.05-2.03-2.22-1.88-.78.1-1.52.85-1.52,2,0,.96-.14,2.25-.34,3.54-1.01.07-2.22.07-3.57-.15-1.05-.21-2.48-.2-2.89.92-.42,1.14.56,1.98,1.7,2.33,1.16.35,1.8.39,2.88.4.46,0,.84,0,1.19,0-.23.92-.52,1.9-.87,2.89-.79,2.18-1.67,4.68-2.43,6.49-.63,1.49-1.17,2.6-1.57,3.38-.29.58-.9,1.62-1.21,2.39-.37.93-.11,1.8.68,2.23.75.41,2.07.18,2.82-.81.77-1,1.69-2.72,2.63-4.78,1.14-2.52,2.12-5.61,2.71-7.43.47-1.45.89-3.1,1.22-4.65,1.63-.21,2.81-.46,3.51-.74ZM243.61,518.26c-2.4.43-5.57.62-7.56-.66-1.15-.74-2.21-1-2.82-.48-.76.64-.47,1.9.37,2.83,1.05,1.17,3.63,2.4,7.47,2.4.99,0,1.88,0,3.01-.32,1.35-.38,1.93-1.31,1.8-2.23-.12-.85-.82-1.81-2.28-1.55ZM233.97,508.32c.35,1.01,1.55.96,2.68.74,1.01-.19,3.61-.35,5.58.03.22.04.87.22,1.31.22.75,0,1.66-.3,1.84-1.14.22-1.01-.35-2.03-1.76-2.46-1.29-.39-2.4-.42-3.62-.38-2.16.07-3.56.36-4.32.7-.98.43-2.07,1.21-1.7,2.29ZM234.24,504.16c.9-.36,2.05-1.32,1.52-2.73-.38-1.02-1.71-1.07-2.74-.71-.48.17-1.06.3-1.65.41.11-.87.28-1.94.15-3.11-.12-1.1-1.05-2.03-2.22-1.88-.78.1-1.52.85-1.52,2,0,.96-.14,2.25-.34,3.54-1.01.07-2.22.07-3.57-.15-1.05-.21-2.48-.2-2.89.92-.42,1.14.56,1.98,1.7,2.33,1.16.35,1.8.39,2.88.4.46,0,.84,0,1.19,0-.23.92-.52,1.9-.87,2.89-.79,2.18-1.67,4.68-2.43,6.49-.63,1.49-1.17,2.6-1.57,3.38-.29.58-.9,1.62-1.21,2.39-.37.93-.11,1.8.68,2.23.75.41,2.07.18,2.82-.81.77-1,1.69-2.72,2.63-4.78,1.14-2.52,2.12-5.61,2.71-7.43.47-1.45.89-3.1,1.22-4.65,1.63-.21,2.81-.46,3.51-.74ZM184.33,512.75c.29,3.38-1.72,8.29-7.66,10.41-.5.15-1.71.51-2.43.29-.29-.09-.63-.27-.79-.56-.38-.66-.21-1.46.42-1.97.46-.38,1.08-.64,1.92-1,1.91-.82,2.55-1.49,3.36-2.5,1.09-1.36,1.44-2.88,1.37-4.25-.11-2.21-1.39-4.01-3.8-4.64-1.03,2.86-3,5.84-5.78,8.21.04.13.21.42.52.83.68.91.93,2.09.12,2.75-.68.56-1.63.29-2.39-.16-.42-.25-1.06-1.03-1.06-1.03-1.12.96-1.96,1.73-3.22,2.1-1.45.42-3.14.28-4.13-.38-.76-.51-1.68-1.29-1.65-3.65.05-3.52,2.48-7.24,6.1-9.42.42-.26,1.08-.67,1.56-.93.05-.59.24-2.19.47-3.85-1.58-.03-3.36-.1-4.12-.29-.77-.19-1.44-.63-1.71-1.23-.24-.53-.11-1.4.35-1.79.62-.53,1.6-.44,2.34-.34.6.08,2.35.2,3.66.27.11-.68.22-1.31.31-1.84.23-1.3.86-2.47,2.19-2.26,1.35.22,1.41,1.52,1.24,2.45-.03.15-.16.76-.32,1.56,1.26-.12,2.59-.32,3.8-.62.93-.22,1.86-.22,2.44.3.6.54.43,1.43.17,1.88-.39.65-.99.88-1.86,1.11-1.65.45-3.59.67-5.15.75-.13.99-.24,1.99-.31,2.91,1.27-.46,2.36-.63,3.42-.69h.3c.48-1.26,1.11-1.96,2.11-1.81,1.08.16,1.36,1.2,1.36,2.06,4.07.78,6.57,3.69,6.88,7.32ZM167.06,515.94c-.27-1.44-.48-3.35-.46-5.37-2.59,1.65-4.08,3.97-4.31,6.12-.05.51.12,1.05.56,1.29.56.31,1.13.18,1.63-.04.99-.44,1.78-1.11,2.58-2ZM173.24,508.21c-.95,0-2.37.39-3.32.87-.12,1.53-.1,2.92.04,4.23,1.49-1.6,2.59-3.28,3.27-5.1ZM115.05,515.46c-.53.12-.92.4-1.51.84-1.57,1.17-2.72,1.65-4.18,2.27-2.2.94-4.24,1.14-5.63.52-1.14-.51-2-1.59-2.07-3.11-.11-2.22.05-4.2.24-6.46.09-1.09.57-6.67.64-8.41.02-.57.04-1.13.07-1.66.09-1.76-.75-2.78-2.01-2.77-1.34,0-1.87,1.26-1.95,2.73-.03.55-.06,1.1-.08,1.67-.04,1.11-.3,7.34-.36,8.37-.13,2.27-.26,4.27-.14,6.73.13,3.05,1.73,5.21,4.06,6.25,1.07.47,2.32.69,3.66.68,1.53-.02,3.22-.28,4.86-.87,2.01-.72,3.94-1.55,5.33-3.04,1.24-1.32,1.4-2.58.62-3.4-.31-.33-.87-.48-1.55-.33ZM211.35,515.48c-.53.12-.92.4-1.51.84-1.57,1.17-2.72,1.65-4.18,2.27-2.2.94-4.24,1.14-5.63.52-1.14-.51-2-1.59-2.07-3.11-.11-2.22.05-4.2.24-6.46.09-1.09.57-6.67.64-8.41.02-.57.04-1.13.07-1.66.09-1.76-.75-2.78-2.01-2.77-1.34,0-1.87,1.26-1.95,2.73-.03.55-.06,1.1-.08,1.67-.04,1.11-.3,7.34-.36,8.37-.13,2.27-.26,4.27-.14,6.73.13,3.05,1.73,5.21,4.07,6.25,1.07.47,2.32.69,3.66.68,1.53-.02,3.22-.28,4.86-.87,2.01-.72,3.94-1.55,5.33-3.04,1.24-1.32,1.4-2.58.62-3.4-.31-.33-.87-.48-1.55-.33ZM35.64,353.74c1.31.23,2.67.34,4.02.34,3.07-.03,5.27-.53,6.97-1.1,1.7-.57,3.73-1.44,2.93-3.44-.82-2.02-2.77-.98-4.14-.62-.9.24-4.11,1.27-7.23,1.12-2.95-.14-5.21-.83-6.84-2.41-1.19-1.16-2.47-2.48-4.12-1.28-1.42,1.22.88,3.72.88,3.72,1.23,1.6,4.05,3.05,7.53,3.67ZM31.55,335.91c.37-.09.86-.18,1.38-.3,3.32-.72,7.48-.7,10.59.11,2.31.6,3.53.27,3.93-1.12.18-.64-.19-1.56-.89-2.02-.8-.53-1.42-.94-4.97-1.21-3.13-.24-6.63-.03-8.55.25-.97.14-2.05.39-2.63.62-1.34.53-1.89,1.24-1.64,2.4.18.85,1.41,1.6,2.79,1.27ZM48.84,218.85c-22.27-22.19-35.31-50.44-37.25-81.48-.07-.99-.07-2.49.3-3.29.33-.71.95-1.27,1.91-1.32,1.04-.05,2.06.65,2.35,2.05.17.83.19,1.23.24,1.77,1.79,29.97,14.61,57.24,36.09,78.64,23.23,23.15,54.11,35.82,86.96,35.82,32.85,0,63.73-12.67,86.96-35.82,21.48-21.41,34.37-49.18,36.16-79.15.05-.54.07-.94.24-1.77.29-1.4,1.26-2.1,2.3-2.05.96.05,1.58.61,1.91,1.32.37.8.38,2.3.3,3.29-1.95,31.04-15,59.81-37.27,81.99-24.2,24.12-56.38,37.4-90.6,37.4-34.23,0-66.4-13.28-90.6-37.4ZM51.91,41.29C75.3,17.97,106.41,5.21,139.49,5.21s64.19,12.76,87.58,36.07c10.98,10.94,19.9,23.59,26.05,37.33.39.88.96,2.05,1.41,2.93.71,1.28,1.74,1.9,3.04,1.5,1.34-.48,1.69-2.18.75-4.61-.26-.71-.62-1.52-.95-2.26-6.34-14.21-15.27-27.18-26.65-38.52C206.35,13.37,173.95,0,139.49,0S72.63,13.37,48.27,37.65c-12.44,12.39-22.01,26.87-28.42,42.65-.2.46-.63,1.65-1.01,2.75-.55,1.6-.43,3.32,1.13,3.8,1.85.57,2.94-1.36,3.02-1.68.74-1.54,1.43-3.28,2.5-5.71,6.19-14.07,15.21-27.01,26.42-38.18ZM129.51,106.91c1.43-2.88,1.06-6.14-.47-7.98-1.13-1.35-3.14-2.3-5.67-2.65-2.26-.31-5.18-.34-9.17-.04-4.32.33-13.14,1.38-15.22,2.72-.79.51-1.18,1.36-.87,2.35.26.8,1.05,1.28,2.16,1.33.75.04,1.58-.03,2.18-.12,1.97-.28,6.79-1.07,11.19-1.39,2.53-.18,4.92-.21,6.54-.21,2.29,0,3.68.38,4.42.99.84.7.74,2.14,0,3.34-1.76,2.92-5.27,5.56-8.98,7.81-2.87,1.73-6.6,3.52-10.24,4.83-1.21.47-2.52,1.05-2.81,1.96-.27.86-.13,1.45.51,2.01.71.55,1.97.56,2.76.45,3.12-.43,8.75-2.8,13.52-5.63,4.09-2.42,8-5.46,10.14-9.77ZM83.04,99.63c-.35-1.31-1.21-2.35-2.54-3.08-2.31-1.28-6.12-1.69-12.34-1.24-3.96.29-12.01,1.48-13.91,2.83-.73.52-1.14,1.33-.84,2.31.23.75,1.05,1.3,2.06,1.35.69.03,1.4-.05,1.95-.14,1.8-.3,6.21-1.18,10.23-1.53,2.31-.2,4.5-.35,5.98-.3,1.72.06,3.01.24,3.62.81.68.63.64,1.76,0,2.84-2.24,3.81-7.93,7-9.7,8.12-2.83,1.78-8.48,4.45-13.04,6.07-1.13.4-2.22.91-2.58,1.76-.35.82-.09,1.68.59,2.15s1.83.49,2.54.37c2.85-.48,7.74-2.18,12.78-4.75,7.26-3.7,11.57-7.51,13.96-11.48.6-1,1.9-3.6,1.23-6.09ZM89.44,122.87c.84-.76.86-1.92.12-3.14-.76-1.26-3.23-3.1-4.85-4.11-1.74-1.09-3.65-1.8-4.9-2.18-.87-.27-2.31-.7-3.31.35h0c-.34.35-.55.84-.5,1.34.08.74.6,1.24,1.67,1.84s2.3,1.39,3.25,2.07c1.52,1.1,2.53,1.94,3.36,2.65s2.05,1.78,3.4,1.78c.52,0,1.28-.14,1.77-.59ZM137.32,100.83c.58-.97.39-2.47-.5-4.11-.64-1.17-1.78-2.78-3.03-3.23-.8-.29-1.65-.04-1.95.12-.7.38-1.11,1.02-1.04,1.74.06.64.61,1.6,1.04,2.34.16.28.31.54.4.73.23.48.44,1.01.63,1.47.12.31.24.59.34.81.34.75,1.07,1.21,1.92,1.21,1.1,0,1.91-.59,2.21-1.09ZM144.22,99.35c1.29-1.18.34-3.46-.48-4.77-.94-1.5-1.88-2.37-2.87-2.78-.81-.33-1.57-.34-2.19.03-.87.5-.93,1.38-.84,1.83.09.48.38,1.16.79,1.76.32.46.63,1.14.72,1.31.24.43.41.77.6,1.13.2.4.4.78.57,1.05.43.69,1.04,1.08,1.85,1.12.8.03,1.45-.31,1.86-.69ZM175.82,120.78c2.99-.77,7.2-2.46,9.98-3.77,3.46-1.62,4.91-2.52,6.95-4.05.87-.65,1.35-1.33,1.46-1.98.07-.43-.03-.81-.3-1.19h0c-1.06-1.38-2.96-.36-3.69-.02-.76.36-4.3,2.15-7.2,3.41-2.3,1-6.88,2.63-9.8,3.2-1.2.23-2.12.18-2.59-.13-.76-.49-.82-1.44-.75-2.89.09-1.67.9-6.33,1.65-9.62.27-1.18.65-3.02.84-3.94.1-.48.15-1.15.08-1.64-.1-.72-.73-1.43-1.68-1.58-1.17-.19-1.96.41-2.45,1.16-.36.55-.62,1.18-.97,2.26-1.34,4.22-2.59,10.28-2.91,13.11-.46,4.02.47,6.8,3.1,7.91.82.34,2.13.53,3.5.53,1.16,0,3.03-.31,4.78-.76ZM148.4,121.17c2.32-.89,5.17-2.65,7.33-5.54,1.36-1.82,2.69-4.13,3.75-6.95,1.24-3.29,1.79-7.3,1.87-8.57.07-1.12.18-3.11-1.78-3.33-1-.11-1.72.3-2.25,1.02-.44.6-.65,1.16-.84,1.91-.2.79-.47,2.37-1.31,5.1-1.14,3.18-2.08,5.28-3.79,7.55-1.82,2.19-3.36,3.49-6.02,5.14-.68.45-1.19.8-1.54,1.26-.61.81-.27,1.76.36,2.33,1.05.96,3.21.46,4.21.07ZM22.63,120.4c2.49-.46,6.6-.86,8.62-.84,2.92.03,5.53.58,7.78,1.51,1.53.63,3.17.62,3.84-.34.46-.66.51-1.45-.03-2.24-.41-.6-1.12-1.22-2.19-1.79-1.6-.86-4.4-1.62-7.07-1.81-3.05-.21-5.25-.22-8.8.2-3.54.43-11.43,1.85-14.46,2.24-1.05.13-1.91.22-2.76.16-1.48-.1-2.17-1.18-1.66-2.62.24-.67.76-1.43,1.62-2.29,1.43-1.44,3.58-3.07,5.95-4.74,2.5-1.76,9.65-6.11,10.86-6.85,1.52-.93,2.17-2.15,1.63-3.3-.52-1.1-2.08-1.62-4.43-.62-1.07.46-5,2.49-8.75,4.93-3.85,2.5-8.11,5.74-10.51,8.62-3.23,3.86-2.48,7.8-1.03,9.39,1.68,1.85,4.4,2.32,6.79,2.3,4.48.01,12.11-1.45,14.6-1.92ZM277.24,114.55c-.64-.61-1.63-1.15-2.75-1.58-1.7-.66-5.52-1.45-7.21-1.58-1.17-.09-2.77-.15-3.7.34-.37.2-.66.56-.74.92-.08.33-.17.88.3,1.48.25.31.76.5,1.11.61,1.03.34,3.54.97,4.6,1.3,2.57.79,3.61,1.07,5.47,1.84.38.16,1,.33,1.85.24.71-.08,1.3-.54,1.52-.9.54-.89.4-1.86-.44-2.65ZM259.68,111.62s.06-.02.07-.03c5.3-2.43,9.11-4.64,11.44-7.1,1.47-1.56,2.01-3.36,1.55-5.11-.4-1.49-1.97-2.72-4.74-3.14-2.04-.31-4.95-.35-6.89-.34-.01-.33-.03-.81-.07-1.46-.06-1-.31-1.9-.86-2.45-.55-.55-1.49-.66-2.11-.56-.96.15-1.57.84-1.7,1.67-.09.58-.16,2.08-.33,3.04-3.7.34-7.79.95-9.09,1.25-2.37.56-2.79,1.5-2.65,2.56.09.7.67,1.32,1.45,1.51.63.15,1.21.16,2.12.05,1.59-.2,5.7-.8,10-1.09,3.19-.22,6.15-.26,8.05-.1.38.03,1.29.17,1.5.76.17.47-.03.92-.64,1.46-2.19,1.82-5.7,3.67-10.42,5.61-4,1.64-7.5,2.72-10.48,3.54-1.33.37-2.73.69-3.82,1.02-1.23.38-1.92,1.33-1.61,2.4.21.71.91,1.29,1.94,1.33,1.52.07,4.04-.37,6.77-1.1,3.19-.85,6.38-2.05,7.44-2.45,0,0,.03-.01.04-.02-.02.03-.02.09-.02.12.11,1.53.1,3.93.09,4.7-.04,1.99-.38,3.35-.24,4.14.22,1.19.87,1.79,2.39,1.8.95,0,1.59-.32,1.95-.77.5-.62.66-1.85.69-2.79.06-1.72-.11-3.6-.35-4.84-.26-1.34-.7-2.83-1.37-3.57-.02-.02-.05-.04-.08-.05ZM231.32,97.55c.05-1.68-1.68-2.25-3.35-2.49-2.19-.32-5.8-.68-9.91-.7-3.51-.02-8.02.15-10.56.56-1.98.31-3.1,1.05-3.16,2.25-.04.76.28,1.34.97,1.75s2,.37,3.3.26c2.36-.2,6.46-.37,9.53-.34,4.2.05,6.54.26,9.32.57,1.65.18,2.46,0,2.99-.33s.84-.85.86-1.53ZM229.39,108.13c.18-1.04-.39-1.72-1.12-2.13-.92-.52-2.24-.71-4.64-.91-1.65-.13-3.14-.22-5.02-.23-2.65-.01-6.88.09-9.12.4s-3.13,1.26-3.08,2.45c.07,1.69,1.82,2.01,3.05,1.92,1.98-.15,6.22-.31,9.03-.27,2.73.04,5.1.25,7.84.41,2.09.12,2.88-.59,3.06-1.64ZM202.22,120.65c.7.24,1.57.29,2.65.23,2.1-.13,6.55-.52,12.41-.44,5.83.08,9.1.31,12.04.58,1.17.11,2.6.28,3.5.07.76-.18,1.47-.6,1.6-1.56s-.52-1.96-1.79-2.4c-.97-.34-2.46-.61-3.46-.73-2.54-.31-6.94-.66-11.55-.66-5.9,0-9.59.29-12.47.61-1.19.13-2.2.32-2.91.72-.91.51-1.32,1.16-1.28,2.09.04.78.59,1.28,1.26,1.51Z"/>
  </g>
</svg>