<?xml version="1.0" encoding="UTF-8"?>
<svg id="_レイヤー_2" data-name="レイヤー 2" xmlns="http://www.w3.org/2000/svg" viewBox="0 0 26.25 22.5">
  <defs>
    <style>
      .cls-1 {
        fill: #e14a3b;
      }
    </style>
  </defs>
  <g id="_レイヤー_1-2" data-name="レイヤー 1">
    <g>
      <path d="M21.83,10.38c-.37,0-.66.3-.66.66v9.48c0,.36-.29.64-.64.64H1.97c-.36,0-.64-.29-.64-.64V1.97c0-.36.29-.64.65-.64h19.13c.87,0,.88-1.32,0-1.33H1.97C.88,0,0,.89,0,1.97v18.55c0,1.09.89,1.97,1.97,1.97h18.55c1.09,0,1.97-.89,1.97-1.97v-9.48c0-.37-.3-.66-.66-.66h0Z"/>
      <path class="cls-1" d="M25.78,1.55c-.63-.62-1.7-.62-2.32,0l-11.67,11.66-3.58-3.58c-1.57-1.46-3.82.74-2.32,2.32l4.75,4.75c.31.31.72.48,1.16.48s.85-.17,1.16-.48L25.78,3.87c.63-.61.63-1.71,0-2.32h0Z"/>
    </g>
  </g>
</svg>