<?xml version="1.0" encoding="UTF-8"?><svg id="_レイヤー_2" xmlns="http://www.w3.org/2000/svg" viewBox="0 0 230.21 187.03"><defs><style>.cls-1{fill:#00823e;}.cls-2{fill:#fff;}</style></defs><g id="_レイヤー_2-2"><g><path class="cls-1" d="M93.46,.06C41.88-1.89,0,41.91,0,93.53s41.87,95.03,93.46,93.46c77.41-2.35,84-73.57,136.76-92.7C175.48,71.87,160.97,2.63,93.46,.06Zm0,34.42c25.67,0,47.5,16.37,55.64,39.25H37.82c8.14-22.87,29.98-39.25,55.63-39.25Zm0,118.08c-25.08,0-46.51-15.65-55.07-37.71h110.14c-8.55,22.07-29.97,37.71-55.07,37.71Z"/><path class="cls-2" d="M74.82,102.81v-3.05h-12.1v-3.63h11.23v-3.04h-11.23v-4.27h11.62v-3.06h-15.89v17.05h16.38Zm40.51-17.58c5.26,0,10.55,2.17,10.55,8.89,0,5.62-3.67,9.25-10.41,9.25s-10.51-3.65-10.51-9.08c0-6.59,5.1-9.05,10.37-9.05m.1,15.07c5.6,0,6.11-4.8,6.11-5.99,0-3.04-2-6.01-6.11-6.01s-6.06,3.17-6.06,6.12c0,2.75,1.66,5.89,6.06,5.89m13.5,2.51h4.28v-17.05h-4.28v17.05Zm26.81,0v-17.05h-4.06v11.91l-10.46-11.91h-4.28v17.05h4.06v-11.95l10.53,11.95h4.2Zm19.23-13.93v-3.12h-16.93v3.12h6.33v13.93h4.3v-13.93h6.31Zm-145.91-3.12v10.75c-.07,2.13-1.18,3.46-3.36,3.46s-3.28-1.34-3.35-3.46v-2.01h-4.62v2.24c.04,4.65,3.77,6.47,7.97,6.47s7.93-1.83,7.98-6.47v-10.98h-4.62Zm68.18,0c2.17,0,4.39,.24,5.6,2.29,.31,.51,.74,1.33,.74,2.83,0,1.12-.26,2.28-1.13,3.27-1.46,1.64-3.22,1.81-5.68,1.81h-5.94v6.85h-4.21v-17.05h10.61Zm-6.4,7.2h5.24c.62,0,1.49,0,2.08-.24,1.15-.49,1.17-1.43,1.17-1.84,0-1.01-.48-2.18-2.24-2.18h-6.25v4.26Zm-40.13,9.85l-4.51-6.85h-4.84v6.85h-4.22v-17.05h11.65c1.46,0,2.11,.09,2.8,.31,2.19,.66,3.38,2.54,3.38,4.79,0,.43-.02,1.28-.46,2.24-.76,1.74-2.23,2.28-3.95,2.59l5.15,7.11h-5.01Zm-9.35-9.85h6.98c.79,0,2.35-.2,2.35-2.07s-1.34-2.19-2.52-2.19h-6.81v4.26Z"/></g></g></svg>