<?xml version="1.0" encoding="UTF-8"?>
<svg id="_レイヤー_2" data-name="レイヤー 2" xmlns="http://www.w3.org/2000/svg" viewBox="0 0 204.52 45.18">
  <defs>
    <style>
      .cls-1 {
        fill: #008a7c;
      }
    </style>
  </defs>
  <g id="_レイヤー_1-2" data-name="レイヤー 1">
    <g>
      <path class="cls-1" d="M0,0h10.32v30.36h14.76v8.64H0V0Z"/>
      <path d="M29.55,19.56c0-1.5,1.2-2.58,2.88-2.58s2.88,1.08,2.88,2.58-1.2,2.58-2.88,2.58-2.88-1.08-2.88-2.58ZM29.86,24h5.16v15h-5.16v-15Z"/>
      <path d="M37.58,24.18l2.28-.18h7.38v4.02h-9.66v-3.84ZM39.56,23.82c0-3.21,1.5-6.06,5.94-6.06,1.38,0,2.52.3,3.18.54l-.9,3.78c-.48-.18-1.02-.3-1.5-.3-.96,0-1.56.45-1.56,1.86v15.36h-5.16v-15.18Z"/>
      <path d="M48.81,31.5c0-4.86,3.54-7.86,7.2-7.86,4.44,0,6.54,3.24,6.54,7.26,0,.9-.12,1.8-.21,2.16h-8.55c.48,1.8,1.8,2.4,3.48,2.4,1.02,0,1.98-.3,3.06-.9l1.68,3.06c-1.62,1.14-3.78,1.74-5.46,1.74-4.38,0-7.74-2.88-7.74-7.86ZM58.17,29.7c0-1.14-.48-2.16-2.04-2.16-1.14,0-2.1.66-2.4,2.16h4.44Z"/>
      <path d="M65.77,29.58h7.56v3.6h-7.56v-3.6Z"/>
      <path d="M76.5,31.5c0-4.86,3.54-7.86,7.2-7.86,4.44,0,6.54,3.24,6.54,7.26,0,.9-.12,1.8-.21,2.16h-8.55c.48,1.8,1.8,2.4,3.48,2.4,1.02,0,1.98-.3,3.06-.9l1.68,3.06c-1.62,1.14-3.78,1.74-5.46,1.74-4.38,0-7.74-2.88-7.74-7.86ZM85.85,29.7c0-1.14-.48-2.16-2.04-2.16-1.14,0-2.1.66-2.4,2.16h4.44Z"/>
      <path d="M93.26,24h4.2l.36,1.8h.12c1.2-1.14,2.7-2.16,4.74-2.16,3.3,0,4.68,2.4,4.68,6.12v9.24h-5.16v-8.58c0-1.92-.48-2.4-1.5-2.4-.96,0-1.5.42-2.28,1.14v9.84h-5.16v-15Z"/>
      <path d="M110.92,24h4.2l.36,2.58h.12c1.11-2.04,2.79-2.94,4.26-2.94.93,0,1.44.12,1.86.3l-.84,4.44c-.54-.12-1.02-.24-1.68-.24-1.08,0-2.4.66-3.12,2.52v8.34h-5.16v-15Z"/>
      <path d="M123.39,19.56c0-1.5,1.2-2.58,2.88-2.58s2.88,1.08,2.88,2.58-1.2,2.58-2.88,2.58-2.88-1.08-2.88-2.58ZM123.69,24h5.16v15h-5.16v-15Z"/>
      <path d="M131.62,31.5c0-4.98,3.78-7.86,8.04-7.86,1.8,0,3.24.6,4.38,1.56l-2.4,3.3c-.66-.54-1.14-.72-1.68-.72-1.92,0-3.06,1.44-3.06,3.72s1.26,3.72,2.88,3.72c.84,0,1.68-.42,2.4-.96l1.98,3.36c-1.5,1.32-3.42,1.74-4.98,1.74-4.26,0-7.56-2.88-7.56-7.86Z"/>
      <path d="M146.46,18.12h5.16v4.86l-.24,2.58c1.02-.9,2.46-1.92,4.5-1.92,3.3,0,4.68,2.4,4.68,6.12v9.24h-5.16v-8.58c0-1.92-.48-2.4-1.5-2.4-.96,0-1.5.42-2.28,1.14v9.84h-5.16v-20.88Z"/>
      <path d="M163.78,19.56c0-1.5,1.2-2.58,2.88-2.58s2.88,1.08,2.88,2.58-1.2,2.58-2.88,2.58-2.88-1.08-2.88-2.58ZM164.08,24h5.16v15h-5.16v-15Z"/>
      <path d="M172.86,24h4.2l.36,1.8h.12c1.2-1.14,2.7-2.16,4.74-2.16,3.3,0,4.68,2.4,4.68,6.12v9.24h-5.16v-8.58c0-1.92-.48-2.4-1.5-2.4-.96,0-1.5.42-2.28,1.14v9.84h-5.16v-15Z"/>
      <path d="M189.52,41.46c0-1.23.72-2.16,2.1-2.88v-.12c-.78-.54-1.38-1.32-1.38-2.58,0-1.02.66-2.1,1.68-2.82v-.12c-1.08-.72-2.04-2.1-2.04-3.84,0-3.72,3.12-5.46,6.42-5.46.84,0,1.68.12,2.4.36h5.58v3.72h-2.16c.12.36.24.96.24,1.56,0,3.54-2.7,4.98-6.06,4.98-.48,0-1.02-.06-1.68-.21-.3.27-.36.45-.36.87,0,.66.6.9,2.1.9h2.25c3.75,0,5.91,1.14,5.91,3.9,0,3.24-3.36,5.46-8.7,5.46-3.42,0-6.3-1.02-6.3-3.72ZM199.6,40.62c0-.78-.72-.9-2.01-.9h-1.17c-1.2,0-1.74-.06-2.16-.18-.36.36-.54.66-.54,1.08,0,.96,1.2,1.38,2.94,1.38s2.94-.54,2.94-1.38ZM197.92,29.1c0-1.38-.66-2.04-1.62-2.04s-1.62.66-1.62,2.04.66,2.1,1.62,2.1,1.62-.66,1.62-2.1Z"/>
    </g>
  </g>
</svg>