<?xml version="1.0" encoding="UTF-8"?>
<svg id="_レイヤー_2" data-name="レイヤー 2" xmlns="http://www.w3.org/2000/svg" viewBox="0 0 88.43 40">
  <defs>
    <style>
      .cls-1 {
        fill: #fff;
      }
    </style>
  </defs>
  <g id="_レイヤー_1-2" data-name="レイヤー 1">
    <g>
      <path class="cls-1" d="M30.43,36.69c0-1.35.37-2.54,1.98-2.54s1.98,1.19,1.98,2.54-.37,2.56-1.98,2.56-1.98-1.24-1.98-2.56M29.51,36.69c0,1.86.92,3.31,2.9,3.31s2.9-1.45,2.9-3.31-.92-3.3-2.9-3.3-2.9,1.45-2.9,3.3"/>
      <polygon class="cls-1" points="42.62 34.16 42.6 34.16 40.56 39.87 39.74 39.87 37.71 34.16 37.69 34.16 37.69 39.87 36.81 39.87 36.81 33.53 38.39 33.53 40.21 38.75 40.23 38.75 42.03 33.53 43.49 33.53 43.49 39.87 42.62 39.87 42.62 34.16"/>
      <rect class="cls-1" x="45.54" y="33.53" width=".88" height="6.34"/>
      <polygon class="cls-1" points="50.56 36.63 52.46 33.53 53.44 33.53 50.97 37.62 50.97 39.87 50.09 39.87 50.09 37.62 47.61 33.53 48.59 33.53 50.56 36.63"/>
      <path class="cls-1" d="M55.84,34.4l1.15,3.06h-2.37l1.22-3.06ZM53.64,39.87l.69-1.65h2.94l.68,1.65h.96l-2.57-6.34h-.94l-2.67,6.34h.9Z"/>
      <path class="cls-1" d="M26.09,10.15c-.5,0-1-.13-1-.13.1,3.02.13,10.07.13,12.04,0,3.41-1.5,6.56-5.59,6.56-2.15,0-3.78-.85-4.63-1.95-.95-1.25-1.19-2.99-1.22-4.37-.17-6.47.24-9.83.33-12.28,0,0-.66.23-1.49.23s-1.78-.23-1.78-.23c.09,2.1.19,5.91.15,8.69l-.04,3.5c0,1.86.76,3.64,2.15,5.03,1.54,1.53,3.65,2.35,5.93,2.32,2.04-.03,3.91-.67,5.25-1.82,1.52-1.29,2.2-3.11,2.33-5.48.13-2.37.11-2.65.15-4.12.05-2.06.19-6.87.29-8.12,0,0-.41.13-.95.13"/>
      <path class="cls-1" d="M75.24,10.16c-.37,0-.89-.14-.89-.14.18,5.06.38,11.12.3,14.59-3.49-3.11-10.72-10.79-14.15-14.88h-1.12c.41,6.16.16,14.86-.07,19.42,0,0,.45-.13.92-.13s.91.13.91.13c-.1-1.97-.3-5.78-.36-9.05-.05-1.82-.07-3.94-.03-5.51,5.54,5.46,12.93,13.54,14,14.76h1.22c-.16-3.37-.15-7.29-.1-10.61.05-3.32.14-6.38.27-8.71,0,0-.49.14-.89.14"/>
      <path class="cls-1" d="M55.89,21.86c0-1.65,0-3.28.02-4.88.02-2.2.1-5.28.15-6.95,0,0-.62.21-1.59.21s-1.56-.21-1.56-.21c.07,1.57.17,4.69.2,6.95.01,1.55.02,3.23,0,4.88-.02,2.67-.12,5.04-.19,7.28,0,0,.87-.18,1.58-.18s1.58.18,1.58.18c-.07-1.92-.18-4.5-.19-7.28"/>
      <path class="cls-1" d="M47.68,9.72h-1.08c-1.89,4.83-5.09,11.11-6.99,14.98-2.25-4.01-5.2-10.04-7.36-14.98h-1.19c-.75,5.93-1.62,13.53-2.85,19.42,0,0,.44-.11.94-.11s.83.11.83.11c.35-4.51,1.34-11.95,1.8-14.69,2.39,5.2,5.07,10.26,6.92,14.52h.17c2.18-4.92,4.87-10.55,6.63-14.52.96,4.32,2.21,14.69,2.21,14.69.38-.1.95-.2,1.54-.2.79,0,1.64.2,1.64.2-.93-4.11-2.36-13.28-3.22-19.42"/>
      <path class="cls-1" d="M10.28,28.32c0-.45.15-.78.15-.78-1.51.22-4.5.77-7.24.66-.38-4.92-.3-13.3.09-18.18-.39.09-.97.17-1.64.17-.63,0-1.22-.09-1.64-.17,0,0,.22,5.4.22,9.58C.22,22.87,0,29.14,0,29.14c1.81-.03,3.58-.05,5.14-.05,3.05,0,5.28.05,5.28.05,0,0-.15-.38-.15-.82"/>
      <path class="cls-1" d="M88.32,28.38c0-.45.08-.76.08-.76,0,0-2.88.52-6.36.52-.1-2.34-.09-5.58-.09-8.63,2.35.02,3.61.16,5.56.28-.04-.21-.09-.35-.09-.73s.09-.79.09-.79c-1.72.1-2.78.23-5.56.23-.07-2.31.03-5.85.09-7.55,2.5,0,4.53.2,6.38.47,0,0-.09-.29-.09-.7,0-.36.09-.74.09-.74-1.2.04-3.49.13-4.58.13-3.41,0-4.66-.1-4.66-.1.09,1.31.15,3.36.18,5.66.03,2.14.02,4.74.02,6.72,0,2.31-.1,5.2-.18,6.74,0,0,1.5-.09,4.46-.09,1.44,0,3.15,0,4.76.09,0,0-.08-.32-.08-.76"/>
      <path class="cls-1" d="M2.01,1.3l.19-.06.23.38c-.22.16-.37.27-.45.34v.37c.5-.34.89-.56,1.15-.66.27-.1.53-.15.79-.15.51,0,.91.17,1.19.51.29.34.43.75.43,1.23,0,.4-.11.75-.33,1.06-.22.32-.54.56-.97.75-.33.14-.82.26-1.44.34-.03-.15-.11-.35-.22-.59.69,0,1.22-.11,1.58-.31.48-.29.72-.71.72-1.26,0-.36-.1-.66-.29-.87-.19-.21-.43-.32-.73-.32-.25,0-.53.06-.83.2-.16.07-.32.16-.5.27-.18.11-.37.25-.58.41v1.58c.01.36.02.71.03,1.06l-.6.02c0-.11,0-.27,0-.48,0-.21,0-.37,0-.47,0-.37,0-.76.01-1.16-.1.11-.2.22-.3.33-.1.11-.2.22-.29.34-.05.06-.17.21-.34.43L0,4.1c.21-.21.42-.42.64-.63.22-.21.46-.44.74-.69,0-.09,0-.37.02-.85-.48.07-.83.12-1.07.13v-.59c.19,0,.32.01.39.01.23,0,.46-.02.68-.05,0-.41.03-.83.06-1.25l.65.05c0,.05-.01.11-.02.16,0,.06-.01.11-.02.16,0,.05-.02.11-.02.17-.02.1-.03.3-.04.59"/>
      <path class="cls-1" d="M12.93,2.04c-.51,0-.89,0-1.14.02-.19.01-.55.06-1.07.14l.09.53.79-.1c.31-.02.58-.04.81-.04.11,0,.4,0,.88.02l.02-.57h-.38ZM10.26,4.58c.05.18.15.34.29.47.15.14.36.24.64.31.29.07.73.11,1.31.11.11,0,.45-.02,1.03-.07v-.61c-.55.07-.95.1-1.19.1-.37,0-.67-.02-.9-.06-.24-.04-.4-.09-.49-.17-.06-.05-.12-.14-.17-.28-.02-.04-.02-.19-.02-.45l-.56-.04c0,.31,0,.54.05.68M10.63.42l-.62-.2c-.11.47-.22.86-.32,1.19-.22,0-.4.01-.55.01-.18,0-.4-.01-.65-.04l-.02.57c.16.01.29.01.4.01.08,0,.31,0,.65-.03-.13.38-.25.73-.37,1.05-.12.33-.23.6-.31.81-.09.2-.16.37-.23.52-.07.15-.13.28-.19.39-.05.11-.15.31-.29.6l.55.25c.33-.71.59-1.29.77-1.75.14-.34.27-.67.38-.99.11-.32.22-.64.32-.95.3-.03.57-.07.81-.11.24-.05.5-.1.75-.16l-.03-.58c-.45.13-.91.23-1.35.3.08-.22.17-.53.3-.92"/>
      <path class="cls-1" d="M20.69,3.09c.18.15.34.27.51.35-.14.22-.28.43-.41.61-.13.19-.25.33-.35.44-.28.29-.6.53-.98.71-.37.18-.75.27-1.15.27-.31,0-.58-.06-.81-.19-.22-.13-.39-.3-.49-.52-.1-.22-.15-.59-.15-1.08v-.13s0-.1,0-.19c0-.09,0-.16,0-.22,0-.44.02-1.1.04-2,0-.09,0-.19,0-.31,0-.12,0-.26,0-.4l.72.02c-.03.3-.06.64-.09,1-.03.37-.05.65-.06.84-.02.19-.02.4-.03.63-.01.23-.02.46-.02.69,0,.45.02.74.08.87.06.13.15.23.29.31.14.09.32.12.54.12.47,0,.9-.15,1.28-.45.39-.31.74-.77,1.05-1.37"/>
      <path class="cls-1" d="M24.61,3.31c.44-.29.8-.49,1.1-.59.32-.11.64-.17.97-.17.5,0,.87.12,1.14.36.27.24.4.55.4.91,0,.49-.21.89-.63,1.2-.55.41-1.47.63-2.75.65,0-.1,0-.17-.01-.21,0-.04-.04-.17-.11-.4.19,0,.34,0,.43,0,.31,0,.6-.02.87-.05.26-.04.49-.09.7-.17.16-.06.29-.13.41-.21.12-.08.21-.17.29-.28.13-.16.19-.34.19-.53,0-.22-.08-.4-.25-.56-.17-.15-.42-.22-.75-.22-.27,0-.55.05-.82.15-.28.1-.55.26-.8.46-.16.12-.33.3-.52.54l-.48-.2c.07-.73.14-1.32.21-1.76.05-.35.11-.65.16-.9l.64.2c-.13.4-.21.7-.26.91-.05.24-.1.53-.14.87M26.98.68l-.19.56c-.44-.1-.78-.19-1.03-.27-.31-.11-.66-.25-1.04-.43l.24-.54c.32.15.61.27.89.37.06.02.13.04.21.06.09.03.16.05.21.07.06.02.15.04.28.07s.27.07.42.11"/>
      <path class="cls-1" d="M35.59,3.09c.18.15.35.27.51.35-.14.22-.27.43-.41.61-.13.19-.25.33-.35.44-.27.29-.6.53-.98.71-.37.18-.75.27-1.16.27-.3,0-.57-.06-.8-.19-.23-.13-.39-.3-.49-.52-.1-.22-.15-.59-.15-1.08v-.54c.01-.44.03-1.1.04-2,0-.09,0-.19,0-.31s0-.26,0-.4l.73.02c-.03.3-.06.64-.09,1-.03.37-.05.65-.06.84-.01.19-.02.4-.03.63,0,.23,0,.46,0,.69,0,.45.02.74.08.87.05.13.15.23.29.31.14.09.31.12.53.12.47,0,.9-.15,1.29-.45.39-.31.74-.77,1.05-1.37"/>
      <path class="cls-1" d="M42.04.27l.44.54c-.74.54-1.3.92-1.65,1.15-.19.12-.39.24-.61.36-.21.12-.42.24-.64.35-.07.03-.1.07-.1.11,0,.04.04.09.12.13.12.07.35.22.7.47.15.11.32.23.5.37.17.15.35.29.51.44.26.23.64.61,1.14,1.13l-.54.44c-.55-.64-1.01-1.12-1.36-1.44-.15-.14-.28-.26-.41-.37-.13-.11-.24-.2-.34-.28-.1-.08-.2-.15-.31-.23-.11-.08-.24-.17-.4-.27-.11-.07-.18-.13-.21-.18-.04-.05-.06-.11-.06-.18,0-.1.03-.18.09-.27.06-.08.22-.19.47-.33.2-.12.4-.24.61-.38.2-.13.41-.28.64-.44.22-.16.45-.33.7-.52.24-.19.48-.39.71-.59"/>
      <path class="cls-1" d="M48.92.39l-.42.68c.31-.03.59-.06.84-.1.1-.02.32-.07.68-.16l.03.57c-.12.01-.28.03-.49.06-.21.03-.4.06-.58.08-.05,0-.3.03-.78.06l-.38.58c.2-.05.34-.07.43-.07.12,0,.23.02.35.05.1.03.19.08.27.16.04.04.1.12.16.25,0,0,.03.1.05.29.59-.22,1.16-.44,1.75-.65l.2.62c-.22.05-.37.08-.47.11-.12.03-.26.07-.39.1-.13.03-.26.07-.38.11-.16.05-.27.09-.35.12-.08.03-.2.07-.35.13,0,.26,0,.57.01.92h-.57v-.71c-.51.23-.82.41-.96.55-.09.1-.14.21-.14.32,0,.08.03.16.08.23.08.1.22.17.41.23.19.06.52.09,1,.09.26,0,.49,0,.7-.03.22-.01.51-.05.88-.1v.61c-.75.05-1.25.07-1.5.07-.82,0-1.4-.12-1.74-.36-.25-.18-.38-.41-.38-.7,0-.16.05-.32.14-.46.12-.18.3-.35.57-.51.18-.11.49-.27.93-.46,0-.18-.03-.31-.1-.39-.06-.07-.16-.11-.29-.11-.25,0-.5.08-.72.24-.15.11-.51.48-1.07,1.11l-.45-.43c.4-.36.71-.67.93-.93.22-.25.46-.56.7-.93-.32.02-.62.03-.9.03-.06,0-.14,0-.23-.01l-.02-.54c.65.03,1.15.03,1.46,0,.12-.23.26-.55.43-.97l.64.26Z"/>
      <path class="cls-1" d="M54.95,4.78c-.11.07-.2.1-.28.1-.06,0-.12-.02-.16-.08-.06-.07-.08-.18-.08-.33,0-.17.04-.33.12-.51.08-.17.19-.33.35-.49.12-.12.3-.27.55-.45.01.33.05.76.11,1.27-.23.24-.43.39-.61.49M56.35,2.68c.12-.02.27-.04.43-.05-.08.13-.15.25-.23.37-.07.12-.15.24-.24.36-.08.12-.18.25-.29.4-.03-.29-.05-.62-.05-.99.12-.04.25-.07.37-.09M56.51,2.19c-.11.01-.28.05-.51.1,0-.2.03-.44.06-.7.69-.06,1.32-.17,1.91-.33l-.02-.55c-.43.11-.74.19-.93.23-.17.04-.45.08-.87.13.02-.16.08-.43.18-.81l-.65-.12c-.05.38-.09.7-.12.97-.13,0-.21,0-.23,0-.38,0-.72-.02-1.03-.06v.55c.08,0,.15.02.21.02.07,0,.14,0,.22.01.08,0,.16,0,.24,0l.53-.02c-.03.33-.04.61-.04.86-.34.17-.59.33-.74.46-.25.22-.44.47-.58.73-.15.28-.23.58-.23.89,0,.26.06.47.2.61.13.15.28.22.44.22s.33-.03.48-.1c.15-.06.37-.21.64-.43l.06.28.55-.2c-.04-.13-.09-.3-.14-.54.39-.47.63-.77.73-.91.15-.22.33-.48.52-.81.23.06.4.13.51.21.16.11.28.23.36.39.08.16.12.33.12.52,0,.22-.07.42-.21.63-.13.19-.34.35-.62.47-.18.08-.52.16-1.01.23.09.16.16.34.21.54.41-.07.76-.17,1.05-.28.29-.12.51-.26.68-.42.33-.33.49-.7.49-1.14,0-.28-.06-.53-.18-.74-.11-.21-.28-.38-.49-.52-.14-.1-.37-.19-.69-.3l.1-.2-.55-.22-.15.32c-.23.01-.4.02-.52.03"/>
      <path class="cls-1" d="M66.63,2.04c-.51,0-.89,0-1.14.02-.19.01-.55.06-1.08.14l.09.53.78-.1c.31-.02.58-.04.81-.04.11,0,.4,0,.88.02l.03-.57h-.37ZM63.96,4.58c.05.18.15.34.29.47.15.14.37.24.64.31.29.07.73.11,1.32.11.11,0,.45-.02,1.02-.07v-.61c-.55.07-.95.1-1.18.1-.37,0-.67-.02-.9-.06-.24-.04-.4-.09-.48-.17-.07-.05-.12-.14-.17-.28-.01-.04-.02-.19-.02-.45l-.56-.04c0,.31.01.54.06.68M64.33.42l-.63-.2c-.11.47-.22.86-.32,1.19-.22,0-.4.01-.55.01-.18,0-.4-.01-.66-.04v.57c.14.01.28.01.39.01.09,0,.3,0,.65-.03-.12.38-.25.73-.37,1.05-.13.33-.23.6-.31.81-.09.2-.16.37-.22.52-.07.15-.13.28-.19.39-.05.11-.15.31-.29.6l.54.25c.33-.71.59-1.29.77-1.75.14-.34.26-.67.38-.99.12-.32.23-.64.32-.95.3-.03.57-.07.81-.11.24-.05.5-.1.75-.16l-.03-.58c-.46.13-.91.23-1.36.3.08-.22.18-.53.31-.92"/>
      <path class="cls-1" d="M72.82.57c-.13-.04-.22-.06-.28-.07-.05-.02-.12-.04-.21-.07-.08-.02-.15-.04-.21-.06-.28-.1-.58-.22-.89-.37l-.24.54c.38.18.72.32,1.04.43.25.08.59.17,1.03.27l.18-.56c-.15-.04-.29-.08-.42-.11M71.01,2.45c.04-.2.13-.5.25-.91l-.64-.2c-.05.25-.1.56-.16.9-.07.44-.14,1.03-.21,1.76l.48.2c.19-.24.36-.41.51-.54.26-.2.53-.36.8-.46.28-.1.55-.15.82-.15.33,0,.58.07.75.22.17.16.25.34.25.56,0,.19-.06.37-.19.53-.08.11-.18.2-.29.28-.12.08-.25.15-.41.21-.21.08-.44.13-.7.17-.26.03-.55.05-.86.05-.1,0-.24,0-.44,0,.07.23.1.36.11.4,0,.04,0,.12,0,.21,1.29-.03,2.21-.24,2.76-.65.42-.31.64-.71.64-1.2,0-.36-.14-.67-.41-.91-.26-.24-.64-.36-1.14-.36-.34,0-.66.06-.98.17-.29.1-.66.3-1.09.59.04-.34.08-.63.14-.87"/>
      <path class="cls-1" d="M81.74,3.09c.17.15.34.27.5.35-.14.22-.27.43-.4.61-.13.19-.25.33-.35.44-.28.29-.6.53-.98.71-.37.18-.76.27-1.16.27-.31,0-.58-.06-.81-.19-.23-.13-.39-.3-.49-.52-.1-.22-.15-.59-.15-1.08v-.32c0-.09,0-.16,0-.22.01-.44.02-1.1.04-2,0-.09,0-.19,0-.31,0-.12,0-.26,0-.4l.73.02c-.03.3-.06.64-.08,1-.03.37-.05.65-.06.84,0,.19-.02.4-.03.63,0,.23-.01.46-.01.69,0,.45.03.74.08.87.06.13.15.23.29.31.14.09.32.12.53.12.47,0,.9-.15,1.28-.45.39-.31.74-.77,1.05-1.37"/>
      <path class="cls-1" d="M87.89.27l.43.54c-.74.54-1.29.92-1.64,1.15-.19.12-.39.24-.61.36-.21.12-.42.24-.64.35-.06.03-.1.07-.1.11,0,.04.04.09.12.13.12.07.35.22.7.47.15.11.32.23.5.37.18.15.35.29.51.44.26.23.64.61,1.13,1.13l-.54.44c-.55-.64-1-1.12-1.36-1.44-.14-.14-.28-.26-.41-.37-.13-.11-.24-.2-.34-.28-.1-.08-.2-.15-.31-.23-.11-.08-.24-.17-.39-.27-.11-.07-.18-.13-.22-.18-.04-.05-.05-.11-.05-.18,0-.1.03-.18.09-.27.07-.08.22-.19.47-.33.2-.12.4-.24.61-.38.21-.13.42-.28.64-.44.23-.16.45-.33.7-.52.24-.19.48-.39.71-.59"/>
    </g>
  </g>
</svg>