<?xml version="1.0" encoding="UTF-8"?>
<svg id="_レイヤー_2" data-name="レイヤー 2" xmlns="http://www.w3.org/2000/svg" viewBox="0 0 134.61 30.19">
  <defs>
    <style>
      .cls-1 {
        stroke-width: 0px;
      }
    </style>
  </defs>
  <g id="_レイヤー_2-2" data-name="レイヤー 2">
    <g>
      <path class="cls-1" d="m39.72.64c-.76,0-1.52-.19-1.52-.19.16,4.6.18,15.34.18,18.33,0,5.18-2.27,9.98-8.49,9.98-3.28,0-5.76-1.29-7.05-2.97-1.45-1.88-1.81-4.54-1.86-6.64-.27-9.86.36-14.98.49-18.7,0,0-.99.34-2.26.34s-2.72-.34-2.72-.34c.14,3.19.29,9,.24,13.23l-.07,5.32c0,2.82,1.15,5.53,3.27,7.63,2.35,2.34,5.56,3.59,9.04,3.54,3.11-.04,5.96-1.01,7.99-2.76,2.31-1.97,3.35-4.73,3.54-8.35.21-3.6.17-4.02.23-6.27.08-3.13.29-10.45.45-12.35,0,0-.62.19-1.46.19"/>
      <path class="cls-1" d="m114.55.67c-.56,0-1.35-.21-1.35-.21.27,7.69.57,16.92.44,22.2-5.3-4.73-16.31-16.42-21.54-22.66h-1.71c.61,9.38.24,22.63-.11,29.55,0,0,.68-.17,1.4-.17s1.38.17,1.38.17c-.15-2.99-.45-8.79-.55-13.78-.07-2.76-.11-6-.05-8.38,8.44,8.31,19.69,20.61,21.31,22.47h1.85c-.24-5.14-.23-11.11-.15-16.16.09-5.05.22-9.72.43-13.25,0,0-.75.21-1.36.21"/>
      <path class="cls-1" d="m85.08,18.47c0-2.51,0-5,.03-7.44.03-3.35.15-8.02.23-10.58,0,0-.94.32-2.41.32s-2.38-.32-2.38-.32c.11,2.39.26,7.14.3,10.58.02,2.36.03,4.93,0,7.44-.02,4.07-.18,7.66-.3,11.09,0,0,1.34-.28,2.41-.28s2.41.28,2.41.28c-.12-2.94-.27-6.85-.29-11.09"/>
      <path class="cls-1" d="m72.58,0h-1.63c-2.89,7.34-7.75,16.91-10.65,22.8-3.43-6.1-7.92-15.28-11.19-22.8h-1.82c-1.15,9.03-2.47,20.59-4.34,29.55,0,0,.68-.16,1.43-.16s1.27.16,1.27.16c.53-6.86,2.04-18.19,2.75-22.36,3.64,7.92,7.71,15.63,10.52,22.11h.26c3.32-7.47,7.42-16.06,10.08-22.11,1.47,6.59,3.37,22.36,3.37,22.36.58-.15,1.43-.3,2.35-.3,1.2,0,2.49.3,2.49.3-1.41-6.25-3.59-20.2-4.9-29.55"/>
      <path class="cls-1" d="m15.65,28.31c0-.69.22-1.19.22-1.19-2.29.34-6.85,1.17-11.01,1.01-.57-7.51-.47-20.25.14-27.68-.6.14-1.48.26-2.5.26-.94,0-1.85-.13-2.5-.26C0,.46.33,8.67.33,15.04.33,20.01,0,29.56,0,29.56c2.76-.06,5.46-.08,7.82-.08,4.66,0,8.04.08,8.04.08,0,0-.22-.58-.22-1.25"/>
      <path class="cls-1" d="m134.45,28.4c0-.69.14-1.16.14-1.16,0,0-4.37.8-9.67.8-.15-3.57-.13-8.49-.14-13.13,3.58.01,5.5.23,8.46.41-.06-.3-.14-.53-.14-1.12s.14-1.21.14-1.21c-2.61.15-4.23.36-8.45.36-.11-3.53.04-8.91.13-11.49,3.8,0,6.89.29,9.7.71,0,0-.14-.44-.14-1.07,0-.55.14-1.11.14-1.11-1.82.06-5.3.19-6.98.19-5.19,0-7.09-.14-7.09-.14.13,2,.22,5.11.27,8.61.04,3.26.01,7.23.01,10.24,0,3.51-.14,7.92-.28,10.24,0,0,2.29-.13,6.79-.13,2.17,0,4.79,0,7.23.13,0,0-.14-.49-.14-1.14"/>
    </g>
  </g>
</svg>