<?xml version="1.0" encoding="UTF-8"?>
<svg id="_レイヤー_2" data-name="レイヤー 2" xmlns="http://www.w3.org/2000/svg" viewBox="0 0 88.43 30.28">
  <defs>
    <style>
      .cls-1 {
        fill: #fff;
      }
    </style>
  </defs>
  <g id="_レイヤー_1-2" data-name="レイヤー 1">
    <g>
      <path class="cls-1" d="M30.43,26.97c0-1.35.37-2.54,1.98-2.54s1.98,1.19,1.98,2.54-.37,2.56-1.98,2.56-1.98-1.24-1.98-2.56M29.51,26.97c0,1.86.92,3.31,2.9,3.31s2.9-1.45,2.9-3.31-.92-3.3-2.9-3.3-2.9,1.45-2.9,3.3"/>
      <polygon class="cls-1" points="42.62 24.44 42.6 24.44 40.56 30.15 39.74 30.15 37.71 24.44 37.69 24.44 37.69 30.15 36.81 30.15 36.81 23.81 38.39 23.81 40.21 29.03 40.23 29.03 42.03 23.81 43.49 23.81 43.49 30.15 42.62 30.15 42.62 24.44"/>
      <rect class="cls-1" x="45.54" y="23.81" width=".88" height="6.34"/>
      <polygon class="cls-1" points="50.56 26.91 52.46 23.81 53.44 23.81 50.97 27.9 50.97 30.15 50.09 30.15 50.09 27.9 47.61 23.81 48.59 23.81 50.56 26.91"/>
      <path class="cls-1" d="M55.84,24.68l1.15,3.06h-2.37l1.22-3.06ZM53.64,30.15l.69-1.65h2.94l.68,1.65h.96l-2.57-6.34h-.94l-2.67,6.34h.9Z"/>
      <path class="cls-1" d="M26.09.43c-.5,0-1-.13-1-.13.1,3.02.13,10.07.13,12.04,0,3.41-1.5,6.56-5.59,6.56-2.15,0-3.78-.85-4.63-1.95-.95-1.25-1.19-2.99-1.22-4.37-.17-6.47.24-9.83.33-12.28,0,0-.66.23-1.49.23s-1.78-.23-1.78-.23c.09,2.1.19,5.91.15,8.69l-.04,3.5c0,1.86.76,3.64,2.15,5.03,1.54,1.53,3.65,2.35,5.93,2.32,2.04-.03,3.91-.67,5.25-1.82,1.52-1.29,2.2-3.11,2.33-5.48.13-2.37.11-2.65.15-4.12.05-2.06.19-6.87.29-8.12,0,0-.41.13-.95.13"/>
      <path class="cls-1" d="M75.24.44c-.37,0-.89-.14-.89-.14.18,5.06.38,11.12.3,14.59C71.16,11.78,63.93,4.1,60.5,0h-1.12c.41,6.16.16,14.86-.07,19.42,0,0,.45-.13.92-.13s.91.13.91.13c-.1-1.97-.3-5.78-.36-9.05-.05-1.82-.07-3.94-.03-5.51,5.54,5.46,12.93,13.54,14,14.76h1.22c-.16-3.37-.15-7.29-.1-10.61.05-3.32.14-6.38.27-8.71,0,0-.49.14-.89.14"/>
      <path class="cls-1" d="M55.89,12.14c0-1.65,0-3.28.02-4.88.02-2.2.1-5.28.15-6.95,0,0-.62.21-1.59.21s-1.56-.21-1.56-.21c.07,1.57.17,4.69.2,6.95.01,1.55.02,3.23,0,4.88-.02,2.67-.12,5.04-.19,7.28,0,0,.87-.18,1.58-.18s1.58.18,1.58.18c-.07-1.92-.18-4.5-.19-7.28"/>
      <path class="cls-1" d="M47.68,0h-1.08c-1.89,4.83-5.09,11.11-6.99,14.98-2.25-4.01-5.2-10.04-7.36-14.98h-1.19c-.75,5.93-1.62,13.53-2.85,19.42,0,0,.44-.11.94-.11s.83.11.83.11c.35-4.51,1.34-11.95,1.8-14.69,2.39,5.2,5.07,10.26,6.92,14.52h.17c2.18-4.92,4.87-10.55,6.63-14.52.96,4.32,2.21,14.69,2.21,14.69.38-.1.95-.2,1.54-.2.79,0,1.64.2,1.64.2-.93-4.11-2.36-13.28-3.22-19.42"/>
      <path class="cls-1" d="M10.28,18.6c0-.45.15-.78.15-.78-1.51.22-4.5.77-7.24.66-.38-4.92-.3-13.3.09-18.18-.39.09-.97.17-1.64.17-.63,0-1.22-.09-1.64-.17C0,.3.22,5.7.22,9.88.22,13.15,0,19.42,0,19.42c1.81-.03,3.58-.05,5.14-.05,3.05,0,5.28.05,5.28.05,0,0-.15-.38-.15-.82"/>
      <path class="cls-1" d="M88.32,18.66c0-.45.08-.76.08-.76,0,0-2.88.52-6.36.52-.1-2.34-.09-5.58-.09-8.63,2.35.02,3.61.16,5.56.28-.04-.21-.09-.35-.09-.73s.09-.79.09-.79c-1.72.1-2.78.23-5.56.23-.07-2.31.03-5.85.09-7.55,2.5,0,4.53.2,6.38.47,0,0-.09-.29-.09-.7,0-.36.09-.74.09-.74-1.2.04-3.49.13-4.58.13-3.41,0-4.66-.1-4.66-.1.09,1.31.15,3.36.18,5.66.03,2.14.02,4.74.02,6.72,0,2.31-.1,5.2-.18,6.74,0,0,1.5-.09,4.46-.09,1.44,0,3.15,0,4.76.09,0,0-.08-.32-.08-.76"/>
    </g>
  </g>
</svg>