<?xml version="1.0" encoding="UTF-8"?>
<svg id="_レイヤー_2" data-name="レイヤー 2" xmlns="http://www.w3.org/2000/svg" viewBox="0 0 176.61 25.65">
  <defs>
    <style>
      .cls-1 {
        stroke-width: 0px;
      }
    </style>
  </defs>
  <g id="_レイヤー_2-2" data-name="レイヤー 2">
    <path class="cls-1" d="m26.02,0h18.05v5.03h-12.4v5.15h10.02v5.03h-10.02v5.15h13v5.04h-18.65V0Zm109.52,6.25c.23-.31.47-.61.75-.9,1.37-1.46,3.6-2.75,6.89-2.77.28,0,.55.01.82.02,2.93.18,4.99,1.39,6.27,2.75,1.53,1.6,2.44,3.58,2.44,6.64v13.4h-5.5v-1.95c-1.42,1.42-2.76,2.08-5.06,2.16-.16,0-.32,0-.48,0-1.89,0-3.4-.36-4.6-1.08-.42-.26-.81-.56-1.16-.91-.08-.09-.15-.18-.23-.27-1.06-1.24-1.63-2.94-1.63-4.8,0-.05,0-.09,0-.13.05-2.8,1.61-5.17,4.83-6.04.17-.05.34-.09.52-.13.71-.15,1.49-.23,2.35-.23h5.24c0-2.63-1.33-4.54-3.61-4.57-2.39-.03-3.58,1.31-4.14,2.2l-3.72-3.39Zm11.55,9.62h-4.46c-1.61,0-2.64.59-3.01,1.63-.1.28-.15.58-.15.92,0,.13,0,.25.02.37.16,1.35,1.2,2.23,3.22,2.23,1.56,0,2.56-.18,3.51-1.17.61-.63.86-1.8.86-2.77v-1.21Zm26.96-10.63c-1.38-1.47-3.68-2.77-7.01-2.77-1.13,0-2.12.15-3.01.4-1,.28-1.85.7-2.57,1.19v-1.22h-5.39v22.56h5.63v-10.77c0-.37.01-.72.03-1.07.08-2.05.4-3.74,1.51-4.85.53-.53,1.17-.89,1.94-1.06.33-.07.68-.11,1.06-.12.22,0,.43.01.63.02,1.07.1,1.92.49,2.57,1.15,1.38,1.38,1.54,3.69,1.54,6.46v10.22h5.63v-11.41c0-4.07-.52-6.62-2.55-8.74M22.13,25.41V0h-5.64v14.2L5.04,0H0v25.41h5.64v-14.24l11.45,14.24h5.03Zm47.76-12.67l-5.16-12.74h-3.85l-5.07,12.74-3.5-12.74h-6.32l6.78,25.41h4.71l5.31-14.35,5.33,14.35h4.71L79.65,0h-6.38l-3.38,12.74Zm39.18-.07l5.16,12.74h3.85l5.07-12.74,3.5,12.74h6.32L126.2,0h-4.71l-5.31,14.35-5.33-14.35h-4.71l-6.82,25.41h6.38l3.38-12.74Zm-12.99-7.32c2.04,2.12,2.56,4.67,2.56,8.74s-.52,6.67-2.56,8.79c-1.38,1.47-3.68,2.77-7.01,2.77s-5.58-1.3-6.97-2.77c-2.04-2.12-2.56-4.68-2.56-8.79s.52-6.62,2.56-8.74c1.38-1.47,3.64-2.77,6.97-2.77s5.63,1.3,7.01,2.77m-3.07,8.74c0-2.34-.13-4.29-1.3-5.46-.65-.65-1.52-1-2.64-1s-1.95.35-2.6,1c-1.17,1.17-1.3,3.12-1.3,5.46s.13,4.33,1.3,5.5c.65.65,1.47,1,2.6,1s1.99-.35,2.64-1c1.17-1.17,1.3-3.16,1.3-5.5"/>
  </g>
</svg>