<?xml version="1.0" encoding="UTF-8"?>
<svg id="_レイヤー_2" data-name="レイヤー 2" xmlns="http://www.w3.org/2000/svg" viewBox="0 0 100.27 36.4">
  <defs>
    <style>
      .cls-1 {
        fill: #00833e;
        stroke-width: 0px;
      }
    </style>
  </defs>
  <g id="_レイヤー_2-2" data-name="レイヤー 2">
    <g>
      <g>
        <path class="cls-1" d="m6.89,13.38c-.29-.08-.58-.14-.87-.18-.29-.04-.59-.06-.9-.06-.21,0-.45.02-.71.07-.26.05-.51.12-.75.23-.24.11-.44.25-.59.44-.15.19-.23.42-.23.7s.1.53.29.75c.19.22.45.42.77.61.32.19.68.37,1.09.55.41.18.83.37,1.26.58.43.21.85.44,1.26.69.41.25.77.55,1.09.88.32.33.58.72.77,1.16.19.44.29.95.29,1.52,0,.75-.13,1.39-.4,1.92-.27.53-.64.97-1.11,1.31-.47.34-1.01.59-1.61.75-.6.16-1.23.24-1.9.24-.57,0-1.14-.08-1.71-.23-.57-.15-1.1-.38-1.6-.67s-.94-.66-1.33-1.1l1.22-1.48c.29.31.63.56,1.01.77s.78.36,1.2.47c.42.11.84.16,1.25.16.32,0,.63-.04.94-.13.31-.09.59-.22.84-.39.25-.17.45-.39.6-.66.15-.27.22-.58.22-.94s-.09-.68-.28-.95c-.19-.27-.44-.52-.76-.74-.32-.22-.68-.43-1.08-.62-.4-.19-.81-.39-1.23-.58-.42-.19-.83-.41-1.23-.64-.4-.23-.76-.5-1.08-.8-.32-.3-.57-.65-.76-1.04-.19-.39-.28-.85-.28-1.37,0-.64.14-1.18.42-1.63.28-.45.65-.81,1.11-1.08.46-.27.96-.47,1.49-.6.53-.13,1.05-.19,1.56-.19.37,0,.74.03,1.1.08.36.05.72.13,1.08.24.36.11.7.25,1.02.42l-.64,1.84c-.27-.12-.54-.22-.83-.3Z"/>
        <path class="cls-1" d="m17.44,13.37c-.35-.06-.67-.09-.98-.09-.44,0-.81.06-1.11.18s-.53.31-.69.56-.24.59-.24,1v6.56c0,.41.07.74.22.99.15.25.36.43.63.54s.61.17,1.01.17.82-.04,1.22-.12c.4-.08.75-.17,1.05-.26.3-.09.48-.15.55-.16l.32,2.1c-.57.21-1.13.38-1.68.51-.55.13-1.07.19-1.58.19-.83,0-1.54-.15-2.13-.45-.59-.3-1.05-.74-1.36-1.33-.31-.59-.47-1.3-.47-2.14v-6.54c0-.88.17-1.62.51-2.22.34-.6.8-1.05,1.38-1.35.58-.3,1.24-.45,1.97-.45.48,0,.96.06,1.44.17.48.11.96.29,1.44.53l-.6,1.86c-.25-.11-.55-.19-.9-.25Z"/>
        <path class="cls-1" d="m22,11.3h6.7v2.2h-4.48v3.52h2.74l-.62,2.1h-2.12v4.16h4.44v2.02h-6.66v-14Z"/>
        <path class="cls-1" d="m41.22,25.3h-2.24l-5.42-9.48v9.48h-2.22v-14h2.22l5.42,9.78v-9.78h2.24v14Z"/>
        <path class="cls-1" d="m44.03,11.3h6.7v2.2h-4.48v3.52h2.74l-.62,2.1h-2.12v4.16h4.44v2.02h-6.66v-14Z"/>
      </g>
      <g>
        <path class="cls-1" d="m66.02,2.68c1.9-1.78,4.5-2.68,7.8-2.68s5.87.93,7.7,2.8c1.83,1.87,2.75,4.43,2.75,7.7v16.05c0,2.03-.43,3.79-1.3,5.28-.87,1.48-2.09,2.62-3.67,3.4s-3.42,1.18-5.52,1.18c-1.97,0-3.75-.37-5.35-1.1-1.6-.73-2.88-1.83-3.83-3.3-.95-1.47-1.42-3.28-1.42-5.45V10.45c0-3.4.95-5.99,2.85-7.78Zm3.27,25.65c.38.78.95,1.38,1.7,1.8.75.42,1.66.62,2.72.62s1.97-.22,2.7-.65c.73-.43,1.3-1.05,1.7-1.85.4-.8.6-1.72.6-2.75v-13.45c0-1.43-.15-2.6-.45-3.5-.3-.9-.82-1.57-1.55-2.02s-1.73-.68-3-.68c-1.17,0-2.12.22-2.85.65-.73.43-1.28,1.11-1.62,2.03-.35.92-.53,2.09-.53,3.52v13.5c0,1.07.19,1.99.58,2.78Z"/>
        <path class="cls-1" d="m89.59,4.2c.42-.13.94-.33,1.58-.6.63-.27,1.28-.62,1.95-1.07.67-.45,1.22-1.01,1.65-1.68h5.5v35h-5.55l.05-27.95c-.23.2-.58.38-1.05.55-.47.17-.94.31-1.42.42-.48.12-.88.2-1.2.25-.32.05-.46.08-.42.08l-1.65-4.8s.16-.07.57-.2Z"/>
      </g>
    </g>
  </g>
</svg>