<?xml version="1.0" encoding="UTF-8"?>
<svg id="_レイヤー_2" data-name="レイヤー 2" xmlns="http://www.w3.org/2000/svg" viewBox="0 0 71.33 90.86">
  <defs>
    <style>
      .cls-1 {
        fill: #00833e;
        stroke-width: 0px;
      }
    </style>
  </defs>
  <g id="_レイヤー_2-2" data-name="レイヤー 2">
    <g>
      <g>
        <path class="cls-1" d="m10.21,3.25c-.4-.11-.81-.2-1.22-.25-.41-.06-.83-.08-1.26-.08-.3,0-.63.03-.99.1-.36.07-.71.17-1.05.32s-.61.35-.83.62c-.21.26-.32.59-.32.98s.14.74.41,1.05c.27.31.63.59,1.08.85.45.26.96.52,1.53.77.57.25,1.16.52,1.76.81.61.29,1.19.61,1.76.97.57.35,1.08.77,1.53,1.23.45.47.81,1.01,1.08,1.62.27.62.41,1.33.41,2.13,0,1.05-.19,1.94-.56,2.69-.37.75-.89,1.36-1.55,1.83-.66.48-1.41.83-2.25,1.05s-1.73.34-2.66.34c-.8,0-1.6-.11-2.39-.32s-1.54-.53-2.24-.94c-.7-.41-1.32-.92-1.86-1.54l1.71-2.07c.41.43.88.79,1.41,1.08.53.29,1.09.51,1.68.66s1.17.22,1.75.22c.45,0,.89-.06,1.32-.18.43-.12.82-.3,1.18-.55.35-.24.63-.55.84-.92.21-.37.31-.81.31-1.32s-.13-.95-.39-1.33c-.26-.38-.62-.73-1.06-1.04-.45-.31-.95-.6-1.51-.87s-1.13-.54-1.72-.81c-.59-.27-1.16-.57-1.72-.9s-1.06-.7-1.51-1.12c-.45-.42-.8-.91-1.06-1.46-.26-.55-.39-1.19-.39-1.92,0-.9.2-1.66.59-2.28.39-.62.91-1.13,1.55-1.51.64-.38,1.34-.66,2.09-.84S7.08.06,7.79.06c.52,0,1.04.04,1.54.11.5.07,1.01.19,1.51.34.5.15.98.35,1.43.59l-.9,2.58c-.37-.17-.76-.31-1.16-.42Z"/>
        <path class="cls-1" d="m24.92,3.23c-.49-.08-.94-.13-1.37-.13-.62,0-1.13.08-1.55.25s-.74.43-.97.78c-.22.35-.34.82-.34,1.4v9.18c0,.58.1,1.04.31,1.39s.5.6.88.76c.38.16.85.24,1.41.24s1.15-.06,1.71-.17c.56-.11,1.05-.23,1.47-.36.42-.13.68-.21.77-.22l.45,2.94c-.8.3-1.59.54-2.35.71-.77.18-1.5.27-2.21.27-1.16,0-2.15-.21-2.98-.63s-1.47-1.04-1.9-1.86c-.44-.82-.66-1.82-.66-3V5.63c0-1.23.24-2.27.71-3.11s1.12-1.47,1.93-1.89,1.73-.63,2.76-.63c.67,0,1.34.08,2.02.24.67.16,1.34.41,2.02.74l-.84,2.6c-.35-.15-.77-.27-1.26-.35Z"/>
        <path class="cls-1" d="m31.24.34h9.38v3.08h-6.27v4.93h3.84l-.87,2.94h-2.97v5.82h6.22v2.83h-9.32V.34Z"/>
        <path class="cls-1" d="m58.08,19.94h-3.14l-7.59-13.27v13.27h-3.11V.34h3.11l7.59,13.69V.34h3.14v19.6Z"/>
        <path class="cls-1" d="m61.95.34h9.38v3.08h-6.27v4.93h3.84l-.87,2.94h-2.97v5.82h6.22v2.83h-9.32V.34Z"/>
      </g>
      <g>
        <path class="cls-1" d="m4.56,36.9c3.04-2.85,7.2-4.28,12.48-4.28s9.39,1.49,12.32,4.48c2.93,2.99,4.4,7.09,4.4,12.32v25.68c0,3.25-.69,6.07-2.08,8.44-1.39,2.37-3.35,4.19-5.88,5.44-2.53,1.25-5.48,1.88-8.84,1.88-3.15,0-6-.59-8.56-1.76-2.56-1.17-4.6-2.93-6.12-5.28-1.52-2.35-2.28-5.25-2.28-8.72v-25.76c0-5.44,1.52-9.59,4.56-12.44Zm5.24,41.04c.61,1.25,1.52,2.21,2.72,2.88,1.2.67,2.65,1,4.36,1s3.15-.35,4.32-1.04c1.17-.69,2.08-1.68,2.72-2.96.64-1.28.96-2.75.96-4.4v-21.52c0-2.29-.24-4.16-.72-5.6s-1.31-2.52-2.48-3.24c-1.17-.72-2.77-1.08-4.8-1.08-1.87,0-3.39.35-4.56,1.04-1.17.69-2.04,1.77-2.6,3.24-.56,1.47-.84,3.35-.84,5.64v21.6c0,1.71.31,3.19.92,4.44Z"/>
        <path class="cls-1" d="m44.6,37.62c1.41-1.41,3.07-2.51,4.96-3.28,1.89-.77,3.91-1.16,6.04-1.16,2.4,0,4.68.51,6.84,1.52,2.16,1.01,3.92,2.52,5.28,4.52,1.36,2,2.04,4.52,2.04,7.56,0,2.45-.47,4.73-1.4,6.84-.93,2.11-2.15,4.28-3.64,6.52l-14.4,21.76h19.68v8.08h-29.92v-8.16l17.6-25.68c1.07-1.55,1.84-2.81,2.32-3.8.48-.99.79-1.85.92-2.6.13-.75.2-1.49.2-2.24,0-1.28-.27-2.35-.8-3.2-.53-.85-1.23-1.49-2.08-1.92-.85-.43-1.76-.64-2.72-.64-1.01-.05-1.96.12-2.84.52-.88.4-1.67.96-2.36,1.68-.69.72-1.23,1.59-1.6,2.6l-7.36-3.76c.75-2.03,1.83-3.75,3.24-5.16Z"/>
      </g>
    </g>
  </g>
</svg>