<?xml version="1.0" encoding="UTF-8"?>
<svg id="_レイヤー_2" data-name="レイヤー 2" xmlns="http://www.w3.org/2000/svg" viewBox="0 0 97.87 40.44">
  <defs>
    <style>
      .cls-1 {
        fill: #008a7c;
      }
    </style>
  </defs>
  <g id="_レイヤー_1-2" data-name="レイヤー 1">
    <g>
      <path class="cls-1" d="M0,34.86l5.88-7.08c2.76,2.22,6.24,3.78,9.12,3.78,3.12,0,4.44-1.02,4.44-2.76,0-1.86-1.98-2.46-5.28-3.78l-4.86-2.04c-4.2-1.68-7.86-5.22-7.86-10.86C1.44,5.46,7.44,0,15.96,0c4.44,0,9.36,1.68,12.96,5.22l-5.16,6.48c-2.64-1.86-4.92-2.82-7.8-2.82-2.52,0-4.08.9-4.08,2.64,0,1.86,2.22,2.52,5.76,3.9l4.74,1.86c4.86,1.92,7.62,5.28,7.62,10.68,0,6.6-5.52,12.48-15.24,12.48-4.92,0-10.56-1.8-14.76-5.58Z"/>
      <path d="M34.15,32.22c0-4.98,3.6-7.86,7.44-7.86s7.44,2.88,7.44,7.86-3.6,7.86-7.44,7.86-7.44-2.88-7.44-7.86ZM43.75,32.22c0-2.28-.6-3.72-2.16-3.72s-2.16,1.44-2.16,3.72.6,3.72,2.16,3.72,2.16-1.44,2.16-3.72Z"/>
      <path d="M51.11,32.22c0-4.98,3.78-7.86,8.04-7.86,1.8,0,3.24.6,4.38,1.56l-2.4,3.3c-.66-.54-1.14-.72-1.68-.72-1.92,0-3.06,1.44-3.06,3.72s1.26,3.72,2.88,3.72c.84,0,1.68-.42,2.4-.96l1.98,3.36c-1.5,1.32-3.42,1.74-4.98,1.74-4.26,0-7.56-2.88-7.56-7.86Z"/>
      <path d="M65.66,20.28c0-1.5,1.2-2.58,2.88-2.58s2.88,1.08,2.88,2.58-1.2,2.58-2.88,2.58-2.88-1.08-2.88-2.58ZM65.96,24.72h5.16v15h-5.16v-15Z"/>
      <path d="M73.97,35.46c0-3.12,2.4-4.86,8.16-5.46-.12-1.08-.78-1.56-2.1-1.56-1.08,0-2.22.42-3.78,1.26l-1.8-3.36c2.1-1.26,4.26-1.98,6.6-1.98,3.9,0,6.24,2.1,6.24,7.02v8.34h-4.2l-.36-1.44h-.12c-1.2,1.08-2.52,1.8-4.14,1.8-2.82,0-4.5-2.16-4.5-4.62ZM82.13,35.1v-2.04c-2.46.36-3.24,1.14-3.24,1.98,0,.69.48,1.08,1.38,1.08.84,0,1.32-.42,1.86-1.02Z"/>
      <path d="M90.73,34.44v-15.6h5.16v15.78c0,1.02.48,1.32.84,1.32.18,0,.3,0,.54-.06l.6,3.78c-.54.24-1.38.42-2.52.42-3.48,0-4.62-2.28-4.62-5.64Z"/>
    </g>
  </g>
</svg>