<?xml version="1.0" encoding="UTF-8"?>
<svg id="_レイヤー_2" data-name="レイヤー 2" xmlns="http://www.w3.org/2000/svg" viewBox="0 0 120 45">
  <defs>
    <style>
      .cls-1 {
        fill: #fff;
      }

      .cls-1, .cls-2 {
        stroke-width: 0px;
      }

      .cls-2 {
        fill: #00833e;
      }
    </style>
  </defs>
  <g id="_レイヤー_2-2" data-name="レイヤー 2">
    <g>
      <g>
        <rect class="cls-1" x="1" y="1" width="118" height="43"/>
        <path class="cls-2" d="m118,2v41H2V2h116m2-2H0v45h120V0h0Z"/>
      </g>
      <g>
        <path class="cls-2" d="m26.76,14.76c-.49-.14-.98-.24-1.48-.31-.5-.07-1.01-.1-1.53-.1-.36,0-.77.04-1.21.12-.44.08-.87.21-1.27.39-.41.18-.74.43-1,.75-.26.32-.39.71-.39,1.19s.16.9.49,1.27.77.72,1.31,1.04,1.16.63,1.85.94c.69.31,1.41.63,2.14.99.74.35,1.45.74,2.14,1.17.69.43,1.31.93,1.85,1.5.54.57.98,1.22,1.31,1.97s.49,1.61.49,2.58c0,1.27-.23,2.36-.68,3.26-.45.91-1.08,1.65-1.89,2.23-.8.58-1.72,1-2.74,1.27-1.02.27-2.1.41-3.23.41-.97,0-1.94-.13-2.91-.39-.96-.26-1.87-.64-2.72-1.14-.85-.5-1.6-1.12-2.26-1.87l2.07-2.52c.5.52,1.07.96,1.72,1.31.65.35,1.33.62,2.04.8.71.18,1.42.27,2.12.27.54,0,1.08-.07,1.6-.22s1-.37,1.43-.66c.43-.29.77-.67,1.02-1.12.25-.45.37-.99.37-1.6s-.16-1.15-.48-1.61c-.32-.46-.75-.88-1.29-1.26s-1.16-.73-1.84-1.05-1.38-.66-2.09-.99c-.71-.33-1.41-.69-2.09-1.09-.68-.4-1.29-.85-1.84-1.36s-.97-1.1-1.29-1.77c-.32-.67-.48-1.44-.48-2.33,0-1.09.24-2.01.71-2.77.48-.76,1.1-1.37,1.89-1.84.78-.46,1.63-.8,2.53-1.02.91-.21,1.79-.32,2.65-.32.63,0,1.26.05,1.87.14.61.09,1.22.23,1.84.41.61.18,1.19.42,1.73.71l-1.09,3.13c-.45-.2-.92-.37-1.41-.51Z"/>
        <path class="cls-2" d="m42.83,35.03h-3.74V15h-4.96v-3.77h13.74v3.77h-5.03v20.03Z"/>
        <path class="cls-2" d="m51.89,11.23h11.39v3.74h-7.62v5.98h4.66l-1.05,3.57h-3.6v7.07h7.55v3.43h-11.32V11.23Z"/>
        <path class="cls-2" d="m77.69,11.6c.88.25,1.69.68,2.41,1.29.73.61,1.3,1.47,1.73,2.57.43,1.1.65,2.49.65,4.17,0,1.86-.21,3.36-.63,4.51-.42,1.14-.99,2.02-1.72,2.63-.73.61-1.52,1.03-2.4,1.26-.87.23-1.77.34-2.7.34h-3.64v6.66h-3.77V11.23h7.41c.88,0,1.77.12,2.65.37Zm-4.05,13.19c.88,0,1.64-.06,2.28-.17.63-.11,1.16-.35,1.56-.7.41-.35.71-.87.9-1.55.19-.68.29-1.6.29-2.75,0-1.06-.1-1.91-.29-2.53-.19-.62-.49-1.09-.9-1.39-.41-.31-.93-.5-1.56-.6-.63-.09-1.39-.14-2.28-.14h-2.24v9.83h2.24Z"/>
        <path class="cls-2" d="m94.71,12.77c.6-.6,1.3-1.06,2.11-1.39.8-.33,1.66-.49,2.57-.49,1.02,0,1.99.22,2.91.65.92.43,1.67,1.07,2.24,1.92s.87,1.92.87,3.21c0,1.04-.2,2.01-.6,2.91-.4.9-.91,1.82-1.55,2.77l-6.12,9.25h8.36v3.43h-12.72v-3.47l7.48-10.91c.45-.66.78-1.2.99-1.61.2-.42.33-.79.39-1.1s.08-.63.08-.95c0-.54-.11-1-.34-1.36-.23-.36-.52-.63-.88-.82-.36-.18-.75-.27-1.16-.27-.43-.02-.83.05-1.21.22s-.71.41-1,.71c-.29.31-.52.67-.68,1.1l-3.13-1.6c.32-.86.78-1.59,1.38-2.19Z"/>
      </g>
    </g>
  </g>
</svg>