<svg id="_レイヤー_2" xmlns="http://www.w3.org/2000/svg" viewBox="0 0 680 66.49"><defs><style>.cls-1{fill:#3e3a39}</style></defs><g id="_レイヤー_2-2"><path class="cls-1" d="M18.5 66.32c-8.92 0-14.7-4.24-18.5-9.58l6.69-7.04c3.39 4.41 6.77 6.95 11.65 6.95 5.45 0 9.17-3.73 9.17-11.61V6.13h10.41V45.3c0 14.07-8.01 21.02-19.41 21.02M87.16 65.47 72.95 44.79H60.23v20.68H50.07V6.13h25.77c13.3 0 21.48 7.2 21.48 18.82 0 9.83-5.7 15.77-13.79 18.06l15.61 22.46H87.16ZM75.02 15.63H60.23v19.92H75.1c7.27 0 11.89-3.9 11.89-10 0-6.53-4.46-9.92-11.98-9.92M150.87 15.46h-32.71v15.43h28.99v9.32h-28.99v15.94h33.12v9.32H108V6.13h42.87v9.33zM194.68 46.4H183.2v19.07h-10.16V6.13h22.8c13.46 0 21.97 7.8 21.97 19.92 0 13.39-10.41 20.34-23.13 20.34m.33-30.77H183.2v21.36h11.81c7.68 0 12.47-4.32 12.47-10.68 0-7.04-4.87-10.68-12.47-10.68M255.09 66.49c-17.76 0-30.15-13.82-30.15-30.6S237.5 5.12 255.25 5.12s30.15 13.82 30.15 30.6-12.56 30.77-30.32 30.77m0-51.79c-11.48 0-19.49 9.41-19.49 21.02s8.18 21.19 19.66 21.19 19.49-9.41 19.49-21.02-8.18-21.19-19.66-21.19M293.98 6.13h10.16v59.34h-10.16zM353.51 6.13h9.99v59.34H355l-31.89-42.21v42.21h-9.99V6.13h9.41l30.98 41.03V6.13zM402.46 65.47h-10.24V15.8h-18.34V6.13h46.92v9.67h-18.34v49.67zM461.63 30.65c3.84 3.94 5.79 8.89 5.79 14.48 0 8.18-4.19 15.18-11.18 19.01-1.32.71-4.87 2.35-6.25 2.35-1.49 0-3.84-3.65-3.84-4.94 0-.59.86-.71 1.43-.82 7.51-1.82 13.42-6.89 13.42-15.3 0-6.3-3.21-11.95-9.17-14.06-.52-.18-1.66-.53-2.18-.53-1.32 0-1.32 1.29-1.38 2.3-.63 8.59-2.64 19.07-8.14 25.83-1.89 2.35-4.41 4.53-7.57 4.53-3.5 0-6.25-2.59-7.8-5.59-1.26-2.41-1.78-5.59-1.78-8.36 0-13.77 10.26-24.72 23.8-24.72 5.62 0 10.78 1.71 14.85 5.83m-22.31 1.71C432.78 35.55 429 41.84 429 49.32c0 2.18.74 7.65 3.67 7.65s6.08-6.71 7.68-12.71c.75-2.82 1.83-8.65 1.83-11.47 0-.59-.29-1.06-.92-1.06-.46 0-1.49.41-1.95.65M502.92 65.22c-17.25 0-24.58-3.29-24.58-11.2 0-7.05 6.26-12.81 6.26-12.81.63-.58 1.68-.6 2.33-.05l4.26 3.57c.65.55.66 1.46.02 2.02 0 0-3.11 2.74-3.11 5.56 0 2.19.53 4.39 13.51 4.39 11.53 0 22.07-2.19 22.07-2.19.83-.17 1.56.38 1.61 1.23l.36 6.3c.05.85-.6 1.63-1.45 1.73 0 0-11.97 1.46-21.28 1.46Zm2.31-34.38c-.64.56-1.64.51-2.23-.11l-3.15-3.37c-.58-.62-.54-1.6.09-2.18l5.43-5.02c.62-.58.44-1.01-.41-.96 0 0-4.41.29-10.21.29-4.58 0-8.83-.23-8.83-.23-.85-.05-1.73-.76-1.95-1.58l-1.49-5.62c-.22-.82.3-1.42 1.14-1.33 0 0 11.28 1.24 17.69 1.24 5.8 0 15.86-1.09 15.86-1.09.85-.09 1.87.45 2.28 1.2l1.96 3.62c.41.75.19 1.79-.48 2.32l-15.7 12.83Zm26.45-10.53c-.58.62-1.48.58-2-.1l-4.27-4.67a1.57 1.57 0 0 1-.07-2.2l1.17-1.26a1.57 1.57 0 0 1 2.2-.09l4.21 4.72c.54.66.5 1.72-.08 2.34l-1.17 1.26Zm4.05-8.69c-.58.62-1.48.58-2-.1l-4.2-4.36c-.62-.59-.64-1.58-.06-2.21l1.17-1.26c.58-.62 1.59-.68 2.24-.13l4.26 4.27c.57.63.57 1.66-.02 2.28l-1.4 1.49ZM589.29 50.21c4.54 4.03 10.15 6.62 16.07 7.81.55.11.81.75.49 1.22l-3.22 4.78a.77.77 0 0 1-.8.32c-8.64-1.99-15.61-6.8-19.54-11.12-.47-.52-1.32-.18-1.32.53V65.3c0 .43-.34.79-.77.79h-6.48c-.42 0-.77-.35-.77-.79V53.99c0-.67-.76-1.03-1.26-.59-5.85 5.13-14.75 9.52-20.19 11.48-.3.11-.63 0-.83-.24l-3.99-4.85a.783.783 0 0 1 .4-1.26c5.98-1.61 12.38-4.46 17.13-8.3.57-.46.24-1.4-.48-1.4h-16.27c-.42 0-.77-.35-.77-.79v-4.58c0-.43.34-.79.77-.79h24.74c.42 0 .77-.35.77-.79v-2.25c0-.44.36-.8.79-.78l7.15.27c.14 0 1.23.07 1.23.74 0 .3-.22.44-.43.67-.15.26-.34.45-.52.64a.83.83 0 0 0-.21.54v.19c0 .43.34.79.77.79h25.54c.42 0 .77.35.77.79v4.58c0 .43-.34.79-.77.79h-17.48c-.71 0-1.04.91-.5 1.38Z"/><path class="cls-1" d="M595.09 22.98h12.11c.42 0 .77-.35.77-.79v-4.58c0-.43-.34-.79-.77-.79h-29.82c-.62 0-.98-.71-.63-1.24.26-.38.5-.77.81-1.3.1-.17.25-.3.43-.35.61-.18 1.46-.54 1.46-1.11 0-.44-.43-.74-1.73-.96l-4.26-.81h24.42c.42 0 .77.35.77.79v2.06c0 .43.34.79.77.79h6.48c.42 0 .77-.35.77-.79V5.84c0-.43-.34-.79-.77-.79h-23.44c-.42 0-.77-.35-.77-.79v-.68c0-.18.05-.34.16-.48.21-.27.55-.61.93-.94.36-.3.51-.52.51-.74 0-.67-1.15-.81-1.59-.81L573.56 0a.778.778 0 0 0-.82.78v3.48c0 .43-.34.79-.77.79h-23.15c-.42 0-.77.35-.77.79v8.13c0 .43.34.79.77.79h6.19c.42 0 .77-.35.77-.79v-2.13c0-.43.34-.79.77-.79h12.8c.61 0 .97.69.64 1.21-.99 1.6-1.79 2.68-3.08 4.27-.15.18-.37.29-.59.29h-18.94c-.42 0-.77.35-.77.79v4.58c0 .43.34.79.77.79h12.12c.68 0 1.02.86.53 1.35a56.574 56.574 0 0 1-3.16 2.97c-.43.37-.34 1.08.17 1.32l5.9 2.76c.27.13.58.08.81-.11.32-.27.72-.67 1.42-1.35.17-.17.42-.24.66-.2 1.56.26 2.65.48 3.89.77.75.17.82 1.24.1 1.51-4.09 1.51-9.56 2.4-15.13 2.4-1.2 0-2.17-.03-3.01-.07-.59-.03-.98.6-.72 1.14l2.29 4.64c.13.27.41.44.71.43 13.9-.37 22.43-4.39 27.05-6.54a.72.72 0 0 1 .5-.04c3.73 1.02 11.5 4.46 16.23 7.1.32.18.72.1.95-.19l3.82-4.68c.31-.39.2-.98-.23-1.21-4.03-2.12-8.27-3.64-12.66-5.1-.58-.19-.72-.96-.25-1.35 1.5-1.27 2.6-2.44 5.16-5.28.14-.16.35-.26.57-.26Zm-16.13 3.77c-1.6-.37-4.7-1.13-7.93-1.64-.59-.09-.85-.81-.47-1.28.17-.2.33-.4.45-.56.14-.18.36-.29.59-.29h10.04c.69 0 1.02.85.54 1.35-.75.76-1.53 1.45-2.58 2.28-.18.14-.42.2-.64.15ZM666.36 62.96l-1.79-5.14c-.37-1.05.42-2.15 1.51-2.1.71.04 1.57.06 2.59.06 2.24 0 3.46-.22 3.46-2.37V22.1c0-.87-.69-1.57-1.53-1.57h-13.76c-1.01 0-1.74.98-1.48 1.98 1.96 7.48 5.62 14.11 14.49 19.08.92.52 1.09 1.81.32 2.54l-3.89 3.67c-.51.48-1.27.55-1.86.17-5.23-3.36-8.72-6.83-12.12-12.99-.58-1.05-2.05-1.08-2.64-.04-3.14 5.48-6.73 9.32-11.72 13.43-.58.48-1.43.45-1.98-.07l-3.98-3.72c-.74-.69-.64-1.91.2-2.47 8.04-5.45 11.74-11.56 13.53-19.66.22-.98-.52-1.92-1.5-1.92h-12.47c-.85 0-1.53.7-1.53 1.57v39.53c0 .87-.69 1.57-1.53 1.57h-5.1c-.85 0-1.53-.7-1.53-1.57v-47.6c0-.87.69-1.57 1.53-1.57h21.55c.85 0 1.53-.7 1.53-1.57 0-4.91-.05-6.9-.13-8.65-.04-.92.69-1.68 1.59-1.64l8 .31c.43 0 .87.3.87.74 0 .59-.58.89-.87 1.11-.87.52-1.08 1.04-1.08 1.41-.06.34-.07 4.33-.07 6.73 0 .87.68 1.57 1.53 1.57h21.98c.85 0 1.53.7 1.53 1.57v42.34c0 6.35-2.75 7.55-12.18 7.62-.65 0-1.24-.41-1.46-1.04Z"/></g></svg>