<svg id="_レイヤー_2" xmlns="http://www.w3.org/2000/svg" viewBox="0 0 589.8 181.41"><defs><style>.cls-1{fill:#3e3a39}</style></defs><g id="_レイヤー_2-2"><path class="cls-1" d="M23.25 74.93C12.04 74.93 4.78 69.74 0 63.2l8.41-8.61c4.26 5.4 8.51 8.51 14.63 8.51 6.85 0 11.52-4.57 11.52-14.22V1.25h13.08v47.94c0 17.23-10.07 25.74-24.39 25.74M109.51 73.89 91.66 48.57H75.68v25.32H62.91V1.25h32.38c16.71 0 26.98 8.82 26.98 23.04 0 12.04-7.16 19.3-17.33 22.11l19.61 27.5H109.5ZM94.25 12.87H75.67v24.39h18.68c9.13 0 14.94-4.77 14.94-12.25 0-7.99-5.6-12.14-15.05-12.14M189.56 12.66h-41.1v18.89h36.43v11.42h-36.43v19.51h41.62v11.41h-54.39V1.25h53.87v11.41zM244.6 50.54h-14.43v23.35H217.4V1.25h28.64c16.92 0 27.61 9.55 27.61 24.39 0 16.4-13.08 24.91-29.06 24.91m.42-37.67h-14.84v26.15h14.84c9.65 0 15.67-5.29 15.67-13.08 0-8.61-6.12-13.08-15.67-13.08M320.49 75.14c-22.31 0-37.88-16.92-37.88-37.47S298.39 0 320.7 0s37.88 16.92 37.88 37.47-15.78 37.67-38.09 37.67m0-63.41c-14.43 0-24.49 11.52-24.49 25.74s10.27 25.95 24.7 25.95 24.49-11.52 24.49-25.74-10.27-25.95-24.7-25.95M369.36 1.25h12.77V73.9h-12.77zM444.15 1.25h12.56v72.64h-10.69l-40.06-51.68v51.68H393.4V1.25h11.83l38.92 50.23V1.25zM505.66 73.89h-12.87V13.08h-23.04V1.25h58.95v11.83h-23.04v60.81zM582.53 31.26c4.83 4.83 7.28 10.88 7.28 17.72 0 10.01-5.26 18.59-14.05 23.27-1.66.86-6.12 2.88-7.85 2.88-1.87 0-4.83-4.47-4.83-6.05 0-.72 1.08-.86 1.8-1.01 9.44-2.23 16.86-8.43 16.86-18.73 0-7.71-4.03-14.63-11.53-17.22-.65-.22-2.09-.65-2.74-.65-1.66 0-1.66 1.59-1.73 2.81-.79 10.52-3.31 23.34-10.23 31.63-2.38 2.88-5.55 5.55-9.51 5.55-4.39 0-7.85-3.17-9.8-6.84-1.59-2.95-2.23-6.84-2.23-10.23 0-16.86 12.9-30.26 29.9-30.26 7.06 0 13.54 2.09 18.66 7.13m-28.03 2.09c-8.21 3.89-12.97 11.6-12.97 20.75 0 2.67.94 9.37 4.61 9.37s7.64-8.21 9.65-15.56c.94-3.46 2.31-10.59 2.31-14.05 0-.72-.36-1.3-1.15-1.3-.58 0-1.87.5-2.45.79M196.23 180.31c-22.55 0-32.12-4.19-32.12-14.27 0-8.98 8.19-16.32 8.19-16.32.82-.73 2.19-.77 3.04-.07l5.58 4.55c.85.7.87 1.85.03 2.57 0 0-4.07 3.49-4.07 7.08 0 2.79.7 5.59 17.66 5.59 15.06 0 28.87-2.8 28.87-2.8 1.08-.22 2.01.5 2.08 1.6l.47 7.98c.06 1.1-.78 2.1-1.87 2.23 0 0-15.67 1.86-27.84 1.86Zm3.02-43.8c-.84.71-2.15.64-2.91-.15l-4.12-4.3c-.76-.79-.71-2.04.11-2.77l7.1-6.4c.81-.74.58-1.29-.52-1.22 0 0-5.79.37-13.37.37-5.99 0-11.57-.29-11.57-.29-1.1-.06-2.23-.97-2.52-2.03l-1.94-7.12c-.29-1.06.37-1.83 1.46-1.72 0 0 14.77 1.58 23.15 1.58 7.58 0 20.76-1.39 20.76-1.39 1.09-.12 2.43.58 2.96 1.54l2.55 4.58c.53.96.26 2.3-.62 2.97l-20.53 16.34Zm34.58-13.42c-.76.8-1.94.74-2.62-.13l-5.58-5.95c-.81-.75-.84-2.01-.08-2.81l1.53-1.6c.76-.8 2.06-.85 2.88-.12l5.5 6.02c.7.85.66 2.19-.1 2.98l-1.53 1.6Zm5.29-11.07c-.76.79-1.94.74-2.62-.13l-5.48-5.54a1.98 1.98 0 0 1-.08-2.81l1.53-1.6c.76-.8 2.08-.87 2.92-.17l5.57 5.45c.75.8.74 2.11-.02 2.91l-1.82 1.9ZM309.12 161.19c5.94 5.13 13.27 8.43 21 9.94.71.14 1.06.95.64 1.55l-4.21 6.09c-.23.34-.65.5-1.05.41-11.3-2.53-20.4-8.66-25.54-14.17-.62-.66-1.73-.23-1.73.68v14.71c0 .55-.45 1-1 1h-8.47c-.55 0-1-.45-1-1v-14.41c0-.86-1-1.31-1.65-.76-7.64 6.53-19.28 12.12-26.39 14.62-.39.14-.82.01-1.09-.3l-5.22-6.18c-.48-.56-.2-1.42.52-1.61 7.81-2.05 16.18-5.68 22.39-10.57.74-.58.31-1.78-.63-1.78h-21.27c-.55 0-1-.45-1-1v-5.83c0-.55.45-1 1-1h32.34c.55 0 1-.45 1-1v-2.87a1 1 0 0 1 1.04-1l9.34.34c.19 0 1.6.09 1.6.94 0 .38-.28.57-.57.85-.2.33-.45.57-.67.82-.17.19-.27.43-.27.68v.24c0 .55.45 1 1 1h33.38c.55 0 1 .45 1 1v5.83c0 .55-.45 1-1 1h-22.85c-.93 0-1.36 1.16-.66 1.76Z"/><path class="cls-1" d="M316.71 126.5h15.83c.55 0 1-.45 1-1v-5.83c0-.55-.45-1-1-1h-38.98a.999.999 0 0 1-.82-1.57c.34-.48.66-.99 1.06-1.66.13-.21.33-.38.56-.45.79-.23 1.91-.68 1.91-1.41 0-.57-.57-.94-2.26-1.23l-5.57-1.04h31.93c.55 0 1 .45 1 1v2.62c0 .55.45 1 1 1h8.47c.55 0 1-.45 1-1v-10.26c0-.55-.45-1-1-1H300.2c-.55 0-1-.45-1-1v-.87c0-.22.07-.44.21-.61.27-.35.71-.77 1.21-1.2.47-.38.66-.66.66-.94 0-.85-1.51-1.04-2.08-1.04l-10.63-.77c-.58-.04-1.07.42-1.07 1v4.43c0 .55-.45 1-1 1h-30.27c-.55 0-1 .45-1 1v10.36c0 .55.45 1 1 1h8.09c.55 0 1-.45 1-1v-2.72c0-.55.45-1 1-1h16.73c.79 0 1.27.88.84 1.54-1.3 2.03-2.35 3.41-4.02 5.44-.19.23-.48.37-.78.37h-24.76c-.55 0-1 .45-1 1v5.83c0 .55.45 1 1 1h15.84c.89 0 1.33 1.09.7 1.72-1.85 1.82-3.09 2.91-4.14 3.78a1 1 0 0 0 .22 1.68l7.72 3.52a1 1 0 0 0 1.06-.14c.41-.35.94-.86 1.86-1.72.23-.21.55-.31.86-.26 2.04.34 3.47.61 5.09.99.97.22 1.07 1.58.13 1.92-5.34 1.92-12.49 3.05-19.77 3.05-1.57 0-2.84-.04-3.94-.09a.995.995 0 0 0-.94 1.45l2.99 5.91c.18.35.54.56.93.55 18.16-.48 29.32-5.59 35.36-8.33.21-.1.43-.12.66-.06 4.87 1.3 15.03 5.68 21.21 9.05.42.23.94.13 1.24-.24l4.99-5.96c.41-.49.27-1.25-.3-1.54-5.27-2.7-10.8-4.63-16.55-6.49a.998.998 0 0 1-.33-1.72c1.96-1.62 3.4-3.1 6.74-6.73a1 1 0 0 1 .74-.33Zm-21.09 4.8c-2.1-.47-6.14-1.45-10.37-2.09a.998.998 0 0 1-.61-1.63c.22-.26.43-.51.59-.71.19-.23.47-.37.78-.37h13.13c.9 0 1.34 1.09.7 1.72-.98.97-2 1.84-3.37 2.9-.24.18-.55.25-.84.19ZM409.86 177.43l-2.33-6.55a2 2 0 0 1 1.98-2.67c.93.05 2.05.08 3.38.08 2.92 0 4.53-.28 4.53-3.02v-39.89c0-1.1-.9-2-2-2h-17.99c-1.32 0-2.28 1.25-1.94 2.52 2.56 9.52 7.35 17.97 18.93 24.3 1.21.66 1.42 2.3.41 3.23l-5.08 4.68c-.67.61-1.66.7-2.43.21-6.83-4.28-11.4-8.7-15.84-16.55-.75-1.34-2.68-1.37-3.46-.05-4.11 6.98-8.79 11.87-15.32 17.11a2 2 0 0 1-2.59-.09l-5.2-4.73c-.97-.88-.83-2.43.26-3.15 10.52-6.95 15.34-14.73 17.68-25.04.28-1.25-.67-2.44-1.96-2.44h-16.3c-1.1 0-2 .9-2 2v50.34c0 1.1-.9 2-2 2h-6.66c-1.1 0-2-.9-2-2v-60.63c0-1.1.9-2 2-2h28.17a2 2 0 0 0 2-2c0-6.25-.07-8.78-.17-11.02a2 2 0 0 1 2.07-2.09l10.46.39c.57 0 1.13.38 1.13.94 0 .75-.75 1.13-1.13 1.42-1.13.66-1.42 1.32-1.42 1.79-.07.44-.09 5.51-.09 8.57 0 1.11.89 2 2 2h28.74c1.1 0 2 .9 2 2v53.95c0 8.09-3.59 9.61-15.92 9.71-.85 0-1.62-.52-1.91-1.33Z"/></g></svg>