<?xml version="1.0" encoding="UTF-8"?>
<svg id="_レイヤー_2" data-name="レイヤー 2" xmlns="http://www.w3.org/2000/svg" viewBox="0 0 676.43 65.54">
  <defs>
    <style>
      .cls-1 {
        fill: #221815;
        stroke-width: 0px;
      }
    </style>
  </defs>
  <g id="_レイヤー_2-2" data-name="レイヤー 2">
    <g>
      <g>
        <path class="cls-1" d="m0,47.01h8.04c.05,2.1.17,3.71.38,4.81,1.1,5.96,4.16,8.94,9.17,8.94,2.75,0,5.03-.83,6.84-2.48,1.5-1.4,2.53-3.26,3.08-5.56.4-1.65.6-3.71.6-6.16V6.96h7.29v39.37c0,4.31-.55,7.54-1.65,9.69-1.45,2.81-3.73,4.91-6.84,6.31-2.55,1.1-5.58,1.65-9.09,1.65-3.86,0-7.29-.75-10.29-2.25-3.16-1.6-5.33-4.36-6.54-8.26-.5-1.5-.83-3.66-.98-6.46Z"/>
        <path class="cls-1" d="m72.29,37.47h-13.9v26h-7.29V7.49h22.84c3.61,0,6.44.35,8.49,1.05,2.7.85,4.78,2.25,6.24,4.21,1.8,2.45,2.71,5.59,2.71,9.39,0,7.81-3.83,12.65-11.5,14.5l14.5,26.82h-8.26l-13.82-26Zm-13.9-3.76h13.07c3.25,0,5.76-.5,7.51-1.5,1.35-.75,2.38-1.78,3.08-3.08,1.1-2.1,1.65-4.51,1.65-7.21,0-2.55-.53-4.81-1.58-6.76-1.4-2.6-4.41-3.91-9.02-3.91h-14.73v22.46Z"/>
        <path class="cls-1" d="m105.55,62.94V7.49h33.43l3.16-.6v5.11l-3.16-.68h-26.15v20.96h23.97l3.23-.68v5.18l-3.23-.68h-23.97v22.99h26.97l3.16-.68v5.18l-3.16-.68h-34.26Z"/>
        <path class="cls-1" d="m176.77,63.46V7.49h21.94c5.41,0,9.52,1.03,12.32,3.08,1.7,1.25,2.98,2.86,3.83,4.81.95,2.3,1.43,4.76,1.43,7.36,0,5.21-1.73,9.12-5.18,11.72-3.01,2.2-7.14,3.31-12.4,3.31h-14.65v25.7h-7.29Zm7.29-29.45h13.75c2.5,0,4.68-.5,6.54-1.5,1.7-.9,2.9-2.53,3.61-4.88.45-1.5.68-3.18.68-5.03,0-2.9-.58-5.33-1.73-7.29-1.55-2.7-4.58-4.06-9.09-4.06h-13.75v22.76Z"/>
        <path class="cls-1" d="m251.8,6.44c5.71,0,10.84,1.78,15.4,5.33,3.31,2.55,5.79,5.99,7.44,10.29,1.6,4.16,2.4,8.62,2.4,13.37,0,5.11-.93,9.77-2.78,13.97-1.9,4.26-4.68,7.66-8.34,10.22-4.21,2.91-9.04,4.36-14.5,4.36-6.56,0-12.17-2.1-16.83-6.31-3.11-2.8-5.39-6.39-6.84-10.74-1.25-3.76-1.88-7.71-1.88-11.87,0-5.26.95-9.99,2.86-14.2,1.95-4.31,4.73-7.69,8.34-10.14,4.26-2.85,9.17-4.28,14.73-4.28Zm-.6,3.23c-3.36,0-6.39,1-9.09,3.01-2.75,2-4.88,5.08-6.39,9.24-1.4,3.96-2.1,8.37-2.1,13.22,0,6.91,1.35,12.77,4.06,17.58,1.45,2.66,3.41,4.68,5.86,6.09,2.3,1.3,4.93,1.95,7.89,1.95,4.26,0,7.81-1.33,10.67-3.98,2.45-2.25,4.31-5.51,5.56-9.77,1.1-3.71,1.65-7.64,1.65-11.8,0-5.26-.8-9.94-2.4-14.05-2.96-7.66-8.19-11.5-15.7-11.5Z"/>
        <path class="cls-1" d="m290.3,63.46V6.96h7.36v56.5h-7.36Z"/>
        <path class="cls-1" d="m353.17,63.46l-35.54-45.6v45.6h-4.13V6.96h4.96l35.54,45.61V6.96h4.13v56.5h-4.96Z"/>
        <path class="cls-1" d="m396.39,11.32v52.14h-7.36V11.32h-16.53l-3.23.6v-5.03l3.23.6h40.42l3.23-.6v5.03l-3.23-.6h-16.53Z"/>
        <path class="cls-1" d="m445.25,28.04c-.9,7.1-2.37,13.38-4.41,18.85-1.59,4.29-3.51,7.63-5.76,10.02-2.22,2.39-4.4,3.58-6.54,3.58-1.42,0-2.75-.48-4-1.45-1.38-1.07-2.48-2.65-3.27-4.73-.8-2.15-1.19-4.57-1.19-7.27,0-3.6.78-6.91,2.34-9.92,1.63-3.15,3.86-5.73,6.7-7.74,3.88-2.7,8.6-4.05,14.18-4.05,4.92,0,9.1,1,12.57,3.01,2.7,1.59,4.81,3.69,6.33,6.28,1.66,2.84,2.49,6.06,2.49,9.66,0,4.47-1.28,8.36-3.84,11.68-1.45,1.9-3.43,3.55-5.92,4.93-3.08,1.77-6.56,2.96-10.44,3.58-.42.07-.93.14-1.56.21l-.42-1.61c2.15-.66,3.67-1.18,4.57-1.56,2.6-1.07,4.79-2.42,6.59-4.05,1.87-1.7,3.32-3.67,4.36-5.92,1.07-2.39,1.61-4.93,1.61-7.63,0-2.87-.64-5.57-1.92-8.1-1.07-2.08-2.56-3.79-4.47-5.14-1.83-1.32-3.95-2.15-6.33-2.49-.35-.07-.9-.12-1.66-.16Zm-4.57-.1c-4.67.52-8.45,2.42-11.32,5.71-3.36,3.84-5.04,8.38-5.04,13.6,0,3.46.59,6.3,1.77,8.52.42.76.97,1.35,1.66,1.77.31.17.64.26.99.26,1.7,0,3.63-2.2,5.82-6.59,2.39-4.88,4.22-11.18,5.5-18.9.17-1.04.38-2.49.62-4.36Z"/>
      </g>
      <g>
        <path class="cls-1" d="m484.17,36.22c-.56,1.22-.96,2.21-1.2,2.96-.66,1.74-.99,3.41-.99,5,0,3.66,1.62,6.34,4.86,8.03,2.16,1.17,4.49,1.97,6.98,2.4,3.76.61,7.73.92,11.91.92,7.56,0,14.96-.7,22.2-2.11v7.19c-6.72.89-13.53,1.34-20.44,1.34-5.59,0-10.64-.42-15.15-1.27-2.63-.47-5.14-1.39-7.54-2.75-2.16-1.27-3.85-2.89-5.07-4.86-1.13-1.83-1.69-3.81-1.69-5.92,0-3.66,1.27-7.63,3.81-11.91l2.33.99Zm37.42-19.87c-2.87-.75-5.4-1.27-7.61-1.55-3.29-.47-7.02-.7-11.21-.7-6.58,0-13.2.54-19.87,1.62l-.56-2.4c3.33-1.5,6.44-2.56,9.3-3.17,4.6-1.03,10.41-1.55,17.41-1.55,4.74,0,8.93.35,12.54,1.06v6.7Zm-2.47-14.59l1.27-.92c1.74.75,3.19,1.72,4.37,2.89,1.27,1.27,2.35,2.91,3.24,4.93l-4.79,2.26c-1.03-3.71-2.4-6.77-4.09-9.16Zm17.55,5.57l-4.72,2.54c-1.32-3.66-2.89-6.62-4.72-8.88l1.13-.99c3.57,1.22,6.34,3.66,8.32,7.33Z"/>
        <path class="cls-1" d="m562.49,28.19c-.47.56-1.34,1.46-2.61,2.68l-5.14-1.55c3.1-3.24,5.54-5.97,7.33-8.17h-11.13l-2.82.56v-3.03c-.24.24-.52.54-.85.92l-4.16-5.22c1.41-1.08,2.4-1.95,2.96-2.61,1.27-1.41,2.23-2.96,2.89-4.65.24-.66.52-1.62.85-2.89h2.33c.09.66.14,1.25.14,1.76v.85h19.87V.7h5.71c.99,0,1.48.31,1.48.92,0,.42-.38.89-1.13,1.41v3.81h29.74c-.85,1.97-1.86,3.64-3.03,5-1.65,1.83-3.88,3.76-6.7,5.78l-1.41-1.27c1.27-2.02,2.4-4.25,3.38-6.7h-48.13c-.14,1.65-.4,3.05-.78,4.23-.47,1.36-1.29,2.7-2.47,4.02l2.11.42h13.32c1.46-1.93,3.05-4.35,4.79-7.26l5.07.99c.75.19,1.13.54,1.13,1.06,0,.66-.71,1.13-2.11,1.41-1.13,1.65-2.02,2.91-2.68,3.81h29.81l2.82-.56v3.95l-2.82-.56h-9.58c-1.79,3.43-3.76,6.23-5.92,8.39,6.72,1.32,13.2,3.15,19.45,5.5l-4.3,4.72c-6.48-3.01-12.8-5.43-18.96-7.26-6.76,4.32-18,6.58-33.69,6.77l-.28-2.04c9.02-.7,15.93-1.79,20.72-3.24,2.72-.85,5.17-1.88,7.33-3.1-3.99-.94-7.8-1.76-11.42-2.47l-1.13-.21Zm10.22,21.92l-.14.14c-3.24,2.96-7.38,5.61-12.4,7.96-5.07,2.3-10.57,4.16-16.49,5.57l-.56-1.97c7.23-2.54,13.81-5.92,19.73-10.15,2.82-2.02,5.03-3.88,6.62-5.57h-21.71l-2.82.56v-3.95l2.82.56h24.95v-5.99h5.21c.99,0,1.48.31,1.48.92,0,.38-.38.85-1.13,1.41v3.66h25.02l2.82-.56v3.95l-2.82-.56h-23.96c1.97,1.88,4.67,3.66,8.1,5.36,4.79,2.4,9.65,4.13,14.59,5.22,1.79.42,3.76.78,5.92,1.06-.8,1.41-1.29,2.33-1.48,2.75-.24.47-.63,1.46-1.2,2.96-5.22-.85-10.5-2.89-15.86-6.13-4.65-2.87-8.36-6.01-11.13-9.44v17.69h-5.57v-15.43Zm-8.74-23.54c5.64.56,10.52,1.2,14.66,1.9,2.4-2.07,4.37-4.51,5.92-7.33h-16.14c-1.88,2.4-3.36,4.21-4.44,5.43Z"/>
        <path class="cls-1" d="m648.45,25.3l.85.49c7.75,4.51,14.02,9.47,18.82,14.87l-5.29,5.57c-3.1-4.65-5.87-8.48-8.32-11.49-2.11-2.49-4.32-4.91-6.62-7.26-1.32,4.28-3.55,7.96-6.7,11.06-3.15,3.05-7.19,5.76-12.12,8.1l-1.41-1.97c5.4-3.52,9.42-7.8,12.05-12.83,1.46-2.77,2.47-5.78,3.03-9.02.38-2.3.68-4.93.92-7.89h-18.11v49.68h-6.2V12.12h24.52c.23-3.76.33-6.3.28-7.61V.7h5.85c.94,0,1.41.31,1.41.92,0,.42-.35.89-1.06,1.41v2.04c0,2.3-.09,4.65-.28,7.05h26.36v45.31c0,2.21-.35,3.71-1.06,4.51-.47.56-.96,1.03-1.48,1.41-.89.56-2.33.85-4.3.85h-10.99v-2.96h7.75c1.41-.05,2.4-.35,2.96-.92s.87-1.57.92-3.03V14.94h-20.37c-.33,4.28-.8,7.73-1.41,10.36Z"/>
      </g>
    </g>
  </g>
</svg>