<?xml version="1.0" encoding="UTF-8"?>
<svg id="_レイヤー_2" data-name="レイヤー 2" xmlns="http://www.w3.org/2000/svg" viewBox="0 0 431.27 50">
  <defs>
    <style>
      .cls-1 {
        fill: #f8f4dd;
      }
    </style>
  </defs>
  <g id="_レイヤー_1-2" data-name="レイヤー 1">
    <path class="cls-1" d="M185.18,39.2c-7.4,4.39-16.14,8.08-20.98,8.74-1.22.17-3.19.16-4.28-.69-1-.87-1.22-1.79-.8-3.12.45-1.42,2.48-2.31,4.36-3.04,5.65-2.03,11.44-4.8,15.89-7.49,5.76-3.48,11.2-7.59,13.93-12.11,1.13-1.87,1.29-4.1-.01-5.19-1.15-.96-3.31-1.55-6.86-1.54-2.51,0-6.22.05-10.14.33-6.83.49-14.3,1.72-17.36,2.15-.93.13-2.23.24-3.39.19-1.71-.08-2.95-.82-3.34-2.07-.49-1.53.11-2.85,1.34-3.64,3.23-2.08,16.9-3.71,23.61-4.21,6.2-.47,10.73-.42,14.23.06,3.92.54,7.04,2.01,8.8,4.11,2.38,2.85,2.95,7.91.73,12.38-3.32,6.68-9.38,11.39-15.73,15.15ZM126.91,22.2c-3.7,6.15-10.38,12.06-21.65,17.8-7.82,3.99-15.41,6.63-19.83,7.36-1.1.18-2.85.19-3.94-.57s-1.45-2.07-.92-3.34c.56-1.33,2.24-2.11,4-2.73,7.07-2.51,15.84-6.66,20.23-9.41,2.75-1.73,11.57-6.67,15.05-12.59.98-1.67,1.04-3.43-.01-4.41-.95-.88-2.95-1.16-5.62-1.26-2.29-.08-5.69.14-9.28.46-6.25.55-13.07,1.91-15.87,2.37-.85.14-1.96.26-3.03.22-1.56-.07-2.83-.92-3.19-2.09-.47-1.51.18-2.77,1.3-3.58,2.95-2.1,15.44-3.95,21.58-4.4,9.66-.7,15.56-.06,19.15,1.92,2.06,1.14,3.39,2.75,3.94,4.78,1.04,3.86-.97,7.89-1.91,9.45ZM136.01,49.72c-2.09,0-3.98-1.65-5.28-2.76s-2.85-2.4-5.21-4.11c-1.46-1.05-3.38-2.28-5.04-3.21-1.65-.94-2.46-1.72-2.58-2.86-.08-.78.25-1.53.78-2.08h0c1.56-1.62,3.79-.95,5.14-.54,1.94.6,4.9,1.7,7.6,3.39,2.51,1.57,6.34,4.42,7.53,6.38,1.15,1.9,1.11,3.71-.19,4.88-.76.69-1.94.91-2.75.91ZM209.61,16.31c-1.32,0-2.46-.71-2.98-1.87-.15-.34-.33-.78-.52-1.26-.29-.72-.61-1.53-.97-2.28-.14-.3-.37-.7-.63-1.14-.67-1.16-1.52-2.64-1.61-3.64-.1-1.12.54-2.11,1.62-2.7.47-.26,1.79-.64,3.03-.19,1.94.7,3.72,3.21,4.71,5.01,1.39,2.54,1.68,4.86.78,6.37-.46.78-1.72,1.7-3.43,1.7ZM220.85,13.39c-1.26-.08-2.2-.68-2.87-1.74-.27-.42-.56-1.01-.88-1.63-.29-.57-.57-1.09-.93-1.76-.14-.25-.62-1.3-1.11-2.02-.63-.92-1.09-1.98-1.23-2.73-.13-.7-.04-2.07,1.3-2.85.96-.57,2.14-.56,3.4-.04,1.55.63,3.01,1.99,4.46,4.31,1.27,2.03,2.75,5.58.75,7.4-.64.58-1.65,1.11-2.89,1.07ZM265.35,46.74c-2.12,0-4.16-.28-5.42-.82-4.08-1.72-5.51-6.03-4.81-12.27.5-4.38,2.44-13.79,4.51-20.33.53-1.69.95-2.66,1.5-3.51.76-1.16,1.99-2.08,3.8-1.8,1.48.24,2.45,1.34,2.61,2.46.11.76.03,1.79-.13,2.54-.3,1.43-.89,4.29-1.31,6.12-1.17,5.09-2.43,12.33-2.56,14.92-.12,2.25-.02,3.72,1.16,4.49.73.47,2.15.56,4.02.2,4.53-.88,11.63-3.41,15.2-4.96,4.51-1.96,10-4.74,11.18-5.29s4.08-2.1,5.72.03h0c.42.6.58,1.19.47,1.85-.17,1.01-.92,2.06-2.27,3.07-3.16,2.37-5.42,3.77-10.79,6.28-4.32,2.02-10.85,4.64-15.48,5.84-2.71.7-5.62,1.18-7.41,1.17ZM223.68,46.07c-.97-.88-1.5-2.35-.56-3.61.53-.71,1.32-1.26,2.38-1.96,4.12-2.57,6.51-4.59,9.34-7.98,2.65-3.52,4.1-6.78,5.88-11.71,1.31-4.25,1.72-6.7,2.04-7.92.3-1.15.62-2.03,1.3-2.96.82-1.13,1.94-1.76,3.49-1.59,3.03.34,2.86,3.42,2.76,5.16-.11,1.96-.98,8.18-2.9,13.29-1.64,4.38-3.71,7.96-5.82,10.79-3.35,4.48-7.77,7.22-11.37,8.59-1.56.6-4.9,1.37-6.54-.11ZM12.46,47.95c-3.71.03-7.92-.7-10.53-3.57-2.25-2.47-3.42-8.58,1.59-14.57,3.72-4.46,10.34-9.49,16.31-13.37,5.81-3.78,11.91-6.94,13.57-7.64,3.64-1.55,6.07-.74,6.87.96.84,1.79-.17,3.68-2.53,5.12-1.88,1.15-12.96,7.89-16.84,10.63-3.67,2.59-7.02,5.12-9.23,7.35-1.33,1.34-2.14,2.51-2.51,3.56-.79,2.24.28,3.91,2.57,4.06,1.32.09,2.66-.04,4.29-.25,4.71-.61,16.94-2.82,22.44-3.48,5.5-.66,8.91-.64,13.65-.32,4.14.28,8.49,1.47,10.97,2.8,1.66.89,2.76,1.85,3.4,2.78.83,1.21.76,2.44.04,3.47-1.04,1.49-3.59,1.51-5.96.53-3.49-1.44-7.55-2.3-12.07-2.34-3.14-.03-9.51.58-13.38,1.3-3.87.72-15.69,2.99-22.65,2.98ZM430.09,35.91c-1-.94-2.53-1.78-4.26-2.45-2.64-1.03-8.57-2.26-11.19-2.45-1.82-.14-4.3-.24-5.74.52-.57.3-1.02.88-1.15,1.43-.12.51-.27,1.37.47,2.29.39.48,1.18.77,1.71.95,1.59.53,5.5,1.51,7.14,2.01,3.98,1.23,5.61,1.67,8.49,2.85.59.24,1.54.51,2.87.37,1.1-.12,2.02-.84,2.36-1.4.83-1.38.62-2.88-.69-4.12ZM402.85,31.36s.09-.03.11-.04c8.23-3.76,14.13-7.19,17.74-11.01,2.28-2.41,3.12-5.21,2.4-7.92-.62-2.32-3.05-4.22-7.36-4.87-3.17-.48-7.69-.55-10.69-.53-.02-.52-.04-1.25-.11-2.26-.1-1.56-.49-2.95-1.34-3.8-.85-.85-2.31-1.02-3.27-.87-1.49.23-2.44,1.3-2.64,2.59-.14.9-.25,3.22-.52,4.72-5.73.53-12.08,1.47-14.1,1.95-3.68.86-4.32,2.33-4.12,3.96.14,1.09,1.04,2.05,2.25,2.34.98.23,1.88.25,3.29.08,2.47-.3,8.85-1.25,15.52-1.7,4.94-.33,9.54-.41,12.49-.16.59.05,2,.26,2.33,1.17.27.73-.04,1.43-.99,2.26-3.39,2.82-8.84,5.69-16.17,8.7-6.2,2.55-11.63,4.23-16.26,5.5-2.06.57-4.23,1.07-5.92,1.59-1.9.59-2.98,2.06-2.5,3.73.32,1.1,1.42,2,3.01,2.07,2.36.11,6.27-.57,10.51-1.7,4.95-1.32,9.89-3.17,11.54-3.8,0,0,.05-.02.06-.03-.03.04-.04.14-.03.18.17,2.37.16,6.1.13,7.29-.06,3.09-.6,5.19-.37,6.42.34,1.85,1.35,2.78,3.71,2.8,1.48.01,2.46-.5,3.03-1.2.78-.96,1.03-2.88,1.08-4.33.09-2.67-.18-5.59-.54-7.51-.4-2.08-1.08-4.4-2.13-5.53-.02-.03-.08-.07-.13-.07ZM358.85,9.53c.07-2.61-2.61-3.49-5.2-3.87-3.4-.5-9-1.05-15.37-1.08-5.44-.03-12.44.24-16.39.86-3.07.49-4.81,1.63-4.9,3.48-.06,1.17.43,2.08,1.51,2.72s3.11.57,5.12.4c3.66-.31,10.02-.58,14.79-.52,6.52.08,10.14.41,14.47.89,2.56.29,3.81,0,4.64-.51s1.3-1.32,1.33-2.37ZM355.87,25.94c.29-1.62-.61-2.67-1.74-3.31-1.42-.8-3.47-1.11-7.19-1.41-2.56-.21-4.87-.35-7.78-.36-4.1-.02-10.67.14-14.15.62-3.33.47-4.85,1.96-4.78,3.8.1,2.62,2.82,3.12,4.73,2.98,3.08-.23,9.65-.48,14.01-.42,4.23.06,7.92.39,12.16.64,3.24.19,4.46-.92,4.75-2.55ZM313.71,45.37c1.08.38,2.44.46,4.12.35,3.26-.2,10.16-.8,19.25-.68,9.04.12,14.12.48,18.67.9,1.81.17,4.03.43,5.42.1,1.18-.28,2.28-.92,2.48-2.42s-.81-3.04-2.78-3.73c-1.5-.52-3.81-.95-5.36-1.13-3.94-.48-10.76-1.02-17.92-1.03-9.15-.01-14.88.46-19.35.94-1.85.2-3.42.5-4.51,1.12-1.41.79-2.05,1.8-1.98,3.25.06,1.21.92,1.98,1.95,2.34Z"/>
  </g>
</svg>