<?xml version="1.0" encoding="UTF-8"?>
<svg id="_レイヤー_2" data-name="レイヤー 2" xmlns="http://www.w3.org/2000/svg" viewBox="0 0 581.15 188.77">
  <defs>
    <style>
      .cls-1 {
        fill: #221815;
        stroke-width: 0px;
      }
    </style>
  </defs>
  <g id="_レイヤー_2-2" data-name="レイヤー 2">
    <g>
      <g>
        <path class="cls-1" d="m0,50.74h10.05c.06,2.63.22,4.64.47,6.01,1.38,7.46,5.2,11.18,11.46,11.18,3.44,0,6.3-1.03,8.55-3.1,1.88-1.75,3.16-4.07,3.85-6.95.5-2.07.75-4.64.75-7.71V.66h9.11v49.24c0,5.39-.69,9.43-2.07,12.12-1.82,3.51-4.67,6.14-8.55,7.89-3.19,1.38-6.99,2.07-11.37,2.07-4.82,0-9.11-.94-12.87-2.82-3.95-2-6.67-5.45-8.17-10.34-.63-1.88-1.03-4.57-1.22-8.08Z"/>
        <path class="cls-1" d="m90.41,38.81h-17.38v32.51h-9.11V1.32h28.57c4.51,0,8.05.44,10.62,1.32,3.38,1.07,5.98,2.82,7.8,5.26,2.25,3.07,3.38,6.99,3.38,11.75,0,9.77-4.79,15.82-14.38,18.14l18.14,33.55h-10.34l-17.29-32.51Zm-17.38-4.7h16.35c4.07,0,7.2-.63,9.4-1.88,1.69-.94,2.97-2.22,3.85-3.85,1.38-2.63,2.07-5.64,2.07-9.02,0-3.19-.66-6.01-1.97-8.46-1.75-3.26-5.51-4.89-11.28-4.89h-18.42v28.1Z"/>
        <path class="cls-1" d="m132.01,70.66V1.32h41.81l3.95-.75v6.39l-3.95-.85h-32.7v26.22h29.98l4.04-.85v6.48l-4.04-.85h-29.98v28.75h33.73l3.95-.85v6.48l-3.95-.85h-42.85Z"/>
        <path class="cls-1" d="m221.09,71.32V1.32h27.44c6.77,0,11.9,1.28,15.41,3.85,2.13,1.57,3.73,3.57,4.79,6.01,1.19,2.88,1.79,5.95,1.79,9.21,0,6.52-2.16,11.4-6.48,14.66-3.76,2.76-8.93,4.13-15.5,4.13h-18.32v32.14h-9.11Zm9.11-36.83h17.2c3.13,0,5.86-.63,8.18-1.88,2.13-1.13,3.63-3.16,4.51-6.11.56-1.88.85-3.98.85-6.3,0-3.63-.72-6.67-2.16-9.11-1.94-3.38-5.73-5.07-11.37-5.07h-17.2v28.47Z"/>
        <path class="cls-1" d="m314.92,0c7.14,0,13.56,2.22,19.26,6.67,4.13,3.19,7.24,7.49,9.3,12.87,2,5.2,3.01,10.78,3.01,16.73,0,6.39-1.16,12.22-3.48,17.48-2.38,5.33-5.86,9.58-10.43,12.78-5.26,3.63-11.31,5.45-18.14,5.45-8.21,0-15.22-2.63-21.05-7.89-3.88-3.51-6.73-7.99-8.55-13.44-1.57-4.7-2.35-9.65-2.35-14.85,0-6.58,1.19-12.5,3.57-17.76,2.44-5.39,5.92-9.62,10.43-12.69,5.32-3.57,11.46-5.36,18.42-5.36Zm-.75,4.04c-4.2,0-7.99,1.25-11.37,3.76-3.45,2.51-6.11,6.36-7.99,11.56-1.75,4.95-2.63,10.46-2.63,16.54,0,8.64,1.69,15.97,5.07,21.99,1.82,3.32,4.26,5.86,7.33,7.61,2.88,1.63,6.17,2.44,9.87,2.44,5.32,0,9.77-1.66,13.34-4.98,3.07-2.82,5.39-6.89,6.95-12.22,1.38-4.64,2.07-9.55,2.07-14.75,0-6.58-1-12.43-3.01-17.57-3.7-9.58-10.24-14.38-19.64-14.38Z"/>
        <path class="cls-1" d="m363.08,71.32V.66h9.21v70.66h-9.21Z"/>
        <path class="cls-1" d="m441.7,71.32l-44.45-57.04v57.04h-5.17V.66h6.2l44.45,57.04V.66h5.17v70.66h-6.2Z"/>
        <path class="cls-1" d="m495.75,6.11v65.21h-9.21V6.11h-20.67l-4.04.75V.56l4.04.75h50.55l4.04-.75v6.3l-4.04-.75h-20.67Z"/>
        <path class="cls-1" d="m556.86,27.02c-1.13,8.88-2.97,16.73-5.52,23.57-1.99,5.37-4.4,9.55-7.21,12.53-2.77,2.99-5.5,4.48-8.18,4.48-1.78,0-3.44-.61-5-1.82-1.73-1.34-3.1-3.31-4.09-5.91-1-2.68-1.49-5.71-1.49-9.09,0-4.5.97-8.64,2.92-12.4,2.03-3.94,4.83-7.17,8.38-9.68,4.85-3.38,10.76-5.07,17.73-5.07,6.15,0,11.39,1.26,15.72,3.77,3.38,1.99,6.02,4.61,7.92,7.86,2.08,3.55,3.12,7.58,3.12,12.08,0,5.59-1.6,10.46-4.81,14.61-1.82,2.38-4.29,4.44-7.4,6.17-3.85,2.21-8.21,3.7-13.05,4.48-.52.09-1.17.17-1.95.26l-.52-2.01c2.68-.82,4.59-1.47,5.71-1.95,3.25-1.34,6-3.03,8.25-5.07,2.34-2.12,4.16-4.59,5.46-7.4,1.34-2.99,2.01-6.17,2.01-9.55,0-3.59-.8-6.97-2.4-10.13-1.34-2.6-3.2-4.74-5.58-6.43-2.3-1.64-4.94-2.68-7.92-3.12-.43-.09-1.13-.15-2.08-.19Zm-5.71-.13c-5.85.65-10.56,3.03-14.16,7.14-4.2,4.81-6.3,10.48-6.3,17.01,0,4.33.74,7.88,2.21,10.65.52.95,1.21,1.69,2.08,2.21.39.22.8.32,1.23.32,2.12,0,4.55-2.75,7.27-8.25,2.99-6.1,5.28-13.98,6.88-23.64.22-1.3.48-3.12.78-5.46Z"/>
      </g>
      <g>
        <path class="cls-1" d="m169.34,149.68c-.75,1.63-1.28,2.95-1.6,3.95-.88,2.32-1.32,4.54-1.32,6.67,0,4.89,2.16,8.46,6.48,10.71,2.88,1.57,5.98,2.63,9.3,3.19,5.01.81,10.3,1.22,15.88,1.22,10.09,0,19.95-.94,29.6-2.82v9.58c-8.96,1.19-18.04,1.79-27.25,1.79-7.46,0-14.19-.56-20.2-1.69-3.51-.63-6.86-1.85-10.05-3.66-2.88-1.69-5.14-3.85-6.77-6.48-1.5-2.44-2.25-5.07-2.25-7.89,0-4.89,1.69-10.18,5.07-15.88l3.1,1.32Zm49.9-26.5c-3.82-1-7.2-1.69-10.15-2.07-4.39-.63-9.37-.94-14.94-.94-8.77,0-17.6.72-26.5,2.16l-.75-3.19c4.45-2,8.58-3.41,12.4-4.23,6.14-1.38,13.87-2.07,23.21-2.07,6.33,0,11.9.47,16.73,1.41v8.93Zm-3.29-19.45l1.69-1.22c2.32,1,4.26,2.29,5.83,3.85,1.69,1.69,3.13,3.88,4.32,6.58l-6.39,3.01c-1.38-4.95-3.19-9.02-5.45-12.22Zm23.4,7.42l-6.3,3.38c-1.75-4.89-3.85-8.83-6.3-11.84l1.5-1.32c4.76,1.63,8.46,4.89,11.09,9.77Z"/>
        <path class="cls-1" d="m273.72,138.97c-.63.75-1.79,1.94-3.48,3.57l-6.86-2.07c4.13-4.32,7.39-7.95,9.77-10.9h-14.85l-3.76.75v-4.04c-.31.31-.69.72-1.13,1.22l-5.54-6.95c1.88-1.44,3.19-2.6,3.95-3.48,1.69-1.88,2.97-3.95,3.85-6.2.31-.88.69-2.16,1.13-3.85h3.1c.12.88.19,1.66.19,2.35v1.13h26.5v-8.18h7.61c1.32,0,1.97.41,1.97,1.22,0,.56-.5,1.19-1.5,1.88v5.07h39.65c-1.13,2.63-2.48,4.86-4.04,6.67-2.19,2.44-5.17,5.01-8.93,7.71l-1.88-1.69c1.69-2.69,3.19-5.67,4.51-8.93h-64.18c-.19,2.19-.53,4.07-1.03,5.64-.63,1.82-1.72,3.6-3.29,5.36l2.82.56h17.76c1.94-2.57,4.07-5.79,6.39-9.68l6.77,1.32c1,.25,1.5.72,1.5,1.41,0,.88-.94,1.5-2.82,1.88-1.5,2.19-2.69,3.88-3.57,5.07h39.75l3.76-.75v5.26l-3.76-.75h-12.78c-2.38,4.57-5.01,8.3-7.89,11.18,8.96,1.75,17.6,4.2,25.93,7.33l-5.73,6.3c-8.64-4.01-17.07-7.24-25.28-9.68-9.02,5.76-23.99,8.77-44.92,9.02l-.38-2.72c12.03-.94,21.24-2.38,27.63-4.32,3.63-1.13,6.89-2.5,9.77-4.13-5.33-1.25-10.4-2.35-15.22-3.29l-1.5-.28Zm13.62,29.22l-.19.19c-4.32,3.95-9.84,7.49-16.54,10.62-6.77,3.07-14.09,5.54-21.99,7.42l-.75-2.63c9.65-3.38,18.42-7.89,26.31-13.53,3.76-2.69,6.7-5.17,8.83-7.42h-28.94l-3.76.75v-5.26l3.76.75h33.26v-7.99h6.95c1.32,0,1.97.41,1.97,1.22,0,.5-.5,1.13-1.5,1.88v4.89h33.36l3.76-.75v5.26l-3.76-.75h-31.95c2.63,2.51,6.23,4.89,10.81,7.14,6.39,3.19,12.87,5.51,19.45,6.95,2.38.56,5.01,1.03,7.89,1.41-1.07,1.88-1.72,3.1-1.97,3.66-.31.63-.85,1.94-1.6,3.95-6.95-1.13-14-3.85-21.14-8.17-6.2-3.82-11.15-8.02-14.85-12.59v23.59h-7.42v-20.58Zm-11.65-31.38c7.52.75,14.03,1.6,19.54,2.54,3.19-2.76,5.83-6.01,7.89-9.77h-21.52c-2.51,3.19-4.48,5.61-5.92,7.24Z"/>
        <path class="cls-1" d="m388.29,135.11l1.13.66c10.34,6.01,18.7,12.62,25.09,19.83l-7.05,7.42c-4.13-6.2-7.83-11.31-11.09-15.32-2.82-3.32-5.76-6.55-8.83-9.68-1.75,5.7-4.73,10.62-8.93,14.75-4.2,4.07-9.58,7.67-16.16,10.81l-1.88-2.63c7.2-4.7,12.56-10.4,16.07-17.1,1.94-3.7,3.29-7.71,4.04-12.03.5-3.07.91-6.58,1.22-10.52h-24.15v66.25h-8.27v-70h32.7c.31-5.01.44-8.39.38-10.15v-5.07h7.8c1.25,0,1.88.41,1.88,1.22,0,.56-.47,1.19-1.41,1.88v2.72c0,3.07-.13,6.2-.38,9.4h35.14v60.42c0,2.95-.47,4.95-1.41,6.01-.63.75-1.28,1.38-1.97,1.88-1.19.75-3.1,1.13-5.73,1.13h-14.66v-3.95h10.34c1.88-.06,3.19-.47,3.95-1.22.75-.75,1.16-2.1,1.22-4.04v-56.47h-27.16c-.44,5.7-1.07,10.31-1.88,13.81Z"/>
      </g>
    </g>
  </g>
</svg>